{"glyphs":{"0":{"ha":897,"x_min":0,"x_max":0,"o":"m 449 -17 b 78 505 215 -16 78 174 b 449 1024 79 834 217 1024 b 819 505 680 1024 819 833 b 449 -17 819 174 682 -17 m 449 115 b 667 505 585 115 667 252 b 449 895 667 756 584 895 b 230 505 313 895 230 756 b 449 115 230 252 312 115 "},"1":{"ha":656,"x_min":0,"x_max":0,"o":"m 480 0 l 327 0 l 327 857 l 322 857 l 80 699 l 80 845 l 332 1010 l 480 1010 "},"2":{"ha":852,"x_min":0,"x_max":0,"o":"m 97 110 l 439 465 b 601 733 547 580 601 644 b 420 897 601 834 523 897 b 242 717 311 897 241 826 l 96 717 b 423 1024 96 902 234 1024 b 746 737 614 1024 746 900 b 508 348 746 624 693 535 l 307 138 l 307 131 l 762 131 l 762 0 l 97 0 "},"3":{"ha":895,"x_min":0,"x_max":0,"o":"m 449 -14 b 92 263 245 -14 99 99 l 247 263 b 448 117 253 174 338 117 b 652 282 567 117 652 184 b 431 455 652 384 571 455 l 346 455 l 346 579 l 431 579 b 621 741 543 579 621 643 b 451 897 621 834 554 897 b 261 748 352 897 264 840 l 113 748 b 453 1024 118 912 267 1024 b 768 749 647 1024 769 897 b 595 525 769 635 700 552 l 595 517 b 806 277 729 497 806 405 b 449 -14 806 109 655 -14 "},"4":{"ha":908,"x_min":0,"x_max":0,"o":"m 76 321 l 512 1010 l 700 1010 l 700 327 l 834 327 l 834 197 l 700 197 l 700 0 l 555 0 l 555 197 l 76 197 m 556 829 l 548 829 l 236 334 l 236 327 l 556 327 "},"5":{"ha":861,"x_min":0,"x_max":0,"o":"m 431 -14 b 100 263 245 -14 106 103 l 248 263 b 431 114 255 177 333 114 b 631 324 546 114 631 202 b 424 538 631 447 544 537 b 257 480 363 538 295 514 l 117 501 l 174 1010 l 729 1010 l 729 879 l 301 879 l 269 597 l 275 597 b 459 664 314 635 384 664 b 778 327 643 664 779 522 b 431 -14 779 130 634 -14 "},"6":{"ha":883,"x_min":0,"x_max":0,"o":"m 450 -14 b 81 471 270 -12 81 99 b 463 1026 81 825 228 1026 b 792 748 643 1026 769 910 l 642 748 b 463 893 621 834 560 893 b 227 525 315 893 228 757 l 235 525 b 485 662 287 611 379 662 b 800 330 660 662 801 523 b 450 -14 801 136 661 -16 m 449 114 b 653 328 565 114 653 209 b 453 538 653 445 568 538 b 246 327 336 538 247 439 b 449 114 246 213 332 114 "},"7":{"ha":804,"x_min":0,"x_max":0,"o":"m 572 872 l 572 879 l 62 879 l 62 1010 l 730 1010 l 730 875 l 291 0 l 131 0 "},"8":{"ha":877,"x_min":0,"x_max":0,"o":"m 438 -14 b 79 269 226 -14 78 106 b 282 524 78 397 167 504 l 282 530 b 116 755 182 553 115 646 b 438 1024 115 909 252 1024 b 761 755 623 1024 760 909 b 595 530 760 646 693 553 l 595 524 b 798 269 708 504 797 397 b 438 -14 797 106 649 -14 m 438 111 b 644 279 563 111 643 178 b 438 459 643 384 556 459 b 233 279 319 459 232 384 b 438 111 232 178 312 111 m 438 581 b 612 742 539 581 611 646 b 438 899 611 836 541 899 b 265 742 334 899 264 836 b 438 581 264 646 336 581 "},"9":{"ha":883,"x_min":0,"x_max":0,"o":"m 433 1026 b 802 542 613 1025 801 913 b 420 -14 801 188 655 -14 b 91 265 240 -14 113 102 l 242 265 b 420 119 261 179 324 119 b 656 487 568 119 655 255 l 648 487 b 398 350 596 402 505 350 b 82 683 222 350 82 489 b 433 1026 82 876 221 1028 m 434 898 b 230 685 318 898 230 804 b 431 474 230 567 315 474 b 637 686 546 474 637 573 b 434 898 637 799 550 898 "},"A":{"ha":972,"x_min":0,"x_max":0,"o":"m 35 0 l 398 1010 l 574 1010 l 938 0 l 776 0 l 684 267 l 289 267 l 196 0 m 639 396 l 490 827 l 482 827 l 333 396 "},"Ä":{"ha":972,"x_min":0,"x_max":0,"o":"m 35 0 l 398 1010 l 574 1010 l 938 0 l 776 0 l 684 267 l 289 267 l 196 0 m 639 396 l 490 827 l 482 827 l 333 396 m 341 1129 b 254 1215 295 1129 254 1169 b 341 1301 254 1264 295 1301 b 428 1215 391 1301 428 1264 b 341 1129 428 1169 391 1129 m 631 1129 b 544 1215 585 1129 544 1169 b 631 1301 544 1264 585 1301 b 718 1215 681 1301 718 1264 b 631 1129 718 1169 681 1129 "},"Ã":{"ha":972,"x_min":0,"x_max":0,"o":"m 35 0 l 398 1010 l 574 1010 l 938 0 l 776 0 l 684 267 l 289 267 l 196 0 m 639 396 l 490 827 l 482 827 l 333 396 m 239 1114 b 392 1293 239 1223 305 1293 b 572 1227 472 1293 506 1227 b 637 1302 610 1227 636 1259 l 734 1296 b 581 1119 734 1186 667 1119 b 400 1186 487 1119 471 1186 b 338 1111 364 1186 338 1154 "},"À":{"ha":972,"x_min":0,"x_max":0,"o":"m 35 0 l 398 1010 l 574 1010 l 938 0 l 776 0 l 684 267 l 289 267 l 196 0 m 639 396 l 490 827 l 482 827 l 333 396 m 276 1339 l 432 1339 l 546 1111 l 429 1111 "},"Á":{"ha":972,"x_min":0,"x_max":0,"o":"m 35 0 l 398 1010 l 574 1010 l 938 0 l 776 0 l 684 267 l 289 267 l 196 0 m 639 396 l 490 827 l 482 827 l 333 396 m 541 1339 l 696 1339 l 543 1111 l 425 1111 "},"Â":{"ha":972,"x_min":0,"x_max":0,"o":"m 35 0 l 398 1010 l 574 1010 l 938 0 l 776 0 l 684 267 l 289 267 l 196 0 m 639 396 l 490 827 l 482 827 l 333 396 m 252 1101 l 252 1108 l 425 1317 l 547 1317 l 721 1108 l 721 1101 l 587 1101 l 486 1233 l 385 1101 "},"Å":{"ha":972,"x_min":0,"x_max":0,"o":"m 35 0 l 398 1010 l 574 1010 l 938 0 l 776 0 l 684 267 l 289 267 l 196 0 m 486 1073 b 324 1226 397 1073 324 1142 b 486 1380 324 1311 397 1380 b 649 1226 576 1380 649 1311 b 486 1073 649 1142 576 1073 m 639 396 l 490 827 l 482 827 l 333 396 m 486 1151 b 563 1226 529 1152 563 1185 b 486 1301 563 1268 529 1302 b 409 1226 443 1301 409 1268 b 486 1151 409 1185 443 1151 "},"Ā":{"ha":972,"x_min":0,"x_max":0,"o":"m 35 0 l 398 1010 l 574 1010 l 938 0 l 776 0 l 684 267 l 289 267 l 196 0 m 639 396 l 490 827 l 482 827 l 333 396 m 720 1159 l 252 1159 l 252 1263 l 720 1263 "},"Ă":{"ha":972,"x_min":0,"x_max":0,"o":"m 35 0 l 398 1010 l 574 1010 l 938 0 l 776 0 l 684 267 l 289 267 l 196 0 m 639 396 l 490 827 l 482 827 l 333 396 m 704 1267 b 486 1079 704 1156 620 1079 b 269 1267 354 1079 269 1156 l 390 1267 b 486 1173 390 1217 416 1173 b 583 1267 555 1173 583 1217 "},"Ą":{"ha":972,"x_min":0,"x_max":0,"o":"m 35 0 l 398 1010 l 574 1010 l 938 0 b 826 -136 877 -38 826 -80 b 876 -184 826 -166 839 -184 b 938 -168 904 -184 925 -175 l 951 -262 b 843 -291 928 -276 892 -291 b 695 -161 761 -291 700 -246 b 775 2 691 -105 715 -46 l 684 267 l 289 267 l 196 0 m 639 396 l 490 827 l 482 827 l 333 396 "},"Ǎ":{"ha":972,"x_min":0,"x_max":0,"o":"m 35 0 l 398 1010 l 574 1010 l 938 0 l 776 0 l 684 267 l 289 267 l 196 0 m 639 396 l 490 827 l 482 827 l 333 396 m 486 1185 l 587 1317 l 721 1317 l 721 1310 l 547 1101 l 425 1101 l 252 1310 l 252 1317 l 385 1317 "},"Ǟ":{"ha":972,"x_min":0,"x_max":0,"o":"m 35 0 l 398 1010 l 574 1010 l 938 0 l 776 0 l 684 267 l 289 267 l 196 0 m 639 396 l 490 827 l 482 827 l 333 396 m 720 1412 l 252 1412 l 252 1515 l 720 1515 m 341 1129 b 254 1215 295 1129 254 1169 b 341 1301 254 1264 295 1301 b 428 1215 391 1301 428 1264 b 341 1129 428 1169 391 1129 m 631 1129 b 544 1215 585 1129 544 1169 b 631 1301 544 1264 585 1301 b 718 1215 681 1301 718 1264 b 631 1129 718 1169 681 1129 "},"Ǡ":{"ha":972,"x_min":0,"x_max":0,"o":"m 35 0 l 398 1010 l 574 1010 l 938 0 l 776 0 l 684 267 l 289 267 l 196 0 m 639 396 l 490 827 l 482 827 l 333 396 m 712 1364 l 244 1364 l 244 1463 l 712 1463 m 486 1103 b 393 1188 435 1103 393 1141 b 486 1272 393 1234 435 1272 b 580 1188 537 1272 580 1234 b 486 1103 580 1141 537 1103 "},"Ǻ":{"ha":972,"x_min":0,"x_max":0,"o":"m 35 0 l 398 1010 l 574 1010 l 938 0 l 776 0 l 684 267 l 289 267 l 196 0 m 639 396 l 490 827 l 482 827 l 333 396 m 486 1064 b 367 1180 422 1064 367 1116 b 486 1296 367 1244 422 1296 b 605 1180 553 1296 605 1244 b 486 1064 605 1116 553 1064 m 540 1462 l 691 1462 l 528 1333 l 430 1333 m 486 1133 b 534 1180 514 1133 534 1155 b 486 1226 534 1204 514 1226 b 438 1180 460 1226 438 1204 b 486 1133 438 1155 460 1133 "},"Ȁ":{"ha":972,"x_min":0,"x_max":0,"o":"m 35 0 l 398 1010 l 574 1010 l 938 0 l 776 0 l 684 267 l 289 267 l 196 0 m 639 396 l 490 827 l 482 827 l 333 396 m 446 1294 l 545 1339 l 648 1155 l 577 1111 m 191 1294 l 277 1339 l 420 1155 l 357 1111 "},"Ȃ":{"ha":972,"x_min":0,"x_max":0,"o":"m 35 0 l 398 1010 l 574 1010 l 938 0 l 776 0 l 684 267 l 289 267 l 196 0 m 639 396 l 490 827 l 482 827 l 333 396 m 267 1135 b 485 1325 267 1245 351 1325 b 702 1135 619 1325 702 1245 l 581 1135 b 485 1230 581 1186 553 1230 b 389 1135 414 1230 388 1184 l 267 1135 "},"Ȧ":{"ha":972,"x_min":0,"x_max":0,"o":"m 35 0 l 398 1010 l 574 1010 l 938 0 l 776 0 l 684 267 l 289 267 l 196 0 m 639 396 l 490 827 l 482 827 l 333 396 m 486 1127 b 393 1215 435 1127 393 1166 b 486 1303 393 1263 435 1303 b 580 1215 537 1303 580 1263 b 486 1127 580 1166 537 1127 "},"Ḁ":{"ha":972,"x_min":0,"x_max":0,"o":"m 35 0 l 398 1010 l 574 1010 l 938 0 l 776 0 l 684 267 l 289 267 l 196 0 m 639 396 l 490 827 l 482 827 l 333 396 m 351 -162 b 475 -47 351 -96 405 -47 b 599 -162 541 -47 599 -96 b 475 -277 599 -231 541 -277 b 351 -162 405 -277 351 -230 m 418 -162 b 475 -218 418 -194 442 -218 b 531 -162 504 -218 531 -194 b 475 -106 531 -130 504 -106 b 418 -162 442 -106 418 -130 "},"Ạ":{"ha":972,"x_min":0,"x_max":0,"o":"m 35 0 l 398 1010 l 574 1010 l 938 0 l 776 0 l 684 267 l 289 267 l 196 0 m 639 396 l 490 827 l 482 827 l 333 396 m 486 -261 b 393 -174 435 -261 393 -222 b 486 -85 393 -125 435 -85 b 579 -174 537 -85 579 -125 b 486 -261 579 -222 537 -261 "},"Ả":{"ha":972,"x_min":0,"x_max":0,"o":"m 35 0 l 398 1010 l 574 1010 l 938 0 l 776 0 l 684 267 l 289 267 l 196 0 m 639 396 l 490 827 l 482 827 l 333 396 m 430 1115 l 426 1215 b 521 1263 496 1219 522 1234 b 418 1312 522 1299 476 1312 l 422 1394 b 650 1263 571 1394 650 1343 b 546 1162 650 1198 598 1170 l 546 1115 "},"Ấ":{"ha":972,"x_min":0,"x_max":0,"o":"m 35 0 l 398 1010 l 574 1010 l 938 0 l 776 0 l 684 267 l 289 267 l 196 0 m 639 396 l 490 827 l 482 827 l 333 396 m 431 1272 l 541 1272 l 742 1101 l 597 1101 l 487 1199 l 377 1101 l 231 1101 m 792 1390 l 943 1390 l 797 1210 l 689 1210 "},"Ầ":{"ha":972,"x_min":0,"x_max":0,"o":"m 35 0 l 398 1010 l 574 1010 l 938 0 l 776 0 l 684 267 l 289 267 l 196 0 m 639 396 l 490 827 l 482 827 l 333 396 m 741 1098 l 596 1098 l 486 1196 l 376 1098 l 231 1098 l 430 1270 l 540 1270 m 283 1208 l 177 1208 l 30 1389 l 181 1389 "},"Ẩ":{"ha":972,"x_min":0,"x_max":0,"o":"m 35 0 l 398 1010 l 574 1010 l 938 0 l 776 0 l 684 267 l 289 267 l 196 0 m 639 396 l 490 827 l 482 827 l 333 396 m 740 1090 l 611 1090 l 484 1201 l 360 1090 l 230 1090 l 419 1261 l 550 1261 m 677 1182 l 674 1267 b 755 1307 729 1271 755 1279 b 664 1348 755 1338 716 1348 l 669 1418 b 857 1308 792 1418 857 1376 b 768 1221 857 1251 813 1227 l 768 1182 "},"Ẫ":{"ha":972,"x_min":0,"x_max":0,"o":"m 35 0 l 398 1010 l 574 1010 l 938 0 l 776 0 l 684 267 l 289 267 l 196 0 m 639 396 l 490 827 l 482 827 l 333 396 m 740 1080 l 610 1080 l 485 1177 l 361 1080 l 230 1080 l 435 1241 l 535 1241 m 663 1393 b 557 1287 663 1340 618 1287 b 417 1333 492 1287 469 1333 b 367 1284 392 1333 367 1308 l 308 1300 b 412 1408 308 1353 351 1408 b 552 1363 466 1408 503 1363 b 602 1413 578 1363 602 1388 "},"Ậ":{"ha":972,"x_min":0,"x_max":0,"o":"m 35 0 l 398 1010 l 574 1010 l 938 0 l 776 0 l 684 267 l 289 267 l 196 0 m 639 396 l 490 827 l 482 827 l 333 396 m 252 1101 l 252 1108 l 425 1317 l 547 1317 l 721 1108 l 721 1101 l 587 1101 l 486 1233 l 385 1101 m 486 -261 b 393 -174 435 -261 393 -222 b 486 -85 393 -125 435 -85 b 579 -174 537 -85 579 -125 b 486 -261 579 -222 537 -261 "},"Ắ":{"ha":972,"x_min":0,"x_max":0,"o":"m 35 0 l 398 1010 l 574 1010 l 938 0 l 776 0 l 684 267 l 289 267 l 196 0 m 639 396 l 490 827 l 482 827 l 333 396 m 702 1244 b 482 1095 702 1157 618 1095 b 263 1244 347 1095 263 1157 l 381 1244 b 482 1167 381 1203 408 1167 b 583 1244 555 1167 583 1203 m 515 1385 l 637 1385 l 522 1254 l 437 1254 "},"Ằ":{"ha":972,"x_min":0,"x_max":0,"o":"m 35 0 l 398 1010 l 574 1010 l 938 0 l 776 0 l 684 267 l 289 267 l 196 0 m 639 396 l 490 827 l 482 827 l 333 396 m 702 1244 b 482 1096 702 1158 618 1096 b 263 1244 347 1096 263 1158 l 381 1244 b 482 1167 381 1203 408 1167 b 583 1244 554 1167 583 1203 m 337 1385 l 459 1385 l 537 1254 l 452 1254 "},"Ẳ":{"ha":972,"x_min":0,"x_max":0,"o":"m 35 0 l 398 1010 l 574 1010 l 938 0 l 776 0 l 684 267 l 289 267 l 196 0 m 639 396 l 490 827 l 482 827 l 333 396 m 694 1251 b 479 1103 694 1163 613 1103 b 264 1251 347 1103 264 1163 l 380 1251 b 479 1175 381 1210 408 1175 b 578 1251 550 1175 578 1210 m 431 1268 l 425 1348 b 518 1383 491 1350 519 1359 b 416 1420 519 1412 474 1420 l 422 1483 b 635 1384 563 1483 635 1444 b 535 1308 635 1334 585 1313 l 535 1268 "},"Ẵ":{"ha":972,"x_min":0,"x_max":0,"o":"m 35 0 l 398 1010 l 574 1010 l 938 0 l 776 0 l 684 267 l 289 267 l 196 0 m 639 396 l 490 827 l 482 827 l 333 396 m 697 1256 b 480 1104 697 1167 615 1104 b 264 1256 348 1104 264 1167 l 381 1256 b 480 1179 381 1215 408 1179 b 580 1256 552 1179 580 1215 m 680 1438 b 566 1316 680 1372 632 1316 b 411 1364 492 1316 470 1364 b 360 1305 383 1364 360 1339 l 291 1322 b 405 1448 291 1387 338 1448 b 560 1400 464 1448 502 1400 b 612 1459 587 1400 612 1425 "},"Ặ":{"ha":972,"x_min":0,"x_max":0,"o":"m 35 0 l 398 1010 l 574 1010 l 938 0 l 776 0 l 684 267 l 289 267 l 196 0 m 639 396 l 490 827 l 482 827 l 333 396 m 704 1267 b 486 1079 704 1156 620 1079 b 269 1267 354 1079 269 1156 l 390 1267 b 486 1173 390 1217 416 1173 b 583 1267 555 1173 583 1217 m 486 -261 b 393 -174 435 -261 393 -222 b 486 -85 393 -125 435 -85 b 579 -174 537 -85 579 -125 b 486 -261 579 -222 537 -261 "},"Α":{"ha":972,"x_min":0,"x_max":0,"o":"m 35 0 l 398 1010 l 574 1010 l 938 0 l 776 0 l 684 267 l 289 267 l 196 0 m 639 396 l 490 827 l 482 827 l 333 396 "},"Ά":{"ha":972,"x_min":0,"x_max":0,"o":"m 35 0 l 398 1010 l 574 1010 l 938 0 l 776 0 l 684 267 l 289 267 l 196 0 m 639 396 l 490 827 l 482 827 l 333 396 m 180 1076 l 327 1076 l 235 844 l 140 844 "},"Ἀ":{"ha":972,"x_min":0,"x_max":0,"o":"m 35 0 l 398 1010 l 574 1010 l 938 0 l 776 0 l 684 267 l 289 267 l 196 0 m 639 396 l 490 827 l 482 827 l 333 396 m 288 952 b 167 765 288 871 243 805 l 112 814 b 167 956 151 851 167 895 l 167 1010 l 288 1010 "},"Ἁ":{"ha":972,"x_min":0,"x_max":0,"o":"m 35 0 l 398 1010 l 574 1010 l 938 0 l 776 0 l 684 267 l 289 267 l 196 0 m 639 396 l 490 827 l 482 827 l 333 396 m 127 1010 l 248 1010 l 248 956 b 303 814 249 897 264 851 l 248 765 b 127 952 174 805 127 871 "},"Ἂ":{"ha":972,"x_min":0,"x_max":0,"o":"m 35 0 l 398 1010 l 574 1010 l 938 0 l 776 0 l 684 267 l 289 267 l 196 0 m 639 396 l 490 827 l 482 827 l 333 396 m 29 955 b -97 765 29 876 -17 809 l -151 807 b -95 959 -115 848 -95 894 l -95 1010 l 29 1010 m 282 781 l 218 781 l 60 996 l 60 1010 l 204 1010 l 282 791 "},"Ἃ":{"ha":972,"x_min":0,"x_max":0,"o":"m 35 0 l 398 1010 l 574 1010 l 938 0 l 776 0 l 684 267 l 289 267 l 196 0 m 639 396 l 490 827 l 482 827 l 333 396 m -104 1010 l 18 1010 l 18 956 b 73 814 18 897 33 851 l 18 765 b -104 952 -58 805 -104 871 m 288 781 l 224 781 l 67 996 l 67 1010 l 212 1010 l 288 793 "},"Ἄ":{"ha":972,"x_min":0,"x_max":0,"o":"m 35 0 l 398 1010 l 574 1010 l 938 0 l 776 0 l 684 267 l 289 267 l 196 0 m 639 396 l 490 827 l 482 827 l 333 396 m 77 952 b -45 765 77 871 30 805 l -100 814 b -45 956 -62 851 -45 897 l -45 1010 l 77 1010 m 90 793 l 168 1010 l 312 1010 l 312 996 l 154 781 l 90 781 "},"Ἅ":{"ha":972,"x_min":0,"x_max":0,"o":"m 35 0 l 398 1010 l 574 1010 l 938 0 l 776 0 l 684 267 l 289 267 l 196 0 m 639 396 l 490 827 l 482 827 l 333 396 m -122 1010 l -1 1010 l -1 956 b 53 814 -1 895 16 851 l -1 765 b -122 952 -75 804 -122 870 m 83 793 l 159 1010 l 304 1010 l 304 996 l 146 781 l 83 781 "},"Ἆ":{"ha":972,"x_min":0,"x_max":0,"o":"m 35 0 l 398 1010 l 574 1010 l 938 0 l 776 0 l 684 267 l 289 267 l 196 0 m 639 396 l 490 827 l 482 827 l 333 396 m 370 1152 b 255 1030 370 1087 323 1030 b 101 1078 182 1030 161 1078 b 50 1019 73 1078 50 1052 l -18 1037 b 95 1163 -18 1102 28 1163 b 250 1114 156 1163 192 1114 b 302 1173 278 1114 302 1139 m 241 946 b 152 793 241 889 209 828 l 94 832 b 136 946 126 865 136 903 l 136 996 l 241 996 "},"Ἇ":{"ha":972,"x_min":0,"x_max":0,"o":"m 35 0 l 398 1010 l 574 1010 l 938 0 l 776 0 l 684 267 l 289 267 l 196 0 m 639 396 l 490 827 l 482 827 l 333 396 m 360 1152 b 245 1030 360 1087 312 1030 b 91 1078 172 1030 150 1078 b 40 1019 62 1078 40 1052 l -28 1037 b 85 1163 -28 1102 18 1163 b 239 1114 145 1163 182 1114 b 291 1173 268 1114 291 1139 m 121 996 l 226 996 l 226 946 b 268 832 226 903 237 865 l 209 793 b 121 946 153 828 121 889 "},"Ᾰ":{"ha":972,"x_min":0,"x_max":0,"o":"m 35 0 l 398 1010 l 574 1010 l 938 0 l 776 0 l 684 267 l 289 267 l 196 0 m 639 396 l 490 827 l 482 827 l 333 396 m 704 1267 b 486 1079 704 1156 620 1079 b 269 1267 354 1079 269 1156 l 390 1267 b 486 1173 390 1217 416 1173 b 583 1267 555 1173 583 1217 "},"Ᾱ":{"ha":972,"x_min":0,"x_max":0,"o":"m 35 0 l 398 1010 l 574 1010 l 938 0 l 776 0 l 684 267 l 289 267 l 196 0 m 639 396 l 490 827 l 482 827 l 333 396 m 720 1159 l 252 1159 l 252 1263 l 720 1263 "},"Ὰ":{"ha":972,"x_min":0,"x_max":0,"o":"m 35 0 l 398 1010 l 574 1010 l 938 0 l 776 0 l 684 267 l 289 267 l 196 0 m 639 396 l 490 827 l 482 827 l 333 396 m 218 779 l 60 996 l 60 1010 l 204 1010 l 281 794 l 281 779 "},"Ⱥ":{"ha":972,"x_min":0,"x_max":0,"o":"m 667 753 l 938 0 l 776 0 l 684 267 l 499 267 l 363 -128 l 245 -128 l 381 267 l 289 267 l 196 0 l 35 0 l 398 1010 l 574 1010 l 607 920 l 682 1138 l 799 1138 m 532 705 l 490 827 l 482 827 l 333 396 l 426 396 m 544 396 l 639 396 l 591 534 "},"Ά":{"ha":972,"x_min":0,"x_max":0,"o":"m 35 0 l 398 1010 l 574 1010 l 938 0 l 776 0 l 684 267 l 289 267 l 196 0 m 639 396 l 490 827 l 482 827 l 333 396 m 143 867 l 218 1083 l 377 1083 l 377 1069 l 219 852 l 143 852 "},"А":{"ha":972,"x_min":0,"x_max":0,"o":"m 35 0 l 398 1010 l 574 1010 l 938 0 l 776 0 l 684 267 l 289 267 l 196 0 m 639 396 l 490 827 l 482 827 l 333 396 "},"Ӑ":{"ha":972,"x_min":0,"x_max":0,"o":"m 35 0 l 398 1010 l 574 1010 l 938 0 l 776 0 l 684 267 l 289 267 l 196 0 m 639 396 l 490 827 l 482 827 l 333 396 m 704 1267 b 486 1079 704 1156 620 1079 b 269 1267 354 1079 269 1156 l 390 1267 b 486 1173 390 1217 416 1173 b 583 1267 555 1173 583 1217 "},"Ӓ":{"ha":972,"x_min":0,"x_max":0,"o":"m 35 0 l 398 1010 l 574 1010 l 938 0 l 776 0 l 684 267 l 289 267 l 196 0 m 639 396 l 490 827 l 482 827 l 333 396 m 341 1129 b 254 1215 295 1129 254 1169 b 341 1301 254 1264 295 1301 b 428 1215 391 1301 428 1264 b 341 1129 428 1169 391 1129 m 631 1129 b 544 1215 585 1129 544 1169 b 631 1301 544 1264 585 1301 b 718 1215 681 1301 718 1264 b 631 1129 718 1169 681 1129 "},"ᾈ":{"ha":972,"x_min":0,"x_max":0,"o":"m 35 0 l 398 1010 l 574 1010 l 938 0 l 776 0 l 684 267 l 289 267 l 196 0 m 639 396 l 490 827 l 482 827 l 333 396 m 550 -335 b 432 -209 482 -335 432 -298 l 432 -61 l 542 -61 l 542 -207 b 576 -256 542 -243 554 -256 b 606 -254 587 -256 600 -254 l 606 -327 b 550 -335 594 -331 577 -335 m 288 952 b 167 765 288 871 243 805 l 112 814 b 167 956 151 851 167 895 l 167 1010 l 288 1010 "},"ᾉ":{"ha":972,"x_min":0,"x_max":0,"o":"m 35 0 l 398 1010 l 574 1010 l 938 0 l 776 0 l 684 267 l 289 267 l 196 0 m 639 396 l 490 827 l 482 827 l 333 396 m 550 -335 b 432 -209 482 -335 432 -298 l 432 -61 l 542 -61 l 542 -207 b 576 -256 542 -243 554 -256 b 606 -254 587 -256 600 -254 l 606 -327 b 550 -335 594 -331 577 -335 m 127 1010 l 248 1010 l 248 956 b 303 814 249 897 264 851 l 248 765 b 127 952 174 805 127 871 "},"ᾊ":{"ha":972,"x_min":0,"x_max":0,"o":"m 35 0 l 398 1010 l 574 1010 l 938 0 l 776 0 l 684 267 l 289 267 l 196 0 m 639 396 l 490 827 l 482 827 l 333 396 m 550 -335 b 432 -209 482 -335 432 -298 l 432 -61 l 542 -61 l 542 -207 b 576 -256 542 -243 554 -256 b 606 -254 587 -256 600 -254 l 606 -327 b 550 -335 594 -331 577 -335 m 29 955 b -97 765 29 876 -17 809 l -151 807 b -95 959 -115 848 -95 894 l -95 1010 l 29 1010 m 282 781 l 218 781 l 60 996 l 60 1010 l 204 1010 l 282 791 "},"ᾋ":{"ha":972,"x_min":0,"x_max":0,"o":"m 35 0 l 398 1010 l 574 1010 l 938 0 l 776 0 l 684 267 l 289 267 l 196 0 m 639 396 l 490 827 l 482 827 l 333 396 m 550 -335 b 432 -209 482 -335 432 -298 l 432 -61 l 542 -61 l 542 -207 b 576 -256 542 -243 554 -256 b 606 -254 587 -256 600 -254 l 606 -327 b 550 -335 594 -331 577 -335 m -104 1010 l 18 1010 l 18 956 b 73 814 18 897 33 851 l 18 765 b -104 952 -58 805 -104 871 m 288 781 l 224 781 l 67 996 l 67 1010 l 212 1010 l 288 793 "},"ᾌ":{"ha":972,"x_min":0,"x_max":0,"o":"m 35 0 l 398 1010 l 574 1010 l 938 0 l 776 0 l 684 267 l 289 267 l 196 0 m 639 396 l 490 827 l 482 827 l 333 396 m 550 -335 b 432 -209 482 -335 432 -298 l 432 -61 l 542 -61 l 542 -207 b 576 -256 542 -243 554 -256 b 606 -254 587 -256 600 -254 l 606 -327 b 550 -335 594 -331 577 -335 m 77 952 b -45 765 77 871 30 805 l -100 814 b -45 956 -62 851 -45 897 l -45 1010 l 77 1010 m 90 793 l 168 1010 l 312 1010 l 312 996 l 154 781 l 90 781 "},"ᾍ":{"ha":972,"x_min":0,"x_max":0,"o":"m 35 0 l 398 1010 l 574 1010 l 938 0 l 776 0 l 684 267 l 289 267 l 196 0 m 639 396 l 490 827 l 482 827 l 333 396 m 550 -335 b 432 -209 482 -335 432 -298 l 432 -61 l 542 -61 l 542 -207 b 576 -256 542 -243 554 -256 b 606 -254 587 -256 600 -254 l 606 -327 b 550 -335 594 -331 577 -335 m -122 1010 l -1 1010 l -1 956 b 53 814 -1 895 16 851 l -1 765 b -122 952 -75 804 -122 870 m 83 793 l 159 1010 l 304 1010 l 304 996 l 146 781 l 83 781 "},"ᾎ":{"ha":972,"x_min":0,"x_max":0,"o":"m 35 0 l 398 1010 l 574 1010 l 938 0 l 776 0 l 684 267 l 289 267 l 196 0 m 639 396 l 490 827 l 482 827 l 333 396 m 370 1152 b 255 1030 370 1087 323 1030 b 101 1078 182 1030 161 1078 b 50 1019 73 1078 50 1052 l -18 1037 b 95 1163 -18 1102 28 1163 b 250 1114 156 1163 192 1114 b 302 1173 278 1114 302 1139 m 550 -335 b 432 -209 482 -335 432 -298 l 432 -61 l 542 -61 l 542 -207 b 576 -256 542 -243 554 -256 b 606 -254 587 -256 600 -254 l 606 -327 b 550 -335 594 -331 577 -335 m 241 946 b 152 793 241 889 209 828 l 94 832 b 136 946 126 865 136 903 l 136 996 l 241 996 "},"ᾏ":{"ha":972,"x_min":0,"x_max":0,"o":"m 35 0 l 398 1010 l 574 1010 l 938 0 l 776 0 l 684 267 l 289 267 l 196 0 m 639 396 l 490 827 l 482 827 l 333 396 m 360 1152 b 245 1030 360 1087 312 1030 b 91 1078 172 1030 150 1078 b 40 1019 62 1078 40 1052 l -28 1037 b 85 1163 -28 1102 18 1163 b 239 1114 145 1163 182 1114 b 291 1173 268 1114 291 1139 m 550 -335 b 432 -209 482 -335 432 -298 l 432 -61 l 542 -61 l 542 -207 b 576 -256 542 -243 554 -256 b 606 -254 587 -256 600 -254 l 606 -327 b 550 -335 594 -331 577 -335 m 121 996 l 226 996 l 226 946 b 268 832 226 903 237 865 l 209 793 b 121 946 153 828 121 889 "},"ᾼ":{"ha":972,"x_min":0,"x_max":0,"o":"m 35 0 l 398 1010 l 574 1010 l 938 0 l 776 0 l 684 267 l 289 267 l 196 0 m 639 396 l 490 827 l 482 827 l 333 396 m 550 -335 b 432 -209 482 -335 432 -298 l 432 -61 l 542 -61 l 542 -207 b 576 -256 542 -243 554 -256 b 606 -254 587 -256 600 -254 l 606 -327 b 550 -335 594 -331 577 -335 "},"Λ":{"ha":972,"x_min":0,"x_max":0,"o":"m 35 0 l 398 1010 l 574 1010 l 938 0 l 776 0 l 490 827 l 482 827 l 196 0 "},"Æ":{"ha":1394,"x_min":0,"x_max":0,"o":"m 505 1010 l 1301 1010 l 1301 879 l 820 879 l 820 571 l 1268 571 l 1268 440 l 820 440 l 820 131 l 1307 131 l 1307 0 l 667 0 l 667 267 l 323 267 l 202 0 l 35 0 m 667 396 l 667 868 l 595 868 l 381 396 "},"Ǣ":{"ha":1394,"x_min":0,"x_max":0,"o":"m 505 1010 l 1301 1010 l 1301 879 l 820 879 l 820 571 l 1268 571 l 1268 440 l 820 440 l 820 131 l 1307 131 l 1307 0 l 667 0 l 667 267 l 323 267 l 202 0 l 35 0 m 667 396 l 667 868 l 595 868 l 381 396 m 1136 1159 l 668 1159 l 668 1263 l 1136 1263 "},"Ǽ":{"ha":1394,"x_min":0,"x_max":0,"o":"m 505 1010 l 1301 1010 l 1301 879 l 820 879 l 820 571 l 1268 571 l 1268 440 l 820 440 l 820 131 l 1307 131 l 1307 0 l 667 0 l 667 267 l 323 267 l 202 0 l 35 0 m 667 396 l 667 868 l 595 868 l 381 396 m 956 1339 l 1112 1339 l 959 1111 l 841 1111 "},"Ӕ":{"ha":1394,"x_min":0,"x_max":0,"o":"m 505 1010 l 1301 1010 l 1301 879 l 820 879 l 820 571 l 1268 571 l 1268 440 l 820 440 l 820 131 l 1307 131 l 1307 0 l 667 0 l 667 267 l 323 267 l 202 0 l 35 0 m 667 396 l 667 868 l 595 868 l 381 396 "},"B":{"ha":908,"x_min":0,"x_max":0,"o":"m 111 1010 l 481 1010 b 799 745 696 1010 799 894 b 629 532 799 618 722 555 l 629 522 b 839 272 729 516 839 428 b 498 0 839 117 733 0 l 111 0 m 483 131 b 688 279 630 131 688 194 b 489 454 688 375 611 454 l 263 454 l 263 131 m 468 573 b 650 733 570 573 650 635 b 472 880 650 817 592 880 l 263 880 l 263 573 "},"Ḃ":{"ha":908,"x_min":0,"x_max":0,"o":"m 111 1010 l 481 1010 b 799 745 696 1010 799 894 b 629 532 799 618 722 555 l 629 522 b 839 272 729 516 839 428 b 498 0 839 117 733 0 l 111 0 m 483 131 b 688 279 630 131 688 194 b 489 454 688 375 611 454 l 263 454 l 263 131 m 468 573 b 650 733 570 573 650 635 b 472 880 650 817 592 880 l 263 880 l 263 573 m 436 1127 b 343 1215 385 1127 343 1166 b 436 1303 343 1263 385 1303 b 529 1215 487 1303 529 1263 b 436 1127 529 1166 487 1127 "},"Ḅ":{"ha":908,"x_min":0,"x_max":0,"o":"m 111 1010 l 481 1010 b 799 745 696 1010 799 894 b 629 532 799 618 722 555 l 629 522 b 839 272 729 516 839 428 b 498 0 839 117 733 0 l 111 0 m 483 131 b 688 279 630 131 688 194 b 489 454 688 375 611 454 l 263 454 l 263 131 m 468 573 b 650 733 570 573 650 635 b 472 880 650 817 592 880 l 263 880 l 263 573 m 440 -261 b 347 -174 389 -261 347 -222 b 440 -85 347 -125 389 -85 b 534 -174 491 -85 534 -125 b 440 -261 534 -222 491 -261 "},"Ḇ":{"ha":908,"x_min":0,"x_max":0,"o":"m 111 1010 l 481 1010 b 799 745 696 1010 799 894 b 629 532 799 618 722 555 l 629 522 b 839 272 729 516 839 428 b 498 0 839 117 733 0 l 111 0 m 483 131 b 688 279 630 131 688 194 b 489 454 688 375 611 454 l 263 454 l 263 131 m 468 573 b 650 733 570 573 650 635 b 472 880 650 817 592 880 l 263 880 l 263 573 m 674 -228 l 206 -228 l 206 -125 l 674 -125 "},"Ƀ":{"ha":989,"x_min":0,"x_max":0,"o":"m 191 241 l 39 241 l 39 343 l 191 343 l 191 1010 l 561 1010 b 880 745 776 1010 880 894 b 710 532 880 618 802 555 l 710 522 b 919 272 810 516 919 428 b 579 0 919 117 813 0 l 191 0 m 564 131 b 768 279 710 131 768 194 b 569 454 768 375 691 454 l 344 454 l 344 343 l 492 343 l 492 241 l 344 241 l 344 131 m 548 573 b 730 733 651 573 730 635 b 552 880 730 817 673 880 l 344 880 l 344 573 "},"Ɓ":{"ha":1144,"x_min":0,"x_max":0,"o":"m 347 879 l 293 879 b 201 756 213 879 201 818 l 201 711 l 61 711 l 61 789 b 291 1010 61 916 145 1010 l 717 1010 b 1035 745 932 1010 1035 894 b 865 532 1035 618 958 555 l 865 522 b 1075 272 965 516 1075 428 b 734 0 1075 117 969 0 l 347 0 m 719 131 b 923 279 866 131 923 194 b 725 454 923 375 847 454 l 499 454 l 499 131 m 703 573 b 886 733 806 573 886 635 b 707 880 886 817 828 880 l 499 880 l 499 573 "},"В":{"ha":908,"x_min":0,"x_max":0,"o":"m 111 1010 l 481 1010 b 799 745 696 1010 799 894 b 629 532 799 618 722 555 l 629 522 b 839 272 729 516 839 428 b 498 0 839 117 733 0 l 111 0 m 483 131 b 688 279 630 131 688 194 b 489 454 688 375 611 454 l 263 454 l 263 131 m 468 573 b 650 733 570 573 650 635 b 472 880 650 817 592 880 l 263 880 l 263 573 "},"Β":{"ha":908,"x_min":0,"x_max":0,"o":"m 111 1010 l 481 1010 b 799 745 696 1010 799 894 b 629 532 799 618 722 555 l 629 522 b 839 272 729 516 839 428 b 498 0 839 117 733 0 l 111 0 m 483 131 b 688 279 630 131 688 194 b 489 454 688 375 611 454 l 263 454 l 263 131 m 468 573 b 650 733 570 573 650 635 b 472 880 650 817 592 880 l 263 880 l 263 573 "},"C":{"ha":1021,"x_min":0,"x_max":0,"o":"m 796 682 b 534 885 771 812 663 885 b 230 505 360 885 230 750 b 534 125 230 258 361 125 b 796 326 661 125 770 196 l 950 325 b 533 -14 917 125 755 -14 b 78 505 270 -14 78 182 b 533 1024 78 828 271 1024 b 950 682 746 1024 915 898 "},"Ƈ":{"ha":1102,"x_min":0,"x_max":0,"o":"m 796 682 b 534 885 771 812 663 885 b 230 505 360 885 230 750 b 534 125 230 258 361 125 b 796 326 661 125 770 196 l 950 325 b 533 -14 917 125 755 -14 b 78 505 270 -14 78 182 b 533 1024 78 828 271 1024 b 830 915 650 1024 754 986 b 1036 1029 868 990 946 1029 b 1114 1023 1063 1029 1090 1029 l 1114 901 b 1069 905 1102 903 1084 905 b 950 794 1006 905 950 879 l 950 682 "},"Ç":{"ha":1021,"x_min":0,"x_max":0,"o":"m 796 682 b 534 885 771 812 663 885 b 230 505 360 885 230 750 b 534 125 230 258 361 125 b 796 326 661 125 770 196 l 950 325 b 576 -12 919 139 775 4 l 570 -42 b 677 -160 626 -51 677 -85 b 452 -309 677 -249 598 -309 l 449 -227 b 564 -164 517 -227 564 -208 b 461 -99 565 -120 533 -106 l 479 -11 b 78 505 245 14 78 205 b 533 1024 78 828 271 1024 b 950 682 746 1024 915 898 "},"Ć":{"ha":1021,"x_min":0,"x_max":0,"o":"m 796 682 b 534 885 771 812 663 885 b 230 505 360 885 230 750 b 534 125 230 258 361 125 b 796 326 661 125 770 196 l 950 325 b 533 -14 917 125 755 -14 b 78 505 270 -14 78 182 b 533 1024 78 828 271 1024 b 950 682 746 1024 915 898 m 587 1339 l 743 1339 l 590 1111 l 472 1111 "},"Ĉ":{"ha":1021,"x_min":0,"x_max":0,"o":"m 796 682 b 534 885 771 812 663 885 b 230 505 360 885 230 750 b 534 125 230 258 361 125 b 796 326 661 125 770 196 l 950 325 b 533 -14 917 125 755 -14 b 78 505 270 -14 78 182 b 533 1024 78 828 271 1024 b 950 682 746 1024 915 898 m 298 1101 l 298 1108 l 471 1317 l 594 1317 l 767 1108 l 767 1101 l 634 1101 l 533 1233 l 431 1101 "},"Ċ":{"ha":1021,"x_min":0,"x_max":0,"o":"m 796 682 b 534 885 771 812 663 885 b 230 505 360 885 230 750 b 534 125 230 258 361 125 b 796 326 661 125 770 196 l 950 325 b 533 -14 917 125 755 -14 b 78 505 270 -14 78 182 b 533 1024 78 828 271 1024 b 950 682 746 1024 915 898 m 533 1127 b 439 1215 481 1127 439 1166 b 533 1303 439 1263 481 1303 b 626 1215 583 1303 626 1263 b 533 1127 626 1166 583 1127 "},"Č":{"ha":1021,"x_min":0,"x_max":0,"o":"m 796 682 b 534 885 771 812 663 885 b 230 505 360 885 230 750 b 534 125 230 258 361 125 b 796 326 661 125 770 196 l 950 325 b 533 -14 917 125 755 -14 b 78 505 270 -14 78 182 b 533 1024 78 828 271 1024 b 950 682 746 1024 915 898 m 533 1185 l 634 1317 l 767 1317 l 767 1310 l 594 1101 l 471 1101 l 298 1310 l 298 1317 l 431 1317 "},"Ḉ":{"ha":1021,"x_min":0,"x_max":0,"o":"m 796 682 b 534 885 771 812 663 885 b 230 505 360 885 230 750 b 534 125 230 258 361 125 b 796 326 661 125 770 196 l 950 325 b 576 -12 919 139 775 4 l 570 -42 b 677 -160 626 -51 677 -85 b 452 -309 677 -249 598 -309 l 449 -227 b 564 -164 517 -227 564 -208 b 461 -99 565 -120 533 -106 l 479 -11 b 78 505 245 14 78 205 b 533 1024 78 828 271 1024 b 950 682 746 1024 915 898 m 587 1339 l 743 1339 l 590 1111 l 472 1111 "},"Ȼ":{"ha":1021,"x_min":0,"x_max":0,"o":"m 299 49 b 78 505 164 131 78 290 b 533 1024 78 828 271 1024 b 631 1015 567 1024 600 1020 l 674 1138 l 792 1138 l 737 979 b 950 682 848 924 928 822 l 796 682 b 690 842 782 753 743 807 l 447 137 b 534 125 474 129 504 125 b 796 326 661 125 770 196 l 950 325 b 533 -14 917 125 755 -14 b 401 4 487 -14 443 -8 l 356 -128 l 238 -128 m 585 881 b 534 885 569 883 552 885 b 230 505 360 885 230 750 b 348 191 230 360 275 254 "},"Ɔ":{"ha":1021,"x_min":0,"x_max":0,"o":"m 72 682 b 489 1024 106 898 275 1024 b 943 505 750 1024 943 828 b 489 -14 943 182 751 -14 b 72 325 267 -14 105 125 l 225 326 b 488 125 252 196 360 125 b 792 505 661 125 792 258 b 487 885 792 750 661 885 b 225 682 359 885 251 812 l 72 682 "},"Ϲ":{"ha":1021,"x_min":0,"x_max":0,"o":"m 796 682 b 534 885 771 812 663 885 b 230 505 360 885 230 750 b 534 125 230 258 361 125 b 796 326 661 125 770 196 l 950 325 b 533 -14 917 125 755 -14 b 78 505 270 -14 78 182 b 533 1024 78 828 271 1024 b 950 682 746 1024 915 898 "},"D":{"ha":1002,"x_min":0,"x_max":0,"o":"m 111 0 l 111 1010 l 448 1010 b 924 507 746 1010 924 821 b 438 0 924 191 746 0 m 430 133 b 774 507 660 133 774 267 b 439 877 774 745 660 877 l 263 877 l 263 133 "},"Ɗ":{"ha":1245,"x_min":0,"x_max":0,"o":"m 61 789 b 291 1010 61 916 145 1010 l 691 1010 b 1166 507 988 1010 1166 821 b 681 0 1166 191 988 0 l 354 0 l 354 877 l 293 877 b 201 756 213 877 201 818 l 201 711 l 61 711 m 672 133 b 1017 507 903 133 1017 267 b 682 877 1017 745 903 877 l 506 877 l 506 133 "},"Ď":{"ha":1002,"x_min":0,"x_max":0,"o":"m 111 0 l 111 1010 l 448 1010 b 924 507 746 1010 924 821 b 438 0 924 191 746 0 m 430 133 b 774 507 660 133 774 267 b 439 877 774 745 660 877 l 263 877 l 263 133 m 415 1185 l 516 1317 l 650 1317 l 650 1310 l 476 1101 l 354 1101 l 181 1310 l 181 1317 l 314 1317 "},"Ḋ":{"ha":1002,"x_min":0,"x_max":0,"o":"m 111 0 l 111 1010 l 448 1010 b 924 507 746 1010 924 821 b 438 0 924 191 746 0 m 430 133 b 774 507 660 133 774 267 b 439 877 774 745 660 877 l 263 877 l 263 133 m 415 1127 b 322 1215 364 1127 322 1166 b 415 1303 322 1263 364 1303 b 509 1215 466 1303 509 1263 b 415 1127 509 1166 466 1127 "},"Ḍ":{"ha":1002,"x_min":0,"x_max":0,"o":"m 111 0 l 111 1010 l 448 1010 b 924 507 746 1010 924 821 b 438 0 924 191 746 0 m 430 133 b 774 507 660 133 774 267 b 439 877 774 745 660 877 l 263 877 l 263 133 m 429 -261 b 336 -174 378 -261 336 -222 b 429 -85 336 -125 378 -85 b 522 -174 480 -85 522 -125 b 429 -261 522 -222 480 -261 "},"Ḏ":{"ha":1002,"x_min":0,"x_max":0,"o":"m 111 0 l 111 1010 l 448 1010 b 924 507 746 1010 924 821 b 438 0 924 191 746 0 m 430 133 b 774 507 660 133 774 267 b 439 877 774 745 660 877 l 263 877 l 263 133 m 663 -228 l 195 -228 l 195 -125 l 663 -125 "},"Ḑ":{"ha":1002,"x_min":0,"x_max":0,"o":"m 111 0 l 111 1010 l 448 1010 b 924 507 746 1010 924 821 b 438 0 924 191 746 0 m 430 133 b 774 507 660 133 774 267 b 439 877 774 745 660 877 l 263 877 l 263 133 m 357 -80 l 502 -80 l 409 -331 l 300 -331 "},"Ḓ":{"ha":1002,"x_min":0,"x_max":0,"o":"m 111 0 l 111 1010 l 448 1010 b 924 507 746 1010 924 821 b 438 0 924 191 746 0 m 430 133 b 774 507 660 133 774 267 b 439 877 774 745 660 877 l 263 877 l 263 133 m 195 -280 l 195 -272 l 368 -63 l 491 -63 l 664 -272 l 664 -280 l 531 -280 l 430 -147 l 328 -280 "},"Ɖ":{"ha":1002,"x_min":0,"x_max":0,"o":"m 111 0 l 111 473 l -40 473 l -40 576 l 111 576 l 111 1010 l 448 1010 b 924 507 746 1010 924 821 b 438 0 924 191 746 0 m 430 133 b 774 507 660 133 774 267 b 439 877 774 745 660 877 l 263 877 l 263 576 l 413 576 l 413 473 l 263 473 l 263 133 "},"ǲ":{"ha":1768,"x_min":0,"x_max":0,"o":"m 111 0 l 111 1010 l 448 1010 b 924 507 746 1010 924 821 b 438 0 924 191 746 0 m 430 133 b 774 507 660 133 774 267 b 439 877 774 745 660 877 l 263 877 l 263 133 m 1086 101 l 1496 622 l 1496 629 l 1099 629 l 1099 758 l 1680 758 l 1680 650 l 1285 135 l 1285 128 l 1694 128 l 1694 0 l 1086 0 "},"ǅ":{"ha":1768,"x_min":0,"x_max":0,"o":"m 111 0 l 111 1010 l 448 1010 b 924 507 746 1010 924 821 b 438 0 924 191 746 0 m 430 133 b 774 507 660 133 774 267 b 439 877 774 745 660 877 l 263 877 l 263 133 m 1086 101 l 1496 622 l 1496 629 l 1099 629 l 1099 758 l 1680 758 l 1680 650 l 1285 135 l 1285 128 l 1694 128 l 1694 0 l 1086 0 m 1384 933 l 1486 1065 l 1619 1065 l 1619 1057 l 1446 848 l 1323 848 l 1150 1057 l 1150 1065 l 1283 1065 "},"E":{"ha":837,"x_min":0,"x_max":0,"o":"m 111 1010 l 744 1010 l 744 879 l 263 879 l 263 571 l 711 571 l 711 440 l 263 440 l 263 131 l 750 131 l 750 0 l 111 0 "},"È":{"ha":837,"x_min":0,"x_max":0,"o":"m 111 1010 l 744 1010 l 744 879 l 263 879 l 263 571 l 711 571 l 711 440 l 263 440 l 263 131 l 750 131 l 750 0 l 111 0 m 218 1339 l 373 1339 l 488 1111 l 370 1111 "},"É":{"ha":837,"x_min":0,"x_max":0,"o":"m 111 1010 l 744 1010 l 744 879 l 263 879 l 263 571 l 711 571 l 711 440 l 263 440 l 263 131 l 750 131 l 750 0 l 111 0 m 482 1339 l 637 1339 l 484 1111 l 366 1111 "},"Ê":{"ha":837,"x_min":0,"x_max":0,"o":"m 111 1010 l 744 1010 l 744 879 l 263 879 l 263 571 l 711 571 l 711 440 l 263 440 l 263 131 l 750 131 l 750 0 l 111 0 m 193 1101 l 193 1108 l 366 1317 l 489 1317 l 662 1108 l 662 1101 l 529 1101 l 428 1233 l 326 1101 "},"Ë":{"ha":837,"x_min":0,"x_max":0,"o":"m 111 1010 l 744 1010 l 744 879 l 263 879 l 263 571 l 711 571 l 711 440 l 263 440 l 263 131 l 750 131 l 750 0 l 111 0 m 283 1129 b 195 1215 236 1129 195 1169 b 283 1301 195 1264 236 1301 b 369 1215 332 1301 369 1264 b 283 1129 369 1169 332 1129 m 573 1129 b 485 1215 526 1129 485 1169 b 573 1301 485 1264 526 1301 b 659 1215 622 1301 659 1264 b 573 1129 659 1169 622 1129 "},"Ē":{"ha":837,"x_min":0,"x_max":0,"o":"m 111 1010 l 744 1010 l 744 879 l 263 879 l 263 571 l 711 571 l 711 440 l 263 440 l 263 131 l 750 131 l 750 0 l 111 0 m 661 1159 l 193 1159 l 193 1263 l 661 1263 "},"Ĕ":{"ha":837,"x_min":0,"x_max":0,"o":"m 111 1010 l 744 1010 l 744 879 l 263 879 l 263 571 l 711 571 l 711 440 l 263 440 l 263 131 l 750 131 l 750 0 l 111 0 m 646 1267 b 428 1079 646 1156 561 1079 b 211 1267 295 1079 211 1156 l 331 1267 b 428 1173 331 1217 358 1173 b 524 1267 497 1173 524 1217 "},"Ė":{"ha":837,"x_min":0,"x_max":0,"o":"m 111 1010 l 744 1010 l 744 879 l 263 879 l 263 571 l 711 571 l 711 440 l 263 440 l 263 131 l 750 131 l 750 0 l 111 0 m 428 1127 b 334 1215 376 1127 334 1166 b 428 1303 334 1263 376 1303 b 521 1215 478 1303 521 1263 b 428 1127 521 1166 478 1127 "},"Ę":{"ha":837,"x_min":0,"x_max":0,"o":"m 111 1010 l 744 1010 l 744 879 l 263 879 l 263 571 l 711 571 l 711 440 l 263 440 l 263 131 l 750 131 l 750 0 b 639 -136 690 -38 639 -80 b 689 -184 639 -166 652 -184 b 751 -168 716 -184 737 -175 l 763 -262 b 656 -291 741 -276 704 -291 b 508 -161 573 -291 513 -246 b 585 0 504 -106 527 -48 l 111 0 "},"Ě":{"ha":837,"x_min":0,"x_max":0,"o":"m 111 1010 l 744 1010 l 744 879 l 263 879 l 263 571 l 711 571 l 711 440 l 263 440 l 263 131 l 750 131 l 750 0 l 111 0 m 428 1185 l 529 1317 l 662 1317 l 662 1310 l 489 1101 l 366 1101 l 193 1310 l 193 1317 l 326 1317 "},"Ȅ":{"ha":837,"x_min":0,"x_max":0,"o":"m 111 1010 l 744 1010 l 744 879 l 263 879 l 263 571 l 711 571 l 711 440 l 263 440 l 263 131 l 750 131 l 750 0 l 111 0 m 387 1294 l 486 1339 l 589 1155 l 518 1111 m 132 1294 l 218 1339 l 361 1155 l 298 1111 "},"Ȇ":{"ha":837,"x_min":0,"x_max":0,"o":"m 111 1010 l 744 1010 l 744 879 l 263 879 l 263 571 l 711 571 l 711 440 l 263 440 l 263 131 l 750 131 l 750 0 l 111 0 m 209 1135 b 427 1325 209 1245 292 1325 b 644 1135 561 1325 644 1245 l 523 1135 b 427 1230 522 1186 495 1230 b 330 1135 356 1230 329 1184 l 209 1135 "},"Ȩ":{"ha":837,"x_min":0,"x_max":0,"o":"m 111 1010 l 744 1010 l 744 879 l 263 879 l 263 571 l 711 571 l 711 440 l 263 440 l 263 131 l 750 131 l 750 0 l 467 0 l 460 -36 b 567 -154 516 -45 567 -80 b 342 -304 567 -244 488 -304 l 339 -221 b 454 -159 407 -221 454 -203 b 351 -94 455 -115 423 -101 l 370 0 l 111 0 "},"Ḕ":{"ha":837,"x_min":0,"x_max":0,"o":"m 111 1010 l 744 1010 l 744 879 l 263 879 l 263 571 l 711 571 l 711 440 l 263 440 l 263 131 l 750 131 l 750 0 l 111 0 m 661 1133 l 193 1133 l 193 1236 l 661 1236 m 202 1467 l 359 1467 l 503 1309 l 370 1309 "},"Ḗ":{"ha":837,"x_min":0,"x_max":0,"o":"m 111 1010 l 744 1010 l 744 879 l 263 879 l 263 571 l 711 571 l 711 440 l 263 440 l 263 131 l 750 131 l 750 0 l 111 0 m 661 1133 l 193 1133 l 193 1236 l 661 1236 m 496 1467 l 653 1467 l 485 1309 l 352 1309 "},"Ḙ":{"ha":837,"x_min":0,"x_max":0,"o":"m 111 1010 l 744 1010 l 744 879 l 263 879 l 263 571 l 711 571 l 711 440 l 263 440 l 263 131 l 750 131 l 750 0 l 111 0 m 185 -280 l 185 -272 l 358 -63 l 481 -63 l 654 -272 l 654 -280 l 521 -280 l 420 -147 l 318 -280 "},"Ḛ":{"ha":837,"x_min":0,"x_max":0,"o":"m 111 1010 l 744 1010 l 744 879 l 263 879 l 263 571 l 711 571 l 711 440 l 263 440 l 263 131 l 750 131 l 750 0 l 111 0 m 207 -254 b 361 -74 207 -145 274 -74 b 541 -141 441 -74 474 -141 b 605 -66 579 -141 605 -109 l 702 -72 b 549 -249 702 -182 635 -249 b 369 -182 456 -249 439 -182 b 306 -257 332 -182 306 -214 "},"Ḝ":{"ha":837,"x_min":0,"x_max":0,"o":"m 111 1010 l 744 1010 l 744 879 l 263 879 l 263 571 l 711 571 l 711 440 l 263 440 l 263 131 l 750 131 l 750 0 l 467 0 l 460 -36 b 567 -154 516 -45 567 -80 b 342 -304 567 -244 488 -304 l 339 -221 b 454 -159 407 -221 454 -203 b 351 -94 455 -115 423 -101 l 370 0 l 111 0 m 646 1267 b 428 1079 646 1156 561 1079 b 211 1267 295 1079 211 1156 l 331 1267 b 428 1173 331 1217 358 1173 b 524 1267 497 1173 524 1217 "},"Ẹ":{"ha":837,"x_min":0,"x_max":0,"o":"m 111 1010 l 744 1010 l 744 879 l 263 879 l 263 571 l 711 571 l 711 440 l 263 440 l 263 131 l 750 131 l 750 0 l 111 0 m 419 -261 b 326 -174 368 -261 326 -222 b 419 -85 326 -125 368 -85 b 512 -174 470 -85 512 -125 b 419 -261 512 -222 470 -261 "},"Ẻ":{"ha":837,"x_min":0,"x_max":0,"o":"m 111 1010 l 744 1010 l 744 879 l 263 879 l 263 571 l 711 571 l 711 440 l 263 440 l 263 131 l 750 131 l 750 0 l 111 0 m 371 1115 l 367 1215 b 462 1263 436 1219 463 1234 b 359 1312 463 1299 417 1312 l 363 1394 b 590 1263 512 1394 591 1343 b 487 1162 591 1198 539 1170 l 487 1115 "},"Ẽ":{"ha":837,"x_min":0,"x_max":0,"o":"m 111 1010 l 744 1010 l 744 879 l 263 879 l 263 571 l 711 571 l 711 440 l 263 440 l 263 131 l 750 131 l 750 0 l 111 0 m 180 1105 b 333 1284 180 1214 246 1284 b 513 1218 413 1284 447 1218 b 578 1293 551 1218 577 1250 l 675 1287 b 521 1110 675 1177 608 1110 b 341 1177 428 1110 411 1177 b 279 1102 305 1177 279 1145 "},"Ế":{"ha":837,"x_min":0,"x_max":0,"o":"m 111 1010 l 744 1010 l 744 879 l 263 879 l 263 571 l 711 571 l 711 440 l 263 440 l 263 131 l 750 131 l 750 0 l 111 0 m 372 1272 l 482 1272 l 683 1101 l 538 1101 l 429 1199 l 318 1101 l 172 1101 m 733 1390 l 884 1390 l 738 1210 l 630 1210 "},"Ề":{"ha":837,"x_min":0,"x_max":0,"o":"m 111 1010 l 744 1010 l 744 879 l 263 879 l 263 571 l 711 571 l 711 440 l 263 440 l 263 131 l 750 131 l 750 0 l 111 0 m 683 1098 l 537 1098 l 428 1196 l 318 1098 l 173 1098 l 371 1270 l 481 1270 m 224 1208 l 118 1208 l -29 1389 l 122 1389 "},"Ể":{"ha":837,"x_min":0,"x_max":0,"o":"m 111 1010 l 744 1010 l 744 879 l 263 879 l 263 571 l 711 571 l 711 440 l 263 440 l 263 131 l 750 131 l 750 0 l 111 0 m 682 1090 l 552 1090 l 426 1201 l 301 1090 l 171 1090 l 361 1261 l 492 1261 m 618 1182 l 615 1267 b 696 1307 670 1271 696 1279 b 606 1348 696 1338 657 1348 l 610 1418 b 799 1308 733 1418 799 1376 b 710 1221 799 1251 755 1227 l 710 1182 "},"Ễ":{"ha":837,"x_min":0,"x_max":0,"o":"m 111 1010 l 744 1010 l 744 879 l 263 879 l 263 571 l 711 571 l 711 440 l 263 440 l 263 131 l 750 131 l 750 0 l 111 0 m 681 1080 l 550 1080 l 426 1177 l 301 1080 l 171 1080 l 375 1241 l 476 1241 m 604 1393 b 498 1287 604 1340 559 1287 b 358 1333 433 1287 410 1333 b 308 1284 332 1333 308 1308 l 249 1300 b 353 1408 249 1353 292 1408 b 493 1363 407 1408 443 1363 b 543 1413 518 1363 543 1388 "},"Ệ":{"ha":837,"x_min":0,"x_max":0,"o":"m 111 1010 l 744 1010 l 744 879 l 263 879 l 263 571 l 711 571 l 711 440 l 263 440 l 263 131 l 750 131 l 750 0 l 111 0 m 193 1101 l 193 1108 l 366 1317 l 489 1317 l 662 1108 l 662 1101 l 529 1101 l 428 1233 l 326 1101 m 419 -261 b 326 -174 368 -261 326 -222 b 419 -85 326 -125 368 -85 b 512 -174 470 -85 512 -125 b 419 -261 512 -222 470 -261 "},"Ɇ":{"ha":837,"x_min":0,"x_max":0,"o":"m 659 1010 l 744 1010 l 744 879 l 621 879 l 533 571 l 711 571 l 711 440 l 495 440 l 406 131 l 750 131 l 750 0 l 368 0 l 331 -128 l 219 -128 l 256 0 l 111 0 l 111 1010 l 547 1010 l 584 1138 l 696 1138 m 263 879 l 263 571 l 421 571 l 509 879 m 263 440 l 263 131 l 294 131 l 383 440 "},"Ǝ":{"ha":832,"x_min":0,"x_max":0,"o":"m 718 0 l 84 0 l 84 131 l 565 131 l 565 439 l 117 439 l 117 570 l 565 570 l 565 879 l 78 879 l 78 1010 l 718 1010 "},"Ε":{"ha":837,"x_min":0,"x_max":0,"o":"m 111 1010 l 744 1010 l 744 879 l 263 879 l 263 571 l 711 571 l 711 440 l 263 440 l 263 131 l 750 131 l 750 0 l 111 0 "},"Έ":{"ha":1003,"x_min":0,"x_max":0,"o":"m 276 1010 l 909 1010 l 909 879 l 429 879 l 429 571 l 876 571 l 876 440 l 429 440 l 429 131 l 915 131 l 915 0 l 276 0 m 95 1076 l 241 1076 l 150 844 l 55 844 "},"Ἐ":{"ha":1021,"x_min":0,"x_max":0,"o":"m 295 1010 l 929 1010 l 929 879 l 448 879 l 448 571 l 896 571 l 896 440 l 448 440 l 448 131 l 935 131 l 935 0 l 295 0 m 221 952 b 101 765 221 871 177 805 l 45 814 b 101 956 84 851 101 895 l 101 1010 l 221 1010 "},"Ἑ":{"ha":1016,"x_min":0,"x_max":0,"o":"m 290 1010 l 923 1010 l 923 879 l 442 879 l 442 571 l 890 571 l 890 440 l 442 440 l 442 131 l 929 131 l 929 0 l 290 0 m 54 1010 l 176 1010 l 176 956 b 230 814 176 897 191 851 l 175 765 b 54 952 101 805 54 871 "},"Ἒ":{"ha":1292,"x_min":0,"x_max":0,"o":"m 566 1010 l 1199 1010 l 1199 879 l 718 879 l 718 571 l 1166 571 l 1166 440 l 718 440 l 718 131 l 1205 131 l 1205 0 l 566 0 m 233 955 b 108 765 234 876 187 809 l 54 807 b 109 959 90 848 109 894 l 109 1010 l 233 1010 m 486 781 l 423 781 l 265 996 l 265 1010 l 409 1010 l 486 791 "},"Ἓ":{"ha":1244,"x_min":0,"x_max":0,"o":"m 518 1010 l 1152 1010 l 1152 879 l 671 879 l 671 571 l 1119 571 l 1119 440 l 671 440 l 671 131 l 1158 131 l 1158 0 l 518 0 m 53 1010 l 175 1010 l 175 956 b 230 814 175 897 189 851 l 175 765 b 53 952 99 805 53 871 m 445 781 l 381 781 l 223 996 l 223 1010 l 369 1010 l 445 793 "},"Ἔ":{"ha":1242,"x_min":0,"x_max":0,"o":"m 516 1010 l 1150 1010 l 1150 879 l 669 879 l 669 571 l 1117 571 l 1117 440 l 669 440 l 669 131 l 1156 131 l 1156 0 l 516 0 m 231 952 b 109 765 231 871 184 805 l 55 814 b 109 956 93 851 109 897 l 109 1010 l 231 1010 m 245 793 l 323 1010 l 466 1010 l 466 996 l 309 781 l 245 781 "},"Ἕ":{"ha":1265,"x_min":0,"x_max":0,"o":"m 538 1010 l 1171 1010 l 1171 879 l 690 879 l 690 571 l 1138 571 l 1138 440 l 690 440 l 690 131 l 1177 131 l 1177 0 l 538 0 m 54 1010 l 176 1010 l 176 956 b 230 814 176 895 193 851 l 175 765 b 54 952 102 804 54 870 m 260 793 l 335 1010 l 481 1010 l 481 996 l 323 781 l 260 781 "},"Ὲ":{"ha":1081,"x_min":0,"x_max":0,"o":"m 355 1010 l 988 1010 l 988 879 l 507 879 l 507 571 l 955 571 l 955 440 l 507 440 l 507 131 l 994 131 l 994 0 l 355 0 m 211 779 l 54 996 l 54 1010 l 197 1010 l 274 794 l 274 779 "},"Έ":{"ha":1050,"x_min":0,"x_max":0,"o":"m 323 1010 l 956 1010 l 956 879 l 475 879 l 475 571 l 923 571 l 923 440 l 475 440 l 475 131 l 962 131 l 962 0 l 323 0 m 105 867 l 181 1083 l 339 1083 l 339 1069 l 182 852 l 105 852 "},"Е":{"ha":837,"x_min":0,"x_max":0,"o":"m 111 1010 l 744 1010 l 744 879 l 263 879 l 263 571 l 711 571 l 711 440 l 263 440 l 263 131 l 750 131 l 750 0 l 111 0 "},"Ѐ":{"ha":837,"x_min":0,"x_max":0,"o":"m 111 1010 l 744 1010 l 744 879 l 263 879 l 263 571 l 711 571 l 711 440 l 263 440 l 263 131 l 750 131 l 750 0 l 111 0 m 218 1339 l 373 1339 l 488 1111 l 370 1111 "},"Ё":{"ha":837,"x_min":0,"x_max":0,"o":"m 111 1010 l 744 1010 l 744 879 l 263 879 l 263 571 l 711 571 l 711 440 l 263 440 l 263 131 l 750 131 l 750 0 l 111 0 m 283 1129 b 195 1215 236 1129 195 1169 b 283 1301 195 1264 236 1301 b 369 1215 332 1301 369 1264 b 283 1129 369 1169 332 1129 m 573 1129 b 485 1215 526 1129 485 1169 b 573 1301 485 1264 526 1301 b 659 1215 622 1301 659 1264 b 573 1129 659 1169 622 1129 "},"Ӗ":{"ha":837,"x_min":0,"x_max":0,"o":"m 111 1010 l 744 1010 l 744 879 l 263 879 l 263 571 l 711 571 l 711 440 l 263 440 l 263 131 l 750 131 l 750 0 l 111 0 m 646 1267 b 428 1079 646 1156 561 1079 b 211 1267 295 1079 211 1156 l 331 1267 b 428 1173 331 1217 358 1173 b 524 1267 497 1173 524 1217 "},"F":{"ha":814,"x_min":0,"x_max":0,"o":"m 111 1010 l 737 1010 l 737 879 l 263 879 l 263 571 l 692 571 l 692 440 l 263 440 l 263 0 l 111 0 "},"Ƒ":{"ha":824,"x_min":0,"x_max":0,"o":"m 121 1010 l 748 1010 l 748 879 l 274 879 l 274 571 l 703 571 l 703 440 l 274 440 l 274 -70 b 29 -284 274 -221 179 -284 b -25 -279 17 -284 4 -284 l -25 -158 b 14 -161 -14 -160 0 -161 b 121 -68 74 -161 121 -140 "},"Ḟ":{"ha":814,"x_min":0,"x_max":0,"o":"m 111 1010 l 737 1010 l 737 879 l 263 879 l 263 571 l 692 571 l 692 440 l 263 440 l 263 0 l 111 0 m 435 1127 b 342 1215 384 1127 342 1166 b 435 1303 342 1263 384 1303 b 528 1215 486 1303 528 1263 b 435 1127 528 1166 486 1127 "},"Ⅎ":{"ha":814,"x_min":0,"x_max":0,"o":"m 703 0 l 76 0 l 76 131 l 550 131 l 550 439 l 121 439 l 121 570 l 550 570 l 550 1010 l 703 1010 "},"G":{"ha":1040,"x_min":0,"x_max":0,"o":"m 795 691 b 532 885 757 811 666 885 b 230 506 361 885 230 750 b 538 125 230 260 360 125 b 810 391 699 125 807 228 l 561 391 l 561 517 l 958 517 l 958 402 b 538 -14 958 147 783 -14 b 78 505 264 -14 78 185 b 531 1024 78 827 269 1024 b 951 691 749 1024 917 888 l 795 691 "},"Ǥ":{"ha":1040,"x_min":0,"x_max":0,"o":"m 1019 223 l 924 223 b 538 -14 862 74 719 -14 b 78 505 264 -14 78 185 b 531 1024 78 827 269 1024 b 951 691 749 1024 917 888 l 795 691 b 532 885 757 811 666 885 b 230 506 361 885 230 750 b 538 125 230 260 360 125 b 757 223 633 125 709 161 l 561 223 l 561 314 l 800 314 b 810 391 806 338 810 363 l 561 391 l 561 517 l 958 517 l 958 402 b 950 314 958 371 955 342 l 1019 314 "},"Ɠ":{"ha":1102,"x_min":0,"x_max":0,"o":"m 794 691 l 794 692 b 532 885 756 811 665 885 b 230 506 361 885 230 750 b 538 125 230 260 360 125 b 810 391 699 125 807 228 l 561 391 l 561 517 l 958 517 l 958 402 b 538 -14 958 147 783 -14 b 78 505 264 -14 78 185 b 531 1024 78 827 269 1024 b 822 921 646 1024 747 986 b 1033 1040 859 998 934 1040 b 1111 1032 1060 1040 1088 1039 l 1111 910 b 1066 914 1098 912 1082 914 b 949 813 1001 914 949 893 l 949 699 b 951 691 950 696 950 693 "},"Ĝ":{"ha":1040,"x_min":0,"x_max":0,"o":"m 795 691 b 532 885 757 811 666 885 b 230 506 361 885 230 750 b 538 125 230 260 360 125 b 810 391 699 125 807 228 l 561 391 l 561 517 l 958 517 l 958 402 b 538 -14 958 147 783 -14 b 78 505 264 -14 78 185 b 531 1024 78 827 269 1024 b 951 691 749 1024 917 888 l 795 691 m 294 1101 l 294 1108 l 468 1317 l 590 1317 l 764 1108 l 764 1101 l 630 1101 l 529 1233 l 428 1101 "},"Ğ":{"ha":1040,"x_min":0,"x_max":0,"o":"m 795 691 b 532 885 757 811 666 885 b 230 506 361 885 230 750 b 538 125 230 260 360 125 b 810 391 699 125 807 228 l 561 391 l 561 517 l 958 517 l 958 402 b 538 -14 958 147 783 -14 b 78 505 264 -14 78 185 b 531 1024 78 827 269 1024 b 951 691 749 1024 917 888 l 795 691 m 747 1267 b 529 1079 747 1156 663 1079 b 312 1267 397 1079 312 1156 l 433 1267 b 529 1173 433 1217 459 1173 b 626 1267 598 1173 626 1217 "},"Ġ":{"ha":1040,"x_min":0,"x_max":0,"o":"m 795 691 b 532 885 757 811 666 885 b 230 506 361 885 230 750 b 538 125 230 260 360 125 b 810 391 699 125 807 228 l 561 391 l 561 517 l 958 517 l 958 402 b 538 -14 958 147 783 -14 b 78 505 264 -14 78 185 b 531 1024 78 827 269 1024 b 951 691 749 1024 917 888 l 795 691 m 529 1127 b 436 1215 478 1127 436 1166 b 529 1303 436 1263 478 1303 b 622 1215 580 1303 622 1263 b 529 1127 622 1166 580 1127 "},"Ģ":{"ha":1040,"x_min":0,"x_max":0,"o":"m 795 691 b 532 885 757 811 666 885 b 230 506 361 885 230 750 b 538 125 230 260 360 125 b 810 391 699 125 807 228 l 561 391 l 561 517 l 958 517 l 958 402 b 538 -14 958 147 783 -14 b 78 505 264 -14 78 185 b 531 1024 78 827 269 1024 b 951 691 749 1024 917 888 l 795 691 m 455 -79 l 600 -79 l 508 -330 l 398 -330 "},"Ǧ":{"ha":1040,"x_min":0,"x_max":0,"o":"m 795 691 b 532 885 757 811 666 885 b 230 506 361 885 230 750 b 538 125 230 260 360 125 b 810 391 699 125 807 228 l 561 391 l 561 517 l 958 517 l 958 402 b 538 -14 958 147 783 -14 b 78 505 264 -14 78 185 b 531 1024 78 827 269 1024 b 951 691 749 1024 917 888 l 795 691 m 529 1185 l 630 1317 l 764 1317 l 764 1310 l 590 1101 l 468 1101 l 294 1310 l 294 1317 l 428 1317 "},"Ǵ":{"ha":1040,"x_min":0,"x_max":0,"o":"m 795 691 b 532 885 757 811 666 885 b 230 506 361 885 230 750 b 538 125 230 260 360 125 b 810 391 699 125 807 228 l 561 391 l 561 517 l 958 517 l 958 402 b 538 -14 958 147 783 -14 b 78 505 264 -14 78 185 b 531 1024 78 827 269 1024 b 951 691 749 1024 917 888 l 795 691 m 583 1339 l 739 1339 l 586 1111 l 468 1111 "},"Ḡ":{"ha":1040,"x_min":0,"x_max":0,"o":"m 795 691 b 532 885 757 811 666 885 b 230 506 361 885 230 750 b 538 125 230 260 360 125 b 810 391 699 125 807 228 l 561 391 l 561 517 l 958 517 l 958 402 b 538 -14 958 147 783 -14 b 78 505 264 -14 78 185 b 531 1024 78 827 269 1024 b 951 691 749 1024 917 888 l 795 691 m 763 1159 l 295 1159 l 295 1263 l 763 1263 "},"":{"ha":1050,"x_min":0,"x_max":0,"o":"m 538 -14 b 78 505 264 -14 78 185 b 535 1024 78 827 274 1024 b 961 691 753 1024 927 888 l 804 691 b 536 885 769 811 670 885 b 230 506 365 885 230 751 b 538 125 230 260 360 125 b 818 391 703 125 813 235 l 561 391 l 561 517 l 968 517 l 968 0 l 850 0 l 836 121 l 832 121 b 538 -14 758 35 668 -14 "},"":{"ha":1050,"x_min":0,"x_max":0,"o":"m 1029 223 l 968 223 l 968 0 l 850 0 l 836 121 l 832 121 b 538 -14 758 35 668 -14 b 78 505 264 -14 78 185 b 535 1024 78 827 274 1024 b 961 691 753 1024 927 888 l 804 691 b 536 885 769 811 670 885 b 230 506 365 885 230 751 b 538 125 230 260 360 125 b 759 223 633 125 710 162 l 561 223 l 561 314 l 806 314 b 818 391 813 338 817 364 l 561 391 l 561 517 l 968 517 l 968 314 l 1029 314 "},"":{"ha":1102,"x_min":0,"x_max":0,"o":"m 804 691 b 536 885 769 811 670 885 b 230 506 365 885 230 751 b 538 125 230 260 360 125 b 818 391 703 125 813 235 l 561 391 l 561 517 l 968 517 l 968 0 l 850 0 l 836 121 l 832 121 b 538 -14 758 35 668 -14 b 78 505 264 -14 78 185 b 535 1024 78 827 274 1024 b 833 918 652 1024 756 985 b 1045 1040 869 997 944 1040 b 1123 1032 1072 1040 1099 1039 l 1123 910 b 1078 914 1110 912 1094 914 b 961 813 1013 914 961 893 l 961 691 "},"":{"ha":1050,"x_min":0,"x_max":0,"o":"m 538 -14 b 78 505 264 -14 78 185 b 535 1024 78 827 274 1024 b 961 691 753 1024 927 888 l 804 691 b 536 885 769 811 670 885 b 230 506 365 885 230 751 b 538 125 230 260 360 125 b 818 391 703 125 813 235 l 561 391 l 561 517 l 968 517 l 968 0 l 850 0 l 836 121 l 832 121 b 538 -14 758 35 668 -14 m 294 1101 l 294 1108 l 468 1317 l 590 1317 l 764 1108 l 764 1101 l 630 1101 l 529 1233 l 428 1101 "},"":{"ha":1050,"x_min":0,"x_max":0,"o":"m 538 -14 b 78 505 264 -14 78 185 b 535 1024 78 827 274 1024 b 961 691 753 1024 927 888 l 804 691 b 536 885 769 811 670 885 b 230 506 365 885 230 751 b 538 125 230 260 360 125 b 818 391 703 125 813 235 l 561 391 l 561 517 l 968 517 l 968 0 l 850 0 l 836 121 l 832 121 b 538 -14 758 35 668 -14 m 747 1267 b 529 1079 747 1156 663 1079 b 312 1267 397 1079 312 1156 l 433 1267 b 529 1173 433 1217 459 1173 b 626 1267 598 1173 626 1217 "},"":{"ha":1050,"x_min":0,"x_max":0,"o":"m 538 -14 b 78 505 264 -14 78 185 b 535 1024 78 827 274 1024 b 961 691 753 1024 927 888 l 804 691 b 536 885 769 811 670 885 b 230 506 365 885 230 751 b 538 125 230 260 360 125 b 818 391 703 125 813 235 l 561 391 l 561 517 l 968 517 l 968 0 l 850 0 l 836 121 l 832 121 b 538 -14 758 35 668 -14 m 529 1127 b 436 1215 478 1127 436 1166 b 529 1303 436 1263 478 1303 b 622 1215 580 1303 622 1263 b 529 1127 622 1166 580 1127 "},"":{"ha":1050,"x_min":0,"x_max":0,"o":"m 538 -14 b 78 505 264 -14 78 185 b 535 1024 78 827 274 1024 b 961 691 753 1024 927 888 l 804 691 b 536 885 769 811 670 885 b 230 506 365 885 230 751 b 538 125 230 260 360 125 b 818 391 703 125 813 235 l 561 391 l 561 517 l 968 517 l 968 0 l 850 0 l 836 121 l 832 121 b 538 -14 758 35 668 -14 m 455 -79 l 600 -79 l 508 -330 l 398 -330 "},"":{"ha":1050,"x_min":0,"x_max":0,"o":"m 538 -14 b 78 505 264 -14 78 185 b 535 1024 78 827 274 1024 b 961 691 753 1024 927 888 l 804 691 b 536 885 769 811 670 885 b 230 506 365 885 230 751 b 538 125 230 260 360 125 b 818 391 703 125 813 235 l 561 391 l 561 517 l 968 517 l 968 0 l 850 0 l 836 121 l 832 121 b 538 -14 758 35 668 -14 m 529 1185 l 630 1317 l 764 1317 l 764 1310 l 590 1101 l 468 1101 l 294 1310 l 294 1317 l 428 1317 "},"":{"ha":1050,"x_min":0,"x_max":0,"o":"m 538 -14 b 78 505 264 -14 78 185 b 535 1024 78 827 274 1024 b 961 691 753 1024 927 888 l 804 691 b 536 885 769 811 670 885 b 230 506 365 885 230 751 b 538 125 230 260 360 125 b 818 391 703 125 813 235 l 561 391 l 561 517 l 968 517 l 968 0 l 850 0 l 836 121 l 832 121 b 538 -14 758 35 668 -14 m 583 1339 l 739 1339 l 586 1111 l 468 1111 "},"":{"ha":1050,"x_min":0,"x_max":0,"o":"m 538 -14 b 78 505 264 -14 78 185 b 535 1024 78 827 274 1024 b 961 691 753 1024 927 888 l 804 691 b 536 885 769 811 670 885 b 230 506 365 885 230 751 b 538 125 230 260 360 125 b 818 391 703 125 813 235 l 561 391 l 561 517 l 968 517 l 968 0 l 850 0 l 836 121 l 832 121 b 538 -14 758 35 668 -14 m 763 1159 l 295 1159 l 295 1263 l 763 1263 "},"H":{"ha":1031,"x_min":0,"x_max":0,"o":"m 111 1010 l 263 1010 l 263 571 l 767 571 l 767 1010 l 920 1010 l 920 0 l 767 0 l 767 440 l 263 440 l 263 0 l 111 0 "},"Ḩ":{"ha":1031,"x_min":0,"x_max":0,"o":"m 111 1010 l 263 1010 l 263 571 l 767 571 l 767 1010 l 920 1010 l 920 0 l 767 0 l 767 440 l 263 440 l 263 0 l 244 0 l 237 -38 b 344 -156 293 -47 344 -81 b 119 -305 344 -245 265 -305 l 116 -223 b 231 -160 184 -223 231 -204 b 128 -95 232 -116 200 -102 l 147 0 l 111 0 "},"Ĥ":{"ha":1031,"x_min":0,"x_max":0,"o":"m 111 1010 l 263 1010 l 263 571 l 767 571 l 767 1010 l 920 1010 l 920 0 l 767 0 l 767 440 l 263 440 l 263 0 l 111 0 m 285 1102 l 285 1110 l 458 1319 l 581 1319 l 754 1110 l 754 1102 l 620 1102 l 519 1235 l 418 1102 "},"Ȟ":{"ha":1031,"x_min":0,"x_max":0,"o":"m 111 1010 l 263 1010 l 263 571 l 767 571 l 767 1010 l 920 1010 l 920 0 l 767 0 l 767 440 l 263 440 l 263 0 l 111 0 m 519 1187 l 620 1319 l 754 1319 l 754 1311 l 581 1102 l 458 1102 l 285 1311 l 285 1319 l 418 1319 "},"Ḣ":{"ha":1031,"x_min":0,"x_max":0,"o":"m 111 1010 l 263 1010 l 263 571 l 767 571 l 767 1010 l 920 1010 l 920 0 l 767 0 l 767 440 l 263 440 l 263 0 l 111 0 m 519 1128 b 426 1216 468 1128 426 1168 b 519 1305 426 1265 468 1305 b 613 1216 570 1305 613 1265 b 519 1128 613 1168 570 1128 "},"Ḥ":{"ha":1031,"x_min":0,"x_max":0,"o":"m 111 1010 l 263 1010 l 263 571 l 767 571 l 767 1010 l 920 1010 l 920 0 l 767 0 l 767 440 l 263 440 l 263 0 l 111 0 m 514 -261 b 421 -174 463 -261 421 -222 b 514 -85 421 -125 463 -85 b 608 -174 565 -85 608 -125 b 514 -261 608 -222 565 -261 "},"Ḧ":{"ha":1031,"x_min":0,"x_max":0,"o":"m 111 1010 l 263 1010 l 263 571 l 767 571 l 767 1010 l 920 1010 l 920 0 l 767 0 l 767 440 l 263 440 l 263 0 l 111 0 m 374 1130 b 287 1216 328 1130 287 1170 b 374 1303 287 1265 328 1303 b 461 1216 424 1303 461 1265 b 374 1130 461 1170 424 1130 m 664 1130 b 577 1216 618 1130 577 1170 b 664 1303 577 1265 618 1303 b 751 1216 714 1303 751 1265 b 664 1130 751 1170 714 1130 "},"Ḫ":{"ha":1031,"x_min":0,"x_max":0,"o":"m 111 1010 l 263 1010 l 263 571 l 767 571 l 767 1010 l 920 1010 l 920 0 l 767 0 l 767 440 l 263 440 l 263 0 l 111 0 m 731 -62 b 514 -253 731 -174 648 -253 b 296 -62 381 -253 296 -172 l 417 -62 b 513 -157 417 -113 445 -157 b 611 -62 582 -157 611 -111 "},"Ħ":{"ha":1094,"x_min":0,"x_max":0,"o":"m 1033 701 l 952 701 l 952 0 l 799 0 l 799 440 l 295 440 l 295 0 l 143 0 l 143 701 l 61 701 l 61 810 l 143 810 l 143 1010 l 295 1010 l 295 810 l 799 810 l 799 1010 l 952 1010 l 952 810 l 1033 810 m 295 701 l 295 571 l 799 571 l 799 701 "},"Ӈ":{"ha":1031,"x_min":0,"x_max":0,"o":"m 111 1010 l 263 1010 l 263 571 l 767 571 l 767 1010 l 920 1010 l 920 -70 b 679 -289 920 -188 847 -289 b 609 -283 653 -289 623 -288 l 609 -159 b 654 -163 620 -161 639 -163 b 767 -65 716 -163 767 -142 l 767 440 l 263 440 l 263 0 l 111 0 "},"Ң":{"ha":1106,"x_min":0,"x_max":0,"o":"m 111 1010 l 263 1010 l 263 571 l 767 571 l 767 1010 l 920 1010 l 920 121 l 1056 121 l 1056 -244 l 910 -244 l 910 0 l 767 0 l 767 440 l 263 440 l 263 0 l 111 0 "},"Ӊ":{"ha":1103,"x_min":0,"x_max":0,"o":"m 111 1010 l 263 1010 l 263 571 l 767 571 l 767 1010 l 920 1010 l 920 90 l 1053 90 l 1053 -11 b 960 -270 1052 -106 1019 -196 l 857 -240 b 920 -17 889 -167 920 -101 l 920 0 l 767 0 l 767 440 l 263 440 l 263 0 l 111 0 "},"Ҥ":{"ha":1379,"x_min":0,"x_max":0,"o":"m 1317 879 l 920 879 l 920 0 l 767 0 l 767 440 l 263 440 l 263 0 l 111 0 l 111 1010 l 263 1010 l 263 571 l 767 571 l 767 1010 l 1317 1010 "},"Ƕ":{"ha":1551,"x_min":0,"x_max":0,"o":"m 1112 -14 b 767 327 905 -14 767 106 l 767 440 l 263 440 l 263 0 l 111 0 l 111 1010 l 263 1010 l 263 571 l 767 571 l 767 1010 l 920 1010 l 920 327 b 1112 121 920 187 991 121 b 1299 327 1233 121 1299 187 l 1299 751 l 1452 751 l 1452 327 b 1112 -14 1452 103 1315 -14 "},"Η":{"ha":1031,"x_min":0,"x_max":0,"o":"m 111 1010 l 263 1010 l 263 571 l 767 571 l 767 1010 l 920 1010 l 920 0 l 767 0 l 767 440 l 263 440 l 263 0 l 111 0 "},"Ή":{"ha":1228,"x_min":0,"x_max":0,"o":"m 309 1010 l 461 1010 l 461 571 l 965 571 l 965 1010 l 1118 1010 l 1118 0 l 965 0 l 965 440 l 461 440 l 461 0 l 309 0 m 134 1076 l 281 1076 l 189 844 l 94 844 "},"Ἠ":{"ha":1254,"x_min":0,"x_max":0,"o":"m 334 1010 l 487 1010 l 487 571 l 990 571 l 990 1010 l 1143 1010 l 1143 0 l 990 0 l 990 440 l 487 440 l 487 0 l 334 0 m 268 952 b 147 765 268 871 223 805 l 92 814 b 147 956 131 851 147 895 l 147 1010 l 268 1010 "},"Ἡ":{"ha":1241,"x_min":0,"x_max":0,"o":"m 322 1010 l 474 1010 l 474 571 l 978 571 l 978 1010 l 1130 1010 l 1130 0 l 978 0 l 978 440 l 474 440 l 474 0 l 322 0 m 94 1010 l 215 1010 l 215 956 b 270 814 216 897 231 851 l 215 765 b 94 952 141 805 94 871 "},"Ἢ":{"ha":1518,"x_min":0,"x_max":0,"o":"m 598 1010 l 751 1010 l 751 571 l 1254 571 l 1254 1010 l 1407 1010 l 1407 0 l 1254 0 l 1254 440 l 751 440 l 751 0 l 598 0 m 273 955 b 147 765 273 876 227 809 l 93 807 b 149 959 129 848 149 894 l 149 1010 l 273 1010 m 526 781 l 462 781 l 304 996 l 304 1010 l 448 1010 l 526 791 "},"Ἣ":{"ha":1470,"x_min":0,"x_max":0,"o":"m 550 1010 l 703 1010 l 703 571 l 1206 571 l 1206 1010 l 1359 1010 l 1359 0 l 1206 0 l 1206 440 l 703 440 l 703 0 l 550 0 m 92 1010 l 214 1010 l 214 956 b 269 814 214 897 229 851 l 214 765 b 92 952 139 805 92 871 m 484 781 l 420 781 l 263 996 l 263 1010 l 408 1010 l 484 793 "},"Ἤ":{"ha":1468,"x_min":0,"x_max":0,"o":"m 548 1010 l 701 1010 l 701 571 l 1204 571 l 1204 1010 l 1357 1010 l 1357 0 l 1204 0 l 1204 440 l 701 440 l 701 0 l 548 0 m 271 952 b 149 765 271 871 224 805 l 94 814 b 149 956 132 851 148 897 l 149 1010 l 271 1010 m 284 793 l 362 1010 l 506 1010 l 506 996 l 348 781 l 284 781 "},"Ἥ":{"ha":1490,"x_min":0,"x_max":0,"o":"m 571 1010 l 723 1010 l 723 571 l 1227 571 l 1227 1010 l 1380 1010 l 1380 0 l 1227 0 l 1227 440 l 723 440 l 723 0 l 571 0 m 94 1010 l 215 1010 l 215 956 b 269 814 215 895 232 851 l 215 765 b 94 952 141 804 94 870 m 299 793 l 375 1010 l 520 1010 l 520 996 l 363 781 l 299 781 "},"Ἦ":{"ha":1384,"x_min":0,"x_max":0,"o":"m 464 1010 l 617 1010 l 617 571 l 1120 571 l 1120 1010 l 1273 1010 l 1273 0 l 1120 0 l 1120 440 l 617 440 l 617 0 l 464 0 m 479 1152 b 365 1030 479 1087 432 1030 b 211 1078 292 1030 270 1078 b 160 1019 182 1078 160 1052 l 92 1037 b 205 1163 92 1102 138 1163 b 359 1114 265 1163 302 1114 b 411 1173 388 1114 411 1139 m 351 946 b 261 793 351 889 318 828 l 204 832 b 246 946 235 865 246 903 l 246 996 l 351 996 "},"Ἧ":{"ha":1394,"x_min":0,"x_max":0,"o":"m 474 1010 l 627 1010 l 627 571 l 1130 571 l 1130 1010 l 1283 1010 l 1283 0 l 1130 0 l 1130 440 l 627 440 l 627 0 l 474 0 m 479 1152 b 365 1030 479 1087 432 1030 b 211 1078 292 1030 270 1078 b 160 1019 182 1078 160 1052 l 92 1037 b 205 1163 92 1102 138 1163 b 359 1114 265 1163 302 1114 b 411 1173 388 1114 411 1139 m 241 996 l 346 996 l 346 946 b 388 832 346 903 357 865 l 328 793 b 241 946 273 828 241 889 "},"Ὴ":{"ha":1307,"x_min":0,"x_max":0,"o":"m 387 1010 l 540 1010 l 540 571 l 1043 571 l 1043 1010 l 1196 1010 l 1196 0 l 1043 0 l 1043 440 l 540 440 l 540 0 l 387 0 m 251 779 l 93 996 l 93 1010 l 237 1010 l 314 794 l 314 779 "},"Ή":{"ha":1275,"x_min":0,"x_max":0,"o":"m 356 1010 l 508 1010 l 508 571 l 1012 571 l 1012 1010 l 1164 1010 l 1164 0 l 1012 0 l 1012 440 l 508 440 l 508 0 l 356 0 m 144 867 l 220 1083 l 378 1083 l 378 1069 l 221 852 l 144 852 "},"Н":{"ha":1031,"x_min":0,"x_max":0,"o":"m 111 1010 l 263 1010 l 263 571 l 767 571 l 767 1010 l 920 1010 l 920 0 l 767 0 l 767 440 l 263 440 l 263 0 l 111 0 "},"ᾘ":{"ha":1210,"x_min":0,"x_max":0,"o":"m 291 1010 l 443 1010 l 443 571 l 947 571 l 947 1010 l 1100 1010 l 1100 0 l 947 0 l 947 440 l 443 440 l 443 0 l 291 0 m 759 -335 b 640 -209 690 -335 640 -298 l 640 -61 l 750 -61 l 750 -207 b 785 -256 750 -243 763 -256 b 815 -254 796 -256 809 -254 l 815 -327 b 759 -335 802 -331 785 -335 m 224 952 b 104 765 224 871 180 805 l 48 814 b 104 956 87 851 104 895 l 104 1010 l 224 1010 "},"ᾙ":{"ha":1241,"x_min":0,"x_max":0,"o":"m 322 1010 l 474 1010 l 474 571 l 978 571 l 978 1010 l 1130 1010 l 1130 0 l 978 0 l 978 440 l 474 440 l 474 0 l 322 0 m 790 -335 b 671 -209 721 -335 671 -298 l 671 -61 l 781 -61 l 781 -207 b 815 -256 781 -243 793 -256 b 845 -254 827 -256 839 -254 l 845 -327 b 790 -335 833 -331 816 -335 m 94 1010 l 215 1010 l 215 956 b 270 814 216 897 231 851 l 215 765 b 94 952 141 805 94 871 "},"ᾚ":{"ha":1518,"x_min":0,"x_max":0,"o":"m 598 1010 l 751 1010 l 751 571 l 1254 571 l 1254 1010 l 1407 1010 l 1407 0 l 1254 0 l 1254 440 l 751 440 l 751 0 l 598 0 m 1066 -335 b 947 -209 998 -335 947 -298 l 947 -61 l 1057 -61 l 1057 -207 b 1092 -256 1057 -243 1070 -256 b 1122 -254 1103 -256 1116 -254 l 1122 -327 b 1066 -335 1110 -331 1092 -335 m 273 955 b 147 765 273 876 227 809 l 93 807 b 149 959 129 848 149 894 l 149 1010 l 273 1010 m 526 781 l 462 781 l 304 996 l 304 1010 l 448 1010 l 526 791 "},"ᾛ":{"ha":1470,"x_min":0,"x_max":0,"o":"m 550 1010 l 703 1010 l 703 571 l 1206 571 l 1206 1010 l 1359 1010 l 1359 0 l 1206 0 l 1206 440 l 703 440 l 703 0 l 550 0 m 1018 -335 b 900 -209 950 -335 900 -298 l 900 -61 l 1010 -61 l 1010 -207 b 1044 -256 1010 -243 1022 -256 b 1074 -254 1055 -256 1068 -254 l 1074 -327 b 1018 -335 1062 -331 1045 -335 m 92 1010 l 214 1010 l 214 956 b 269 814 214 897 229 851 l 214 765 b 92 952 139 805 92 871 m 484 781 l 420 781 l 263 996 l 263 1010 l 408 1010 l 484 793 "},"ᾜ":{"ha":1468,"x_min":0,"x_max":0,"o":"m 548 1010 l 701 1010 l 701 571 l 1204 571 l 1204 1010 l 1357 1010 l 1357 0 l 1204 0 l 1204 440 l 701 440 l 701 0 l 548 0 m 1017 -335 b 898 -209 948 -335 898 -298 l 898 -61 l 1008 -61 l 1008 -207 b 1042 -256 1008 -243 1020 -256 b 1072 -254 1054 -256 1066 -254 l 1072 -327 b 1017 -335 1060 -331 1043 -335 m 271 952 b 149 765 271 871 224 805 l 94 814 b 149 956 132 851 148 897 l 149 1010 l 271 1010 m 284 793 l 362 1010 l 506 1010 l 506 996 l 348 781 l 284 781 "},"ᾝ":{"ha":1490,"x_min":0,"x_max":0,"o":"m 571 1010 l 723 1010 l 723 571 l 1227 571 l 1227 1010 l 1380 1010 l 1380 0 l 1227 0 l 1227 440 l 723 440 l 723 0 l 571 0 m 1039 -335 b 920 -209 970 -335 920 -298 l 920 -61 l 1030 -61 l 1030 -207 b 1064 -256 1030 -243 1042 -256 b 1094 -254 1076 -256 1089 -254 l 1094 -327 b 1039 -335 1082 -331 1065 -335 m 94 1010 l 215 1010 l 215 956 b 269 814 215 895 232 851 l 215 765 b 94 952 141 804 94 870 m 299 793 l 375 1010 l 520 1010 l 520 996 l 363 781 l 299 781 "},"ᾞ":{"ha":1384,"x_min":0,"x_max":0,"o":"m 464 1010 l 617 1010 l 617 571 l 1120 571 l 1120 1010 l 1273 1010 l 1273 0 l 1120 0 l 1120 440 l 617 440 l 617 0 l 464 0 m 479 1152 b 365 1030 479 1087 432 1030 b 211 1078 292 1030 270 1078 b 160 1019 182 1078 160 1052 l 92 1037 b 205 1163 92 1102 138 1163 b 359 1114 265 1163 302 1114 b 411 1173 388 1114 411 1139 m 932 -335 b 813 -209 864 -335 813 -298 l 813 -61 l 923 -61 l 923 -207 b 958 -256 923 -243 936 -256 b 988 -254 969 -256 982 -254 l 988 -327 b 932 -335 976 -331 958 -335 m 351 946 b 261 793 351 889 318 828 l 204 832 b 246 946 235 865 246 903 l 246 996 l 351 996 "},"ᾟ":{"ha":1394,"x_min":0,"x_max":0,"o":"m 474 1010 l 627 1010 l 627 571 l 1130 571 l 1130 1010 l 1283 1010 l 1283 0 l 1130 0 l 1130 440 l 627 440 l 627 0 l 474 0 m 479 1152 b 365 1030 479 1087 432 1030 b 211 1078 292 1030 270 1078 b 160 1019 182 1078 160 1052 l 92 1037 b 205 1163 92 1102 138 1163 b 359 1114 265 1163 302 1114 b 411 1173 388 1114 411 1139 m 943 -335 b 824 -209 874 -335 824 -298 l 824 -61 l 934 -61 l 934 -207 b 968 -256 934 -243 946 -256 b 998 -254 980 -256 992 -254 l 998 -327 b 943 -335 986 -331 969 -335 m 241 996 l 346 996 l 346 946 b 388 832 346 903 357 865 l 328 793 b 241 946 273 828 241 889 "},"ῌ":{"ha":1031,"x_min":0,"x_max":0,"o":"m 111 1010 l 263 1010 l 263 571 l 767 571 l 767 1010 l 920 1010 l 920 0 l 767 0 l 767 440 l 263 440 l 263 0 l 111 0 m 579 -335 b 460 -209 510 -335 460 -298 l 460 -61 l 570 -61 l 570 -207 b 605 -256 570 -243 582 -256 b 635 -254 616 -256 629 -254 l 635 -327 b 579 -335 622 -331 605 -335 "},"I":{"ha":374,"x_min":0,"x_max":0,"o":"m 263 0 l 111 0 l 111 1010 l 263 1010 "},"Ï":{"ha":374,"x_min":0,"x_max":0,"o":"m 263 0 l 111 0 l 111 1010 l 263 1010 m 42 1129 b -45 1215 -4 1129 -45 1169 b 42 1301 -45 1264 -4 1301 b 129 1215 92 1301 129 1264 b 42 1129 129 1169 92 1129 m 332 1129 b 245 1215 286 1129 245 1169 b 332 1301 245 1264 286 1301 b 419 1215 382 1301 419 1264 b 332 1129 419 1169 382 1129 "},"Ḯ":{"ha":374,"x_min":0,"x_max":0,"o":"m 263 0 l 111 0 l 111 1010 l 263 1010 m 44 1085 b -42 1169 -1 1085 -42 1124 b 44 1254 -42 1217 -1 1254 b 130 1169 93 1254 130 1217 b 44 1085 130 1124 93 1085 m 330 1085 b 244 1169 285 1085 244 1124 b 330 1254 244 1217 285 1254 b 416 1169 379 1254 416 1217 b 330 1085 416 1124 379 1085 m 268 1480 l 421 1480 l 245 1322 l 126 1322 "},"Ɨ":{"ha":374,"x_min":0,"x_max":0,"o":"m 263 576 l 413 576 l 413 473 l 263 473 l 263 0 l 111 0 l 111 473 l -40 473 l -40 576 l 111 576 l 111 1010 l 263 1010 "},"Ḭ":{"ha":374,"x_min":0,"x_max":0,"o":"m 263 0 l 111 0 l 111 1010 l 263 1010 m -26 -254 b 128 -74 -26 -145 41 -74 b 308 -141 208 -74 242 -141 b 372 -66 346 -141 372 -109 l 470 -72 b 316 -249 470 -182 402 -249 b 136 -182 223 -249 206 -182 b 73 -257 100 -182 73 -214 "},"Ì":{"ha":374,"x_min":0,"x_max":0,"o":"m 263 0 l 111 0 l 111 1010 l 263 1010 m -22 1339 l 133 1339 l 248 1111 l 130 1111 "},"Í":{"ha":374,"x_min":0,"x_max":0,"o":"m 263 0 l 111 0 l 111 1010 l 263 1010 m 242 1339 l 398 1339 l 245 1111 l 127 1111 "},"Î":{"ha":374,"x_min":0,"x_max":0,"o":"m 263 0 l 111 0 l 111 1010 l 263 1010 m -47 1101 l -47 1108 l 126 1317 l 249 1317 l 422 1108 l 422 1101 l 289 1101 l 187 1233 l 86 1101 "},"Ĩ":{"ha":619,"x_min":0,"x_max":0,"o":"m 385 0 l 233 0 l 233 1010 l 385 1010 m 62 1105 b 215 1284 62 1214 128 1284 b 395 1218 295 1284 329 1218 b 460 1293 433 1218 459 1250 l 557 1287 b 403 1110 557 1177 490 1110 b 223 1177 310 1110 293 1177 b 161 1102 187 1177 161 1145 "},"Ī":{"ha":374,"x_min":0,"x_max":0,"o":"m 263 0 l 111 0 l 111 1010 l 263 1010 m 422 1159 l -46 1159 l -46 1263 l 422 1263 "},"Ĭ":{"ha":374,"x_min":0,"x_max":0,"o":"m 263 0 l 111 0 l 111 1010 l 263 1010 m 405 1267 b 187 1079 405 1156 321 1079 b -30 1267 55 1079 -30 1156 l 91 1267 b 187 1173 91 1217 117 1173 b 284 1267 256 1173 284 1217 "},"Į":{"ha":374,"x_min":0,"x_max":0,"o":"m 263 0 l 264 0 b 152 -136 204 -38 152 -80 b 203 -184 152 -166 166 -184 b 264 -168 230 -184 251 -175 l 277 -262 b 170 -291 254 -276 218 -291 b 21 -161 87 -291 27 -246 b 111 9 17 -102 43 -40 l 111 1010 l 263 1010 "},"İ":{"ha":374,"x_min":0,"x_max":0,"o":"m 263 0 l 111 0 l 111 1010 l 263 1010 m 187 1127 b 94 1215 136 1127 94 1166 b 187 1303 94 1263 136 1303 b 281 1215 238 1303 281 1263 b 187 1127 281 1166 238 1127 "},"Ǐ":{"ha":374,"x_min":0,"x_max":0,"o":"m 263 0 l 111 0 l 111 1010 l 263 1010 m 187 1185 l 289 1317 l 422 1317 l 422 1310 l 249 1101 l 126 1101 l -47 1310 l -47 1317 l 86 1317 "},"Ȉ":{"ha":374,"x_min":0,"x_max":0,"o":"m 263 0 l 111 0 l 111 1010 l 263 1010 m 147 1294 l 246 1339 l 349 1155 l 278 1111 m -108 1294 l -22 1339 l 121 1155 l 58 1111 "},"Ȋ":{"ha":374,"x_min":0,"x_max":0,"o":"m 263 0 l 111 0 l 111 1010 l 263 1010 m -31 1135 b 187 1325 -31 1245 53 1325 b 404 1135 321 1325 404 1245 l 283 1135 b 187 1230 283 1186 255 1230 b 90 1135 116 1230 90 1184 l -31 1135 "},"Ỉ":{"ha":374,"x_min":0,"x_max":0,"o":"m 263 0 l 111 0 l 111 1010 l 263 1010 m 131 1115 l 127 1215 b 222 1263 197 1219 223 1234 b 119 1312 223 1299 177 1312 l 123 1394 b 351 1263 272 1394 351 1343 b 248 1162 351 1198 299 1170 l 248 1115 "},"Ị":{"ha":374,"x_min":0,"x_max":0,"o":"m 263 0 l 111 0 l 111 1010 l 263 1010 m 187 -261 b 94 -174 136 -261 94 -222 b 187 -85 94 -125 136 -85 b 280 -174 238 -85 280 -125 b 187 -261 280 -222 238 -261 "},"Ι":{"ha":374,"x_min":0,"x_max":0,"o":"m 263 0 l 111 0 l 111 1010 l 263 1010 "},"Ί":{"ha":461,"x_min":0,"x_max":0,"o":"m 349 0 l 197 0 l 197 1010 l 349 1010 m 46 1076 l 193 1076 l 102 844 l 6 844 "},"Ϊ":{"ha":374,"x_min":0,"x_max":0,"o":"m 263 0 l 111 0 l 111 1010 l 263 1010 m 42 1129 b -45 1215 -4 1129 -45 1169 b 42 1301 -45 1264 -4 1301 b 129 1215 92 1301 129 1264 b 42 1129 129 1169 92 1129 m 332 1129 b 245 1215 286 1129 245 1169 b 332 1301 245 1264 286 1301 b 419 1215 382 1301 419 1264 b 332 1129 419 1169 382 1129 "},"Ἰ":{"ha":573,"x_min":0,"x_max":0,"o":"m 463 0 l 311 0 l 311 1010 l 463 1010 m 268 952 b 147 765 268 871 223 805 l 92 814 b 147 956 131 851 147 895 l 147 1010 l 268 1010 "},"Ἱ":{"ha":560,"x_min":0,"x_max":0,"o":"m 450 0 l 298 0 l 298 1010 l 450 1010 m 94 1010 l 215 1010 l 215 956 b 270 814 216 897 231 851 l 215 765 b 94 952 141 805 94 871 "},"Ἲ":{"ha":837,"x_min":0,"x_max":0,"o":"m 727 0 l 575 0 l 575 1010 l 727 1010 m 273 955 b 147 765 273 876 227 809 l 93 807 b 149 959 129 848 149 894 l 149 1010 l 273 1010 m 526 781 l 462 781 l 304 996 l 304 1010 l 448 1010 l 526 791 "},"Ἳ":{"ha":789,"x_min":0,"x_max":0,"o":"m 679 0 l 527 0 l 527 1010 l 679 1010 m 92 1010 l 214 1010 l 214 956 b 269 814 214 897 229 851 l 214 765 b 92 952 139 805 92 871 m 484 781 l 420 781 l 263 996 l 263 1010 l 408 1010 l 484 793 "},"Ἴ":{"ha":787,"x_min":0,"x_max":0,"o":"m 677 0 l 525 0 l 525 1010 l 677 1010 m 271 952 b 149 765 271 871 224 805 l 94 814 b 149 956 132 851 148 897 l 149 1010 l 271 1010 m 284 793 l 362 1010 l 506 1010 l 506 996 l 348 781 l 284 781 "},"Ἵ":{"ha":809,"x_min":0,"x_max":0,"o":"m 699 0 l 547 0 l 547 1010 l 699 1010 m 94 1010 l 215 1010 l 215 956 b 269 814 215 895 232 851 l 215 765 b 94 952 141 804 94 870 m 299 793 l 375 1010 l 520 1010 l 520 996 l 363 781 l 299 781 "},"Ἶ":{"ha":703,"x_min":0,"x_max":0,"o":"m 593 0 l 440 0 l 440 1010 l 593 1010 m 479 1152 b 365 1030 479 1087 432 1030 b 211 1078 292 1030 270 1078 b 160 1019 182 1078 160 1052 l 92 1037 b 205 1163 92 1102 138 1163 b 359 1114 265 1163 302 1114 b 411 1173 388 1114 411 1139 m 351 946 b 261 793 351 889 318 828 l 204 832 b 246 946 235 865 246 903 l 246 996 l 351 996 "},"Ἷ":{"ha":713,"x_min":0,"x_max":0,"o":"m 603 0 l 451 0 l 451 1010 l 603 1010 m 479 1152 b 365 1030 479 1087 432 1030 b 211 1078 292 1030 270 1078 b 160 1019 182 1078 160 1052 l 92 1037 b 205 1163 92 1102 138 1163 b 359 1114 265 1163 302 1114 b 411 1173 388 1114 411 1139 m 241 996 l 346 996 l 346 946 b 388 832 346 903 357 865 l 328 793 b 241 946 273 828 241 889 "},"Ῐ":{"ha":374,"x_min":0,"x_max":0,"o":"m 263 0 l 111 0 l 111 1010 l 263 1010 m 405 1267 b 187 1079 405 1156 321 1079 b -30 1267 55 1079 -30 1156 l 91 1267 b 187 1173 91 1217 117 1173 b 284 1267 256 1173 284 1217 "},"Ῑ":{"ha":374,"x_min":0,"x_max":0,"o":"m 263 0 l 111 0 l 111 1010 l 263 1010 m 422 1159 l -46 1159 l -46 1263 l 422 1263 "},"Ὶ":{"ha":626,"x_min":0,"x_max":0,"o":"m 516 0 l 363 0 l 363 1010 l 516 1010 m 251 779 l 93 996 l 93 1010 l 237 1010 l 314 794 l 314 779 "},"Ί":{"ha":594,"x_min":0,"x_max":0,"o":"m 484 0 l 332 0 l 332 1005 l 221 852 l 144 852 l 144 867 l 220 1083 l 378 1083 l 378 1069 l 335 1010 l 484 1010 "},"І":{"ha":374,"x_min":0,"x_max":0,"o":"m 263 0 l 111 0 l 111 1010 l 263 1010 "},"Ї":{"ha":374,"x_min":0,"x_max":0,"o":"m 263 0 l 111 0 l 111 1010 l 263 1010 m 42 1129 b -45 1215 -4 1129 -45 1169 b 42 1301 -45 1264 -4 1301 b 129 1215 92 1301 129 1264 b 42 1129 129 1169 92 1129 m 332 1129 b 245 1215 286 1129 245 1169 b 332 1301 245 1264 286 1301 b 419 1215 382 1301 419 1264 b 332 1129 419 1169 382 1129 "},"":{"ha":632,"x_min":0,"x_max":0,"o":"m 61 1010 l 571 1010 l 571 879 l 393 879 l 393 131 l 571 131 l 571 0 l 61 0 l 61 131 l 240 131 l 240 879 l 61 879 "},"":{"ha":632,"x_min":0,"x_max":0,"o":"m 61 1010 l 571 1010 l 571 879 l 393 879 l 393 131 l 571 131 l 571 0 l 61 0 l 61 131 l 240 131 l 240 879 l 61 879 m 172 1129 b 84 1215 125 1129 84 1169 b 172 1301 84 1264 125 1301 b 258 1215 221 1301 258 1264 b 172 1129 258 1169 221 1129 m 462 1129 b 374 1215 415 1129 374 1169 b 462 1301 374 1264 415 1301 b 548 1215 511 1301 548 1264 b 462 1129 548 1169 511 1129 "},"":{"ha":632,"x_min":0,"x_max":0,"o":"m 61 1010 l 571 1010 l 571 879 l 393 879 l 393 131 l 571 131 l 571 0 l 61 0 l 61 131 l 240 131 l 240 879 l 61 879 m 173 1085 b 87 1169 128 1085 87 1124 b 173 1254 87 1217 128 1254 b 259 1169 222 1254 259 1217 b 173 1085 259 1124 222 1085 m 460 1085 b 373 1169 414 1085 373 1124 b 460 1254 373 1217 414 1254 b 545 1169 508 1254 545 1217 b 460 1085 545 1124 508 1085 m 397 1480 l 550 1480 l 374 1322 l 255 1322 "},"":{"ha":632,"x_min":0,"x_max":0,"o":"m 61 1010 l 571 1010 l 571 879 l 393 879 l 393 576 l 543 576 l 543 473 l 393 473 l 393 131 l 571 131 l 571 0 l 61 0 l 61 131 l 240 131 l 240 473 l 89 473 l 89 576 l 240 576 l 240 879 l 61 879 "},"":{"ha":632,"x_min":0,"x_max":0,"o":"m 61 1010 l 571 1010 l 571 879 l 393 879 l 393 131 l 571 131 l 571 0 l 61 0 l 61 131 l 240 131 l 240 879 l 61 879 m 104 -254 b 257 -74 104 -145 170 -74 b 437 -141 337 -74 371 -141 b 502 -66 475 -141 501 -109 l 599 -72 b 445 -249 599 -182 532 -249 b 265 -182 352 -249 335 -182 b 203 -257 229 -182 203 -214 "},"":{"ha":632,"x_min":0,"x_max":0,"o":"m 61 1010 l 571 1010 l 571 879 l 393 879 l 393 131 l 571 131 l 571 0 l 61 0 l 61 131 l 240 131 l 240 879 l 61 879 m 107 1339 l 262 1339 l 377 1111 l 259 1111 "},"":{"ha":632,"x_min":0,"x_max":0,"o":"m 61 1010 l 571 1010 l 571 879 l 393 879 l 393 131 l 571 131 l 571 0 l 61 0 l 61 131 l 240 131 l 240 879 l 61 879 m 371 1339 l 526 1339 l 373 1111 l 255 1111 "},"":{"ha":632,"x_min":0,"x_max":0,"o":"m 61 1010 l 571 1010 l 571 879 l 393 879 l 393 131 l 571 131 l 571 0 l 61 0 l 61 131 l 240 131 l 240 879 l 61 879 m 82 1101 l 82 1108 l 255 1317 l 378 1317 l 551 1108 l 551 1101 l 418 1101 l 317 1233 l 215 1101 "},"":{"ha":632,"x_min":0,"x_max":0,"o":"m 61 1010 l 571 1010 l 571 879 l 393 879 l 393 131 l 571 131 l 571 0 l 61 0 l 61 131 l 240 131 l 240 879 l 61 879 m 69 1105 b 222 1284 69 1214 136 1284 b 402 1218 303 1284 336 1218 b 467 1293 440 1218 467 1250 l 564 1287 b 411 1110 564 1177 497 1110 b 231 1177 318 1110 301 1177 b 168 1102 194 1177 168 1145 "},"":{"ha":632,"x_min":0,"x_max":0,"o":"m 61 1010 l 571 1010 l 571 879 l 393 879 l 393 131 l 571 131 l 571 0 l 61 0 l 61 131 l 240 131 l 240 879 l 61 879 m 550 1159 l 82 1159 l 82 1263 l 550 1263 "},"":{"ha":632,"x_min":0,"x_max":0,"o":"m 61 1010 l 571 1010 l 571 879 l 393 879 l 393 131 l 571 131 l 571 0 l 61 0 l 61 131 l 240 131 l 240 879 l 61 879 m 535 1267 b 317 1079 535 1156 450 1079 b 100 1267 184 1079 100 1156 l 220 1267 b 317 1173 220 1217 247 1173 b 413 1267 386 1173 413 1217 "},"":{"ha":632,"x_min":0,"x_max":0,"o":"m 61 1010 l 571 1010 l 571 879 l 393 879 l 393 131 l 571 131 l 571 0 l 572 0 b 460 -136 511 -38 460 -80 b 510 -184 460 -166 473 -184 b 572 -168 538 -184 559 -175 l 585 -262 b 477 -291 562 -276 526 -291 b 329 -161 395 -291 334 -246 b 407 0 326 -106 348 -48 l 61 0 l 61 131 l 240 131 l 240 879 l 61 879 "},"":{"ha":632,"x_min":0,"x_max":0,"o":"m 61 1010 l 571 1010 l 571 879 l 393 879 l 393 131 l 571 131 l 571 0 l 61 0 l 61 131 l 240 131 l 240 879 l 61 879 m 317 1127 b 223 1215 265 1127 223 1166 b 317 1303 223 1263 265 1303 b 410 1215 367 1303 410 1263 b 317 1127 410 1166 367 1127 "},"":{"ha":632,"x_min":0,"x_max":0,"o":"m 61 1010 l 571 1010 l 571 879 l 393 879 l 393 131 l 571 131 l 571 0 l 61 0 l 61 131 l 240 131 l 240 879 l 61 879 m 317 1185 l 418 1317 l 551 1317 l 551 1310 l 378 1101 l 255 1101 l 82 1310 l 82 1317 l 215 1317 "},"":{"ha":632,"x_min":0,"x_max":0,"o":"m 61 1010 l 571 1010 l 571 879 l 393 879 l 393 131 l 571 131 l 571 0 l 61 0 l 61 131 l 240 131 l 240 879 l 61 879 m 276 1294 l 375 1339 l 478 1155 l 407 1111 m 21 1294 l 108 1339 l 251 1155 l 187 1111 "},"":{"ha":632,"x_min":0,"x_max":0,"o":"m 61 1010 l 571 1010 l 571 879 l 393 879 l 393 131 l 571 131 l 571 0 l 61 0 l 61 131 l 240 131 l 240 879 l 61 879 m 98 1135 b 316 1325 98 1245 182 1325 b 533 1135 450 1325 533 1245 l 412 1135 b 316 1230 411 1186 384 1230 b 219 1135 245 1230 218 1184 l 98 1135 "},"":{"ha":632,"x_min":0,"x_max":0,"o":"m 61 1010 l 571 1010 l 571 879 l 393 879 l 393 131 l 571 131 l 571 0 l 61 0 l 61 131 l 240 131 l 240 879 l 61 879 m 260 1115 l 256 1215 b 352 1263 326 1219 352 1234 b 248 1312 352 1299 306 1312 l 253 1394 b 480 1263 401 1394 480 1343 b 377 1162 480 1198 429 1170 l 377 1115 "},"":{"ha":632,"x_min":0,"x_max":0,"o":"m 61 1010 l 571 1010 l 571 879 l 393 879 l 393 131 l 571 131 l 571 0 l 61 0 l 61 131 l 240 131 l 240 879 l 61 879 m 316 -261 b 223 -174 265 -261 223 -222 b 316 -85 223 -125 265 -85 b 409 -174 367 -85 409 -125 b 316 -261 409 -222 367 -261 "},"":{"ha":851,"x_min":0,"x_max":0,"o":"m 280 1010 l 790 1010 l 790 879 l 611 879 l 611 131 l 790 131 l 790 0 l 280 0 l 280 131 l 459 131 l 459 879 l 280 879 m 237 952 b 116 765 237 871 192 805 l 61 814 b 116 956 100 851 116 895 l 116 1010 l 237 1010 "},"":{"ha":837,"x_min":0,"x_max":0,"o":"m 265 1010 l 775 1010 l 775 879 l 597 879 l 597 131 l 775 131 l 775 0 l 265 0 l 265 131 l 444 131 l 444 879 l 265 879 m 62 1010 l 183 1010 l 183 956 b 238 814 183 897 199 851 l 182 765 b 62 952 109 805 62 871 "},"":{"ha":1114,"x_min":0,"x_max":0,"o":"m 543 1010 l 1053 1010 l 1053 879 l 874 879 l 874 131 l 1053 131 l 1053 0 l 543 0 l 543 131 l 722 131 l 722 879 l 543 879 m 241 955 b 115 765 241 876 195 809 l 61 807 b 117 959 97 848 117 894 l 117 1010 l 241 1010 m 494 781 l 430 781 l 272 996 l 272 1010 l 416 1010 l 494 791 "},"":{"ha":1067,"x_min":0,"x_max":0,"o":"m 496 1010 l 1006 1010 l 1006 879 l 827 879 l 827 131 l 1006 131 l 1006 0 l 496 0 l 496 131 l 675 131 l 675 879 l 496 879 m 61 1010 l 182 1010 l 182 956 b 238 814 182 897 197 851 l 182 765 b 61 952 107 805 61 871 m 453 781 l 389 781 l 231 996 l 231 1010 l 377 1010 l 453 793 "},"":{"ha":1063,"x_min":0,"x_max":0,"o":"m 492 1010 l 1002 1010 l 1002 879 l 824 879 l 824 131 l 1002 131 l 1002 0 l 492 0 l 492 131 l 671 131 l 671 879 l 492 879 m 238 952 b 116 765 238 871 191 805 l 62 814 b 116 956 100 851 116 897 l 116 1010 l 238 1010 m 252 793 l 329 1010 l 473 1010 l 473 996 l 316 781 l 252 781 "},"":{"ha":1086,"x_min":0,"x_max":0,"o":"m 514 1010 l 1024 1010 l 1024 879 l 846 879 l 846 131 l 1024 131 l 1024 0 l 514 0 l 514 131 l 693 131 l 693 879 l 514 879 m 62 1010 l 183 1010 l 183 956 b 237 814 183 895 200 851 l 182 765 b 62 952 109 804 62 870 m 267 793 l 343 1010 l 488 1010 l 488 996 l 330 781 l 267 781 "},"":{"ha":981,"x_min":0,"x_max":0,"o":"m 409 1010 l 919 1010 l 919 879 l 741 879 l 741 131 l 919 131 l 919 0 l 409 0 l 409 131 l 588 131 l 588 879 l 409 879 m 448 1152 b 334 1030 448 1087 401 1030 b 180 1078 261 1030 239 1078 b 129 1019 151 1078 129 1052 l 61 1037 b 174 1163 61 1102 107 1163 b 328 1114 234 1163 271 1114 b 380 1173 357 1114 380 1139 m 320 946 b 230 793 320 889 287 828 l 173 832 b 215 946 204 865 215 903 l 215 996 l 320 996 "},"":{"ha":991,"x_min":0,"x_max":0,"o":"m 419 1010 l 929 1010 l 929 879 l 751 879 l 751 131 l 929 131 l 929 0 l 419 0 l 419 131 l 598 131 l 598 879 l 419 879 m 448 1152 b 334 1030 448 1087 401 1030 b 180 1078 261 1030 239 1078 b 129 1019 151 1078 129 1052 l 61 1037 b 174 1163 61 1102 107 1163 b 328 1114 234 1163 271 1114 b 380 1173 357 1114 380 1139 m 210 996 l 315 996 l 315 946 b 357 832 315 903 326 865 l 297 793 b 210 946 242 828 210 889 "},"":{"ha":632,"x_min":0,"x_max":0,"o":"m 61 1010 l 571 1010 l 571 879 l 393 879 l 393 131 l 571 131 l 571 0 l 61 0 l 61 131 l 240 131 l 240 879 l 61 879 m 535 1267 b 317 1079 535 1156 450 1079 b 100 1267 184 1079 100 1156 l 220 1267 b 317 1173 220 1217 247 1173 b 413 1267 386 1173 413 1217 "},"":{"ha":632,"x_min":0,"x_max":0,"o":"m 61 1010 l 571 1010 l 571 879 l 393 879 l 393 131 l 571 131 l 571 0 l 61 0 l 61 131 l 240 131 l 240 879 l 61 879 m 550 1159 l 82 1159 l 82 1263 l 550 1263 "},"":{"ha":903,"x_min":0,"x_max":0,"o":"m 331 1010 l 841 1010 l 841 879 l 663 879 l 663 131 l 841 131 l 841 0 l 331 0 l 331 131 l 510 131 l 510 879 l 331 879 m 218 779 l 61 996 l 61 1010 l 205 1010 l 282 794 l 282 779 "},"":{"ha":871,"x_min":0,"x_max":0,"o":"m 300 1005 l 189 852 l 112 852 l 112 867 l 188 1083 l 346 1083 l 346 1069 l 303 1010 l 810 1010 l 810 879 l 631 879 l 631 131 l 810 131 l 810 0 l 300 0 l 300 131 l 479 131 l 479 879 l 300 879 "},"":{"ha":632,"x_min":0,"x_max":0,"o":"m 61 1010 l 571 1010 l 571 879 l 393 879 l 393 131 l 571 131 l 571 0 l 61 0 l 61 131 l 240 131 l 240 879 l 61 879 "},"":{"ha":632,"x_min":0,"x_max":0,"o":"m 61 1010 l 571 1010 l 571 879 l 393 879 l 393 131 l 571 131 l 571 0 l 61 0 l 61 131 l 240 131 l 240 879 l 61 879 m 172 1129 b 84 1215 125 1129 84 1169 b 172 1301 84 1264 125 1301 b 258 1215 221 1301 258 1264 b 172 1129 258 1169 221 1129 m 462 1129 b 374 1215 415 1129 374 1169 b 462 1301 374 1264 415 1301 b 548 1215 511 1301 548 1264 b 462 1129 548 1169 511 1129 "},"J":{"ha":766,"x_min":0,"x_max":0,"o":"m 655 1010 l 655 294 b 348 -14 655 100 534 -14 b 49 253 177 -14 49 82 l 200 253 b 352 115 201 169 263 115 b 504 294 449 115 503 178 l 504 1010 "},"Ĵ":{"ha":766,"x_min":0,"x_max":0,"o":"m 655 1010 l 655 294 b 348 -14 655 100 534 -14 b 49 253 177 -14 49 82 l 200 253 b 352 115 201 169 263 115 b 504 294 449 115 503 178 l 504 1010 m 345 1101 l 345 1108 l 518 1317 l 641 1317 l 814 1108 l 814 1101 l 681 1101 l 580 1233 l 478 1101 "},"Ɉ":{"ha":766,"x_min":0,"x_max":0,"o":"m 655 1010 l 655 652 l 805 652 l 805 550 l 655 550 l 655 294 b 348 -14 655 100 534 -14 b 49 253 177 -14 49 82 l 200 253 b 352 115 201 169 263 115 b 504 294 449 115 503 178 l 504 550 l 352 550 l 352 652 l 504 652 l 504 1010 "},"Ϳ":{"ha":766,"x_min":0,"x_max":0,"o":"m 655 1010 l 655 294 b 348 -14 655 100 534 -14 b 49 253 177 -14 49 82 l 200 253 b 352 115 201 169 263 115 b 504 294 449 115 503 178 l 504 1010 "},"Ј":{"ha":766,"x_min":0,"x_max":0,"o":"m 655 1010 l 655 294 b 348 -14 655 100 534 -14 b 49 253 177 -14 49 82 l 200 253 b 352 115 201 169 263 115 b 504 294 449 115 503 178 l 504 1010 "},"K":{"ha":923,"x_min":0,"x_max":0,"o":"m 111 1010 l 263 1010 l 263 528 l 276 528 l 699 1010 l 891 1010 l 484 555 l 893 0 l 709 0 l 383 451 l 263 314 l 263 0 l 111 0 "},"Ķ":{"ha":923,"x_min":0,"x_max":0,"o":"m 111 1010 l 263 1010 l 263 528 l 276 528 l 699 1010 l 891 1010 l 484 555 l 893 0 l 709 0 l 383 451 l 263 314 l 263 0 l 111 0 m 389 -79 l 533 -79 l 441 -331 l 331 -331 "},"Ǩ":{"ha":923,"x_min":0,"x_max":0,"o":"m 111 1010 l 263 1010 l 263 528 l 276 528 l 699 1010 l 891 1010 l 484 555 l 893 0 l 709 0 l 383 451 l 263 314 l 263 0 l 111 0 m 465 1185 l 566 1317 l 699 1317 l 699 1310 l 526 1101 l 403 1101 l 230 1310 l 230 1317 l 363 1317 "},"Ḱ":{"ha":923,"x_min":0,"x_max":0,"o":"m 111 1010 l 263 1010 l 263 528 l 276 528 l 699 1010 l 891 1010 l 484 555 l 893 0 l 709 0 l 383 451 l 263 314 l 263 0 l 111 0 m 519 1339 l 674 1339 l 521 1111 l 403 1111 "},"Ḳ":{"ha":923,"x_min":0,"x_max":0,"o":"m 111 1010 l 263 1010 l 263 528 l 276 528 l 699 1010 l 891 1010 l 484 555 l 893 0 l 709 0 l 383 451 l 263 314 l 263 0 l 111 0 m 461 -261 b 367 -173 409 -261 367 -221 b 461 -85 367 -125 409 -85 b 554 -173 511 -85 554 -125 b 461 -261 554 -221 511 -261 "},"Ḵ":{"ha":923,"x_min":0,"x_max":0,"o":"m 111 1010 l 263 1010 l 263 528 l 276 528 l 699 1010 l 891 1010 l 484 555 l 893 0 l 709 0 l 383 451 l 263 314 l 263 0 l 111 0 m 695 -228 l 227 -228 l 227 -124 l 695 -124 "},"Ҡ":{"ha":1084,"x_min":0,"x_max":0,"o":"m 517 453 l 410 453 l 410 0 l 257 0 l 257 882 l 15 882 l 15 1010 l 410 1010 l 410 583 l 460 583 l 841 1010 l 1027 1010 l 623 558 l 1043 0 l 857 0 "},"Қ":{"ha":980,"x_min":0,"x_max":0,"o":"m 371 453 l 263 453 l 263 0 l 111 0 l 111 1010 l 263 1010 l 263 583 l 313 583 l 695 1010 l 881 1010 l 477 558 l 803 123 l 923 123 l 923 -242 l 777 -242 l 777 0 l 710 0 "},"Ƙ":{"ha":960,"x_min":0,"x_max":0,"o":"m 111 1010 l 263 1010 l 263 531 l 276 531 l 654 943 b 948 982 741 1037 852 1045 l 893 871 b 756 840 845 899 804 892 l 484 551 l 906 0 l 722 0 l 389 444 l 263 305 l 263 0 l 111 0 "},"Κ":{"ha":923,"x_min":0,"x_max":0,"o":"m 111 1010 l 263 1010 l 263 528 l 276 528 l 699 1010 l 891 1010 l 484 555 l 893 0 l 709 0 l 383 451 l 263 314 l 263 0 l 111 0 "},"L":{"ha":784,"x_min":0,"x_max":0,"o":"m 111 1010 l 263 1010 l 263 131 l 721 131 l 721 0 l 111 0 "},"Ĺ":{"ha":784,"x_min":0,"x_max":0,"o":"m 111 1010 l 263 1010 l 263 131 l 721 131 l 721 0 l 111 0 m 241 1339 l 397 1339 l 244 1111 l 126 1111 "},"Ļ":{"ha":784,"x_min":0,"x_max":0,"o":"m 111 1010 l 263 1010 l 263 131 l 721 131 l 721 0 l 111 0 m 344 -80 l 488 -80 l 396 -331 l 287 -331 "},"Ľ":{"ha":784,"x_min":0,"x_max":0,"o":"m 111 1010 l 263 1010 l 263 131 l 721 131 l 721 0 l 111 0 m 428 1059 l 560 1059 l 526 802 l 428 802 "},"Ḷ":{"ha":784,"x_min":0,"x_max":0,"o":"m 111 1010 l 263 1010 l 263 131 l 721 131 l 721 0 l 111 0 m 416 -261 b 323 -174 364 -261 323 -222 b 416 -85 323 -125 364 -85 b 509 -174 467 -85 509 -125 b 416 -261 509 -222 467 -261 "},"Ḹ":{"ha":784,"x_min":0,"x_max":0,"o":"m 111 1010 l 263 1010 l 263 131 l 721 131 l 721 0 l 111 0 m 421 1159 l -47 1159 l -47 1263 l 421 1263 m 416 -261 b 323 -174 364 -261 323 -222 b 416 -85 323 -125 364 -85 b 509 -174 467 -85 509 -125 b 416 -261 509 -222 467 -261 "},"Ḻ":{"ha":784,"x_min":0,"x_max":0,"o":"m 111 1010 l 263 1010 l 263 131 l 721 131 l 721 0 l 111 0 m 650 -228 l 182 -228 l 182 -125 l 650 -125 "},"Ḽ":{"ha":784,"x_min":0,"x_max":0,"o":"m 111 1010 l 263 1010 l 263 131 l 721 131 l 721 0 l 111 0 m 182 -280 l 182 -272 l 355 -63 l 477 -63 l 651 -272 l 651 -280 l 517 -280 l 416 -147 l 315 -280 "},"Ł":{"ha":792,"x_min":0,"x_max":0,"o":"m 446 540 l 278 489 l 278 131 l 735 131 l 735 0 l 125 0 l 125 443 l 27 414 l 27 512 l 125 542 l 125 1010 l 278 1010 l 278 587 l 446 638 "},"Ƚ":{"ha":784,"x_min":0,"x_max":0,"o":"m 111 473 l -40 473 l -40 576 l 111 576 l 111 1010 l 263 1010 l 263 576 l 413 576 l 413 473 l 263 473 l 263 131 l 721 131 l 721 0 l 111 0 "},"ǈ":{"ha":1129,"x_min":0,"x_max":0,"o":"m 111 1010 l 263 1010 l 263 131 l 721 131 l 721 0 l 111 0 m 1030 758 l 1030 -48 b 789 -283 1030 -200 947 -285 l 760 -283 l 760 -156 b 784 -156 769 -156 775 -156 b 883 -47 854 -156 883 -118 l 883 758 m 956 874 b 863 962 905 874 863 914 b 956 1051 863 1011 905 1051 b 1049 962 1007 1051 1049 1011 b 956 874 1049 914 1007 874 "},"M":{"ha":1247,"x_min":0,"x_max":0,"o":"m 296 1010 l 618 225 l 629 225 l 951 1010 l 1136 1010 l 1136 0 l 991 0 l 991 731 l 981 731 l 684 1 l 563 1 l 265 731 l 256 731 l 256 0 l 111 0 l 111 1010 "},"Ḿ":{"ha":1247,"x_min":0,"x_max":0,"o":"m 296 1010 l 618 225 l 629 225 l 951 1010 l 1136 1010 l 1136 0 l 991 0 l 991 731 l 981 731 l 684 1 l 563 1 l 265 731 l 256 731 l 256 0 l 111 0 l 111 1010 m 678 1339 l 834 1339 l 681 1111 l 563 1111 "},"Ṁ":{"ha":1247,"x_min":0,"x_max":0,"o":"m 296 1010 l 618 225 l 629 225 l 951 1010 l 1136 1010 l 1136 0 l 991 0 l 991 731 l 981 731 l 684 1 l 563 1 l 265 731 l 256 731 l 256 0 l 111 0 l 111 1010 m 623 1127 b 530 1215 572 1127 530 1166 b 623 1303 530 1263 572 1303 b 717 1215 674 1303 717 1263 b 623 1127 717 1166 674 1127 "},"Ṃ":{"ha":1247,"x_min":0,"x_max":0,"o":"m 296 1010 l 618 225 l 629 225 l 951 1010 l 1136 1010 l 1136 0 l 991 0 l 991 731 l 981 731 l 684 1 l 563 1 l 265 731 l 256 731 l 256 0 l 111 0 l 111 1010 m 623 -261 b 530 -174 572 -261 530 -222 b 623 -85 530 -125 572 -85 b 717 -174 674 -85 717 -125 b 623 -261 717 -222 674 -261 "},"Ӎ":{"ha":1277,"x_min":0,"x_max":0,"o":"m 296 1010 l 618 225 l 629 225 l 951 1010 l 1136 1010 l 1136 90 l 1269 90 l 1269 -11 b 1176 -270 1268 -106 1235 -196 l 1073 -240 b 1136 -17 1105 -167 1136 -101 l 1136 0 l 991 0 l 991 731 l 981 731 l 684 1 l 563 1 l 265 731 l 256 731 l 256 0 l 111 0 l 111 1010 "},"Μ":{"ha":1247,"x_min":0,"x_max":0,"o":"m 296 1010 l 618 225 l 629 225 l 951 1010 l 1136 1010 l 1136 0 l 991 0 l 991 731 l 981 731 l 684 1 l 563 1 l 265 731 l 256 731 l 256 0 l 111 0 l 111 1010 "},"Ϻ":{"ha":1247,"x_min":0,"x_max":0,"o":"m 296 1010 l 618 225 l 629 225 l 951 1010 l 1136 1010 l 1136 0 l 991 0 l 991 731 l 981 731 l 684 1 l 563 1 l 265 731 l 256 731 l 256 0 l 111 0 l 111 1010 "},"М":{"ha":1247,"x_min":0,"x_max":0,"o":"m 296 1010 l 618 225 l 629 225 l 951 1010 l 1136 1010 l 1136 0 l 991 0 l 991 731 l 981 731 l 684 1 l 563 1 l 265 731 l 256 731 l 256 0 l 111 0 l 111 1010 "},"N":{"ha":1037,"x_min":0,"x_max":0,"o":"m 926 0 l 786 0 l 273 741 l 263 741 l 263 0 l 111 0 l 111 1010 l 252 1010 l 766 268 l 775 268 l 775 1010 l 926 1010 "},"Ñ":{"ha":1037,"x_min":0,"x_max":0,"o":"m 926 0 l 786 0 l 273 741 l 263 741 l 263 0 l 111 0 l 111 1010 l 252 1010 l 766 268 l 775 268 l 775 1010 l 926 1010 m 271 1105 b 425 1284 271 1214 338 1284 b 605 1218 505 1284 539 1218 b 669 1293 643 1218 669 1250 l 766 1287 b 613 1110 766 1177 699 1110 b 433 1177 520 1110 503 1177 b 370 1102 397 1177 370 1145 "},"Ń":{"ha":1037,"x_min":0,"x_max":0,"o":"m 926 0 l 786 0 l 273 741 l 263 741 l 263 0 l 111 0 l 111 1010 l 252 1010 l 766 268 l 775 268 l 775 1010 l 926 1010 m 574 1339 l 729 1339 l 576 1111 l 458 1111 "},"Ņ":{"ha":1037,"x_min":0,"x_max":0,"o":"m 926 0 l 786 0 l 273 741 l 263 741 l 263 0 l 111 0 l 111 1010 l 252 1010 l 766 268 l 775 268 l 775 1010 l 926 1010 m 447 -80 l 591 -80 l 499 -331 l 390 -331 "},"Ň":{"ha":1037,"x_min":0,"x_max":0,"o":"m 926 0 l 786 0 l 273 741 l 263 741 l 263 0 l 111 0 l 111 1010 l 252 1010 l 766 268 l 775 268 l 775 1010 l 926 1010 m 519 1185 l 620 1317 l 754 1317 l 754 1310 l 580 1101 l 457 1101 l 284 1310 l 284 1317 l 417 1317 "},"Ǹ":{"ha":1037,"x_min":0,"x_max":0,"o":"m 926 0 l 786 0 l 273 741 l 263 741 l 263 0 l 111 0 l 111 1010 l 252 1010 l 766 268 l 775 268 l 775 1010 l 926 1010 m 309 1339 l 465 1339 l 580 1111 l 462 1111 "},"Ṅ":{"ha":1037,"x_min":0,"x_max":0,"o":"m 926 0 l 786 0 l 273 741 l 263 741 l 263 0 l 111 0 l 111 1010 l 252 1010 l 766 268 l 775 268 l 775 1010 l 926 1010 m 519 1127 b 426 1215 468 1127 426 1166 b 519 1303 426 1263 468 1303 b 612 1215 570 1303 612 1263 b 519 1127 612 1166 570 1127 "},"Ṇ":{"ha":1037,"x_min":0,"x_max":0,"o":"m 926 0 l 786 0 l 273 741 l 263 741 l 263 0 l 111 0 l 111 1010 l 252 1010 l 766 268 l 775 268 l 775 1010 l 926 1010 m 519 -261 b 426 -174 468 -261 426 -222 b 519 -85 426 -125 468 -85 b 612 -174 570 -85 612 -125 b 519 -261 612 -222 570 -261 "},"Ṉ":{"ha":1037,"x_min":0,"x_max":0,"o":"m 926 0 l 786 0 l 273 741 l 263 741 l 263 0 l 111 0 l 111 1010 l 252 1010 l 766 268 l 775 268 l 775 1010 l 926 1010 m 753 -228 l 285 -228 l 285 -125 l 753 -125 "},"Ṋ":{"ha":1037,"x_min":0,"x_max":0,"o":"m 926 0 l 786 0 l 273 741 l 263 741 l 263 0 l 111 0 l 111 1010 l 252 1010 l 766 268 l 775 268 l 775 1010 l 926 1010 m 285 -280 l 285 -272 l 458 -63 l 581 -63 l 754 -272 l 754 -280 l 620 -280 l 519 -147 l 418 -280 "},"Ɲ":{"ha":1049,"x_min":0,"x_max":0,"o":"m 938 0 l 798 0 l 285 741 l 275 741 l 275 -70 b 54 -284 275 -221 171 -284 b -24 -279 30 -284 -4 -284 l -24 -158 b 15 -161 -13 -160 2 -161 b 123 -68 76 -161 123 -140 l 123 1010 l 264 1010 l 778 268 l 787 268 l 787 1010 l 938 1010 "},"Ŋ":{"ha":1037,"x_min":0,"x_max":0,"o":"m 273 741 l 263 741 l 263 0 l 111 0 l 111 1010 l 252 1010 l 766 268 l 775 268 l 775 1010 l 926 1010 l 926 -68 b 693 -289 926 -218 827 -289 b 623 -282 669 -289 643 -288 l 623 -162 b 672 -167 636 -165 654 -167 b 786 -67 737 -167 786 -141 l 786 0 "},"И":{"ha":1037,"x_min":0,"x_max":0,"o":"m 262 1010 l 262 268 l 271 268 l 785 1010 l 926 1010 l 926 0 l 774 0 l 774 741 l 764 741 l 251 0 l 111 0 l 111 1010 "},"Ѝ":{"ha":1037,"x_min":0,"x_max":0,"o":"m 262 1010 l 262 268 l 271 268 l 785 1010 l 926 1010 l 926 0 l 774 0 l 774 741 l 764 741 l 251 0 l 111 0 l 111 1010 m 309 1339 l 464 1339 l 579 1111 l 461 1111 "},"Й":{"ha":1037,"x_min":0,"x_max":0,"o":"m 262 1010 l 262 268 l 271 268 l 785 1010 l 926 1010 l 926 0 l 774 0 l 774 741 l 764 741 l 251 0 l 111 0 l 111 1010 m 737 1267 b 519 1079 737 1156 653 1079 b 302 1267 386 1079 302 1156 l 423 1267 b 519 1173 423 1217 449 1173 b 616 1267 588 1173 616 1217 "},"Ӣ":{"ha":1037,"x_min":0,"x_max":0,"o":"m 262 1010 l 262 268 l 271 268 l 785 1010 l 926 1010 l 926 0 l 774 0 l 774 741 l 764 741 l 251 0 l 111 0 l 111 1010 m 753 1159 l 285 1159 l 285 1263 l 753 1263 "},"Ӥ":{"ha":1037,"x_min":0,"x_max":0,"o":"m 262 1010 l 262 268 l 271 268 l 785 1010 l 926 1010 l 926 0 l 774 0 l 774 741 l 764 741 l 251 0 l 111 0 l 111 1010 m 374 1129 b 287 1215 327 1129 287 1169 b 374 1301 287 1264 327 1301 b 461 1215 423 1301 461 1264 b 374 1129 461 1169 423 1129 m 664 1129 b 577 1215 618 1129 577 1169 b 664 1301 577 1264 618 1301 b 751 1215 713 1301 751 1264 b 664 1129 751 1169 713 1129 "},"Ҋ":{"ha":1037,"x_min":0,"x_max":0,"o":"m 262 1010 l 262 268 l 271 268 l 785 1010 l 926 1010 l 926 90 l 1058 90 l 1058 -11 b 965 -270 1057 -106 1024 -196 l 862 -240 b 925 -17 895 -167 925 -101 l 925 0 l 774 0 l 774 741 l 764 741 l 251 0 l 111 0 l 111 1010 m 737 1267 b 519 1079 737 1156 653 1079 b 302 1267 386 1079 302 1156 l 423 1267 b 519 1173 423 1217 449 1173 b 616 1267 588 1173 616 1217 "},"Ͷ":{"ha":1056,"x_min":0,"x_max":0,"o":"m 271 1010 l 271 268 l 280 268 l 794 1010 l 935 1010 l 935 0 l 783 0 l 783 741 l 773 741 l 260 0 l 120 0 l 120 1010 "},"Ν":{"ha":1037,"x_min":0,"x_max":0,"o":"m 926 0 l 786 0 l 273 741 l 263 741 l 263 0 l 111 0 l 111 1010 l 252 1010 l 766 268 l 775 268 l 775 1010 l 926 1010 "},"ǋ":{"ha":1358,"x_min":0,"x_max":0,"o":"m 926 0 l 786 0 l 273 741 l 263 741 l 263 0 l 111 0 l 111 1010 l 252 1010 l 766 268 l 775 268 l 775 1010 l 926 1010 m 1259 758 l 1259 -48 b 1017 -283 1259 -200 1175 -285 l 988 -283 l 988 -156 b 1012 -156 997 -156 1004 -156 b 1111 -47 1082 -156 1111 -118 l 1111 758 m 1184 874 b 1091 962 1133 874 1091 914 b 1184 1051 1091 1011 1133 1051 b 1277 962 1235 1051 1277 1011 b 1184 874 1277 914 1235 874 "},"O":{"ha":1067,"x_min":0,"x_max":0,"o":"m 988 505 b 534 -14 988 182 795 -14 b 78 505 271 -14 78 182 b 534 1024 78 828 271 1024 b 988 505 795 1024 988 828 m 837 505 b 534 885 837 751 707 885 b 230 505 360 885 230 751 b 534 125 230 259 360 125 b 837 505 707 125 837 259 "},"Ö":{"ha":1067,"x_min":0,"x_max":0,"o":"m 988 505 b 534 -14 988 182 795 -14 b 78 505 271 -14 78 182 b 534 1024 78 828 271 1024 b 988 505 795 1024 988 828 m 837 505 b 534 885 837 751 707 885 b 230 505 360 885 230 751 b 534 125 230 259 360 125 b 837 505 707 125 837 259 m 389 1129 b 301 1215 342 1129 301 1169 b 389 1301 301 1264 342 1301 b 475 1215 438 1301 475 1264 b 389 1129 475 1169 438 1129 m 679 1129 b 591 1215 632 1129 591 1169 b 679 1301 591 1264 632 1301 b 765 1215 728 1301 765 1264 b 679 1129 765 1169 728 1129 "},"Õ":{"ha":1067,"x_min":0,"x_max":0,"o":"m 988 505 b 534 -14 988 182 795 -14 b 78 505 271 -14 78 182 b 534 1024 78 828 271 1024 b 988 505 795 1024 988 828 m 837 505 b 534 885 837 751 707 885 b 230 505 360 885 230 751 b 534 125 230 259 360 125 b 837 505 707 125 837 259 m 286 1114 b 439 1293 286 1223 353 1293 b 619 1227 520 1293 553 1227 b 684 1302 657 1227 684 1259 l 781 1296 b 628 1119 781 1186 714 1119 b 448 1186 535 1119 518 1186 b 385 1111 411 1186 385 1154 "},"Ø":{"ha":1067,"x_min":0,"x_max":0,"o":"m 136 12 l 211 121 b 78 505 128 211 78 342 b 534 1024 78 828 271 1024 b 779 954 625 1024 709 1000 l 845 1052 l 928 996 l 855 890 b 988 505 939 800 988 669 b 534 -14 988 182 795 -14 b 287 57 441 -14 357 11 l 218 -44 m 837 505 b 769 763 837 614 812 700 l 368 176 b 534 125 415 143 472 125 b 837 505 707 125 837 259 m 698 836 b 534 885 651 868 595 885 b 230 505 360 885 230 751 b 297 249 230 398 254 311 "},"Ơ":{"ha":1093,"x_min":0,"x_max":0,"o":"m 1074 1075 b 917 804 1074 934 1023 839 b 988 505 963 724 988 623 b 534 -14 988 182 795 -14 b 78 505 271 -14 78 182 b 534 1024 78 828 271 1024 b 852 894 660 1024 771 978 b 952 1075 922 910 952 975 m 837 505 b 534 885 837 751 707 885 b 230 505 360 885 230 751 b 534 125 230 259 360 125 b 837 505 707 125 837 259 "},"Ò":{"ha":1067,"x_min":0,"x_max":0,"o":"m 988 505 b 534 -14 988 182 795 -14 b 78 505 271 -14 78 182 b 534 1024 78 828 271 1024 b 988 505 795 1024 988 828 m 837 505 b 534 885 837 751 707 885 b 230 505 360 885 230 751 b 534 125 230 259 360 125 b 837 505 707 125 837 259 m 324 1339 l 479 1339 l 594 1111 l 476 1111 "},"Ó":{"ha":1067,"x_min":0,"x_max":0,"o":"m 988 505 b 534 -14 988 182 795 -14 b 78 505 271 -14 78 182 b 534 1024 78 828 271 1024 b 988 505 795 1024 988 828 m 837 505 b 534 885 837 751 707 885 b 230 505 360 885 230 751 b 534 125 230 259 360 125 b 837 505 707 125 837 259 m 588 1339 l 743 1339 l 590 1111 l 472 1111 "},"Ô":{"ha":1067,"x_min":0,"x_max":0,"o":"m 988 505 b 534 -14 988 182 795 -14 b 78 505 271 -14 78 182 b 534 1024 78 828 271 1024 b 988 505 795 1024 988 828 m 837 505 b 534 885 837 751 707 885 b 230 505 360 885 230 751 b 534 125 230 259 360 125 b 837 505 707 125 837 259 m 299 1101 l 299 1108 l 472 1317 l 595 1317 l 768 1108 l 768 1101 l 635 1101 l 534 1233 l 432 1101 "},"Ō":{"ha":1067,"x_min":0,"x_max":0,"o":"m 988 505 b 534 -14 988 182 795 -14 b 78 505 271 -14 78 182 b 534 1024 78 828 271 1024 b 988 505 795 1024 988 828 m 837 505 b 534 885 837 751 707 885 b 230 505 360 885 230 751 b 534 125 230 259 360 125 b 837 505 707 125 837 259 m 767 1159 l 299 1159 l 299 1263 l 767 1263 "},"Ŏ":{"ha":1067,"x_min":0,"x_max":0,"o":"m 988 505 b 534 -14 988 182 795 -14 b 78 505 271 -14 78 182 b 534 1024 78 828 271 1024 b 988 505 795 1024 988 828 m 837 505 b 534 885 837 751 707 885 b 230 505 360 885 230 751 b 534 125 230 259 360 125 b 837 505 707 125 837 259 m 752 1267 b 534 1079 752 1156 667 1079 b 317 1267 401 1079 317 1156 l 437 1267 b 534 1173 437 1217 464 1173 b 630 1267 603 1173 630 1217 "},"Ő":{"ha":1067,"x_min":0,"x_max":0,"o":"m 988 505 b 534 -14 988 182 795 -14 b 78 505 271 -14 78 182 b 534 1024 78 828 271 1024 b 988 505 795 1024 988 828 m 837 505 b 534 885 837 751 707 885 b 230 505 360 885 230 751 b 534 125 230 259 360 125 b 837 505 707 125 837 259 m 719 1302 l 865 1302 l 683 1094 l 565 1094 m 463 1302 l 608 1302 l 456 1094 l 346 1094 "},"Ǒ":{"ha":1067,"x_min":0,"x_max":0,"o":"m 988 505 b 534 -14 988 182 795 -14 b 78 505 271 -14 78 182 b 534 1024 78 828 271 1024 b 988 505 795 1024 988 828 m 837 505 b 534 885 837 751 707 885 b 230 505 360 885 230 751 b 534 125 230 259 360 125 b 837 505 707 125 837 259 m 534 1185 l 635 1317 l 768 1317 l 768 1310 l 595 1101 l 472 1101 l 299 1310 l 299 1317 l 432 1317 "},"Ǫ":{"ha":1067,"x_min":0,"x_max":0,"o":"m 988 505 b 639 -2 988 227 845 43 b 528 -138 579 -41 528 -83 b 578 -186 528 -169 541 -186 b 640 -171 605 -186 626 -177 l 653 -264 b 545 -294 630 -278 593 -294 b 397 -164 462 -294 402 -248 b 467 -9 393 -111 414 -56 b 78 505 239 22 78 211 b 534 1024 78 828 271 1024 b 988 505 795 1024 988 828 m 837 505 b 534 885 837 751 707 885 b 230 505 360 885 230 751 b 534 125 230 259 360 125 b 837 505 707 125 837 259 "},"Ǭ":{"ha":1067,"x_min":0,"x_max":0,"o":"m 988 505 b 639 -2 988 227 845 43 b 528 -138 579 -41 528 -83 b 578 -186 528 -169 541 -186 b 640 -171 605 -186 626 -177 l 653 -264 b 545 -294 630 -278 593 -294 b 397 -164 462 -294 402 -248 b 467 -9 393 -111 414 -56 b 78 505 239 22 78 211 b 534 1024 78 828 271 1024 b 988 505 795 1024 988 828 m 837 505 b 534 885 837 751 707 885 b 230 505 360 885 230 751 b 534 125 230 259 360 125 b 837 505 707 125 837 259 m 767 1159 l 299 1159 l 299 1263 l 767 1263 "},"Ȍ":{"ha":1067,"x_min":0,"x_max":0,"o":"m 988 505 b 534 -14 988 182 795 -14 b 78 505 271 -14 78 182 b 534 1024 78 828 271 1024 b 988 505 795 1024 988 828 m 837 505 b 534 885 837 751 707 885 b 230 505 360 885 230 751 b 534 125 230 259 360 125 b 837 505 707 125 837 259 m 493 1294 l 592 1339 l 695 1155 l 624 1111 m 238 1294 l 325 1339 l 468 1155 l 404 1111 "},"Ȏ":{"ha":1067,"x_min":0,"x_max":0,"o":"m 988 505 b 534 -14 988 182 795 -14 b 78 505 271 -14 78 182 b 534 1024 78 828 271 1024 b 988 505 795 1024 988 828 m 837 505 b 534 885 837 751 707 885 b 230 505 360 885 230 751 b 534 125 230 259 360 125 b 837 505 707 125 837 259 m 315 1135 b 533 1325 315 1245 399 1325 b 750 1135 667 1325 750 1245 l 629 1135 b 533 1230 628 1186 601 1230 b 436 1135 462 1230 436 1184 l 315 1135 "},"Ȫ":{"ha":1067,"x_min":0,"x_max":0,"o":"m 988 505 b 534 -14 988 182 795 -14 b 78 505 271 -14 78 182 b 534 1024 78 828 271 1024 b 988 505 795 1024 988 828 m 837 505 b 534 885 837 751 707 885 b 230 505 360 885 230 751 b 534 125 230 259 360 125 b 837 505 707 125 837 259 m 767 1412 l 299 1412 l 299 1515 l 767 1515 m 389 1129 b 301 1215 342 1129 301 1169 b 389 1301 301 1264 342 1301 b 475 1215 438 1301 475 1264 b 389 1129 475 1169 438 1129 m 679 1129 b 591 1215 632 1129 591 1169 b 679 1301 591 1264 632 1301 b 765 1215 728 1301 765 1264 b 679 1129 765 1169 728 1129 "},"Ȭ":{"ha":1067,"x_min":0,"x_max":0,"o":"m 988 505 b 534 -14 988 182 795 -14 b 78 505 271 -14 78 182 b 534 1024 78 828 271 1024 b 988 505 795 1024 988 828 m 837 505 b 534 885 837 751 707 885 b 230 505 360 885 230 751 b 534 125 230 259 360 125 b 837 505 707 125 837 259 m 769 1326 l 299 1326 l 299 1433 l 769 1433 m 728 1239 b 614 1116 728 1173 681 1116 b 459 1165 540 1116 518 1165 b 408 1104 431 1165 408 1136 l 340 1123 b 453 1248 340 1188 387 1248 b 608 1200 514 1248 550 1200 b 660 1258 635 1200 660 1225 "},"Ȯ":{"ha":1067,"x_min":0,"x_max":0,"o":"m 988 505 b 534 -14 988 182 795 -14 b 78 505 271 -14 78 182 b 534 1024 78 828 271 1024 b 988 505 795 1024 988 828 m 837 505 b 534 885 837 751 707 885 b 230 505 360 885 230 751 b 534 125 230 259 360 125 b 837 505 707 125 837 259 m 534 1127 b 440 1215 482 1127 440 1166 b 534 1303 440 1263 482 1303 b 627 1215 584 1303 627 1263 b 534 1127 627 1166 584 1127 "},"Ȱ":{"ha":1067,"x_min":0,"x_max":0,"o":"m 988 505 b 534 -14 988 182 795 -14 b 78 505 271 -14 78 182 b 534 1024 78 828 271 1024 b 988 505 795 1024 988 828 m 837 505 b 534 885 837 751 707 885 b 230 505 360 885 230 751 b 534 125 230 259 360 125 b 837 505 707 125 837 259 m 759 1364 l 291 1364 l 291 1463 l 759 1463 m 534 1103 b 440 1188 482 1103 440 1141 b 534 1272 440 1234 482 1272 b 627 1188 584 1272 627 1234 b 534 1103 627 1141 584 1103 "},"Ṍ":{"ha":1067,"x_min":0,"x_max":0,"o":"m 988 505 b 534 -14 988 182 795 -14 b 78 505 271 -14 78 182 b 534 1024 78 828 271 1024 b 988 505 795 1024 988 828 m 837 505 b 534 885 837 751 707 885 b 230 505 360 885 230 751 b 534 125 230 259 360 125 b 837 505 707 125 837 259 m 289 1102 b 440 1278 289 1209 355 1278 b 618 1213 520 1278 553 1213 b 682 1286 656 1213 682 1244 l 778 1280 b 626 1107 778 1173 712 1108 b 449 1173 535 1107 518 1173 b 387 1099 413 1173 387 1141 m 601 1480 l 755 1480 l 579 1322 l 460 1322 "},"Ṏ":{"ha":1067,"x_min":0,"x_max":0,"o":"m 988 505 b 534 -14 988 182 795 -14 b 78 505 271 -14 78 182 b 534 1024 78 828 271 1024 b 988 505 795 1024 988 828 m 837 505 b 534 885 837 751 707 885 b 230 505 360 885 230 751 b 534 125 230 259 360 125 b 837 505 707 125 837 259 m 728 1235 b 614 1112 727 1169 680 1112 b 459 1161 540 1112 518 1161 b 408 1100 431 1161 408 1133 l 340 1119 b 453 1244 340 1184 386 1244 b 608 1197 514 1244 550 1197 b 659 1254 635 1197 659 1222 m 606 1371 b 690 1449 605 1415 637 1449 b 773 1372 741 1449 773 1415 b 690 1295 773 1329 743 1295 b 606 1371 637 1295 605 1328 m 293 1372 b 376 1449 293 1415 323 1449 b 461 1372 429 1449 461 1416 b 376 1297 461 1329 430 1297 b 293 1372 325 1297 293 1329 "},"Ṑ":{"ha":1067,"x_min":0,"x_max":0,"o":"m 988 505 b 534 -14 988 182 795 -14 b 78 505 271 -14 78 182 b 534 1024 78 828 271 1024 b 988 505 795 1024 988 828 m 837 505 b 534 885 837 751 707 885 b 230 505 360 885 230 751 b 534 125 230 259 360 125 b 837 505 707 125 837 259 m 768 1133 l 300 1133 l 300 1236 l 768 1236 m 309 1467 l 465 1467 l 610 1309 l 477 1309 "},"Ṓ":{"ha":1067,"x_min":0,"x_max":0,"o":"m 988 505 b 534 -14 988 182 795 -14 b 78 505 271 -14 78 182 b 534 1024 78 828 271 1024 b 988 505 795 1024 988 828 m 837 505 b 534 885 837 751 707 885 b 230 505 360 885 230 751 b 534 125 230 259 360 125 b 837 505 707 125 837 259 m 768 1133 l 300 1133 l 300 1236 l 768 1236 m 603 1467 l 760 1467 l 591 1309 l 458 1309 "},"Ọ":{"ha":1067,"x_min":0,"x_max":0,"o":"m 988 505 b 534 -14 988 182 795 -14 b 78 505 271 -14 78 182 b 534 1024 78 828 271 1024 b 988 505 795 1024 988 828 m 837 505 b 534 885 837 751 707 885 b 230 505 360 885 230 751 b 534 125 230 259 360 125 b 837 505 707 125 837 259 m 533 -261 b 440 -174 482 -261 440 -222 b 533 -85 440 -125 482 -85 b 626 -174 584 -85 626 -125 b 533 -261 626 -222 584 -261 "},"Ỏ":{"ha":1067,"x_min":0,"x_max":0,"o":"m 988 505 b 534 -14 988 182 795 -14 b 78 505 271 -14 78 182 b 534 1024 78 828 271 1024 b 988 505 795 1024 988 828 m 837 505 b 534 885 837 751 707 885 b 230 505 360 885 230 751 b 534 125 230 259 360 125 b 837 505 707 125 837 259 m 477 1115 l 473 1215 b 569 1263 543 1219 569 1234 b 465 1312 569 1299 523 1312 l 470 1394 b 697 1263 618 1394 697 1343 b 594 1162 697 1198 646 1170 l 594 1115 "},"Ố":{"ha":1067,"x_min":0,"x_max":0,"o":"m 988 505 b 534 -14 988 182 795 -14 b 78 505 271 -14 78 182 b 534 1024 78 828 271 1024 b 988 505 795 1024 988 828 m 837 505 b 534 885 837 751 707 885 b 230 505 360 885 230 751 b 534 125 230 259 360 125 b 837 505 707 125 837 259 m 478 1272 l 588 1272 l 789 1101 l 644 1101 l 535 1199 l 424 1101 l 278 1101 m 839 1390 l 990 1390 l 844 1210 l 736 1210 "},"Ồ":{"ha":1067,"x_min":0,"x_max":0,"o":"m 988 505 b 534 -14 988 182 795 -14 b 78 505 271 -14 78 182 b 534 1024 78 828 271 1024 b 988 505 795 1024 988 828 m 837 505 b 534 885 837 751 707 885 b 230 505 360 885 230 751 b 534 125 230 259 360 125 b 837 505 707 125 837 259 m 789 1098 l 643 1098 l 534 1196 l 424 1098 l 279 1098 l 477 1270 l 587 1270 m 330 1208 l 224 1208 l 77 1389 l 228 1389 "},"Ổ":{"ha":1067,"x_min":0,"x_max":0,"o":"m 988 505 b 534 -14 988 182 795 -14 b 78 505 271 -14 78 182 b 534 1024 78 828 271 1024 b 988 505 795 1024 988 828 m 837 505 b 534 885 837 751 707 885 b 230 505 360 885 230 751 b 534 125 230 259 360 125 b 837 505 707 125 837 259 m 788 1090 l 658 1090 l 532 1201 l 407 1090 l 277 1090 l 467 1261 l 598 1261 m 724 1182 l 721 1267 b 802 1307 776 1271 802 1279 b 712 1348 802 1338 763 1348 l 716 1418 b 905 1308 839 1418 905 1376 b 816 1221 905 1251 861 1227 l 816 1182 "},"Ỗ":{"ha":1067,"x_min":0,"x_max":0,"o":"m 988 505 b 534 -14 988 182 795 -14 b 78 505 271 -14 78 182 b 534 1024 78 828 271 1024 b 988 505 795 1024 988 828 m 837 505 b 534 885 837 751 707 885 b 230 505 360 885 230 751 b 534 125 230 259 360 125 b 837 505 707 125 837 259 m 787 1080 l 657 1080 l 532 1177 l 408 1080 l 277 1080 l 482 1241 l 582 1241 m 711 1393 b 605 1287 711 1340 666 1287 b 465 1333 539 1287 516 1333 b 414 1284 439 1333 414 1308 l 355 1300 b 460 1408 355 1353 399 1408 b 600 1363 513 1408 550 1363 b 650 1413 625 1363 650 1388 "},"Ộ":{"ha":1067,"x_min":0,"x_max":0,"o":"m 988 505 b 534 -14 988 182 795 -14 b 78 505 271 -14 78 182 b 534 1024 78 828 271 1024 b 988 505 795 1024 988 828 m 837 505 b 534 885 837 751 707 885 b 230 505 360 885 230 751 b 534 125 230 259 360 125 b 837 505 707 125 837 259 m 299 1101 l 299 1108 l 472 1317 l 595 1317 l 768 1108 l 768 1101 l 635 1101 l 534 1233 l 432 1101 m 533 -261 b 440 -174 482 -261 440 -222 b 533 -85 440 -125 482 -85 b 626 -174 584 -85 626 -125 b 533 -261 626 -222 584 -261 "},"Ớ":{"ha":1093,"x_min":0,"x_max":0,"o":"m 1074 1075 b 917 804 1074 934 1023 839 b 988 505 963 724 988 623 b 534 -14 988 182 795 -14 b 78 505 271 -14 78 182 b 534 1024 78 828 271 1024 b 852 894 660 1024 771 978 b 952 1075 922 910 952 975 m 837 505 b 534 885 837 751 707 885 b 230 505 360 885 230 751 b 534 125 230 259 360 125 b 837 505 707 125 837 259 m 588 1339 l 743 1339 l 590 1111 l 472 1111 "},"Ờ":{"ha":1093,"x_min":0,"x_max":0,"o":"m 1074 1075 b 917 804 1074 934 1023 839 b 988 505 963 724 988 623 b 534 -14 988 182 795 -14 b 78 505 271 -14 78 182 b 534 1024 78 828 271 1024 b 852 894 660 1024 771 978 b 952 1075 922 910 952 975 m 837 505 b 534 885 837 751 707 885 b 230 505 360 885 230 751 b 534 125 230 259 360 125 b 837 505 707 125 837 259 m 324 1339 l 479 1339 l 594 1111 l 476 1111 "},"Ở":{"ha":1093,"x_min":0,"x_max":0,"o":"m 1074 1075 b 917 804 1074 934 1023 839 b 988 505 963 724 988 623 b 534 -14 988 182 795 -14 b 78 505 271 -14 78 182 b 534 1024 78 828 271 1024 b 852 894 660 1024 771 978 b 952 1075 922 910 952 975 m 837 505 b 534 885 837 751 707 885 b 230 505 360 885 230 751 b 534 125 230 259 360 125 b 837 505 707 125 837 259 m 477 1115 l 473 1215 b 569 1263 543 1219 569 1234 b 465 1312 569 1299 523 1312 l 470 1394 b 697 1263 618 1394 697 1343 b 594 1162 697 1198 646 1170 l 594 1115 "},"Ỡ":{"ha":1093,"x_min":0,"x_max":0,"o":"m 1074 1075 b 917 804 1074 934 1023 839 b 988 505 963 724 988 623 b 534 -14 988 182 795 -14 b 78 505 271 -14 78 182 b 534 1024 78 828 271 1024 b 852 894 660 1024 771 978 b 952 1075 922 910 952 975 m 837 505 b 534 885 837 751 707 885 b 230 505 360 885 230 751 b 534 125 230 259 360 125 b 837 505 707 125 837 259 m 286 1105 b 439 1284 286 1214 353 1284 b 619 1218 520 1284 553 1218 b 684 1293 657 1218 684 1250 l 781 1287 b 628 1110 781 1177 714 1110 b 448 1177 535 1110 518 1177 b 385 1102 411 1177 385 1145 "},"Ợ":{"ha":1093,"x_min":0,"x_max":0,"o":"m 1074 1075 b 917 804 1074 934 1023 839 b 988 505 963 724 988 623 b 534 -14 988 182 795 -14 b 78 505 271 -14 78 182 b 534 1024 78 828 271 1024 b 852 894 660 1024 771 978 b 952 1075 922 910 952 975 m 837 505 b 534 885 837 751 707 885 b 230 505 360 885 230 751 b 534 125 230 259 360 125 b 837 505 707 125 837 259 m 533 -261 b 440 -174 482 -261 440 -222 b 533 -85 440 -125 482 -85 b 626 -174 584 -85 626 -125 b 533 -261 626 -222 584 -261 "},"Ǿ":{"ha":1067,"x_min":0,"x_max":0,"o":"m 136 12 l 211 121 b 78 505 128 211 78 342 b 534 1024 78 828 271 1024 b 779 954 625 1024 709 1000 l 845 1052 l 928 996 l 855 890 b 988 505 939 800 988 669 b 534 -14 988 182 795 -14 b 287 57 441 -14 357 11 l 218 -44 m 837 505 b 769 763 837 614 812 700 l 368 176 b 534 125 415 143 472 125 b 837 505 707 125 837 259 m 698 836 b 534 885 651 868 595 885 b 230 505 360 885 230 751 b 297 249 230 398 254 311 m 588 1339 l 743 1339 l 590 1111 l 472 1111 "},"Ο":{"ha":1067,"x_min":0,"x_max":0,"o":"m 988 505 b 534 -14 988 182 795 -14 b 78 505 271 -14 78 182 b 534 1024 78 828 271 1024 b 988 505 795 1024 988 828 m 837 505 b 534 885 837 751 707 885 b 230 505 360 885 230 751 b 534 125 230 259 360 125 b 837 505 707 125 837 259 "},"Ό":{"ha":1096,"x_min":0,"x_max":0,"o":"m 1029 505 b 574 -14 1029 182 836 -14 b 119 505 312 -14 119 182 b 574 1024 119 828 312 1024 b 1029 505 836 1024 1029 828 m 878 505 b 574 885 878 751 748 885 b 270 505 400 885 270 751 b 574 125 270 259 400 125 b 878 505 748 125 878 259 m 30 1076 l 176 1076 l 85 844 l -10 844 "},"Ὀ":{"ha":1133,"x_min":0,"x_max":0,"o":"m 1066 505 b 612 -14 1066 182 873 -14 b 156 505 349 -14 156 182 b 612 1024 156 828 349 1024 b 1066 505 873 1024 1066 828 m 915 505 b 612 885 915 751 785 885 b 308 505 437 885 308 751 b 612 125 308 259 437 125 b 915 505 785 125 915 259 m 166 952 b 45 765 166 871 121 805 l -10 814 b 45 956 29 851 45 895 l 45 1010 l 166 1010 "},"Ὁ":{"ha":1181,"x_min":0,"x_max":0,"o":"m 1114 505 b 659 -14 1114 182 920 -14 b 204 505 397 -14 204 182 b 659 1024 204 828 397 1024 b 1114 505 920 1024 1114 828 m 963 505 b 659 885 963 751 833 885 b 355 505 485 885 355 751 b 659 125 355 259 485 125 b 963 505 833 125 963 259 m 52 1010 l 173 1010 l 173 956 b 228 814 174 897 189 851 l 173 765 b 52 952 99 805 52 871 "},"Ὂ":{"ha":1398,"x_min":0,"x_max":0,"o":"m 1331 505 b 876 -14 1331 182 1137 -14 b 421 505 614 -14 421 182 b 876 1024 421 828 614 1024 b 1331 505 1137 1024 1331 828 m 1180 505 b 876 885 1180 751 1050 885 b 572 505 702 885 572 751 b 876 125 572 259 702 125 b 1180 505 1050 125 1180 259 m 171 955 b 45 765 171 876 125 809 l -9 807 b 47 959 27 848 47 894 l 47 1010 l 171 1010 m 424 781 l 360 781 l 202 996 l 202 1010 l 346 1010 l 424 791 "},"Ὃ":{"ha":1334,"x_min":0,"x_max":0,"o":"m 1267 505 b 812 -14 1267 182 1074 -14 b 357 505 550 -14 357 182 b 812 1024 357 828 550 1024 b 1267 505 1074 1024 1267 828 m 1116 505 b 812 885 1116 751 986 885 b 509 505 638 885 509 751 b 812 125 509 259 638 125 b 1116 505 986 125 1116 259 m -26 1010 l 96 1010 l 96 956 b 151 814 96 897 111 851 l 96 765 b -26 952 21 805 -26 871 m 366 781 l 302 781 l 145 996 l 145 1010 l 291 1010 l 366 793 "},"Ὄ":{"ha":1284,"x_min":0,"x_max":0,"o":"m 1217 505 b 763 -14 1217 182 1024 -14 b 307 505 500 -14 307 182 b 763 1024 307 828 500 1024 b 1217 505 1024 1024 1217 828 m 1066 505 b 763 885 1066 751 936 885 b 459 505 588 885 459 751 b 763 125 459 259 588 125 b 1066 505 936 125 1066 259 m 169 952 b 47 765 169 871 122 805 l -7 814 b 47 956 31 851 47 897 l 47 1010 l 169 1010 m 182 793 l 260 1010 l 404 1010 l 404 996 l 247 781 l 182 781 "},"Ὅ":{"ha":1300,"x_min":0,"x_max":0,"o":"m 1233 505 b 778 -14 1233 182 1040 -14 b 323 505 516 -14 323 182 b 778 1024 323 828 516 1024 b 1233 505 1040 1024 1233 828 m 1082 505 b 778 885 1082 751 952 885 b 474 505 604 885 474 751 b 778 125 474 259 604 125 b 1082 505 952 125 1082 259 m -8 1010 l 113 1010 l 113 956 b 168 814 113 895 131 851 l 113 765 b -8 952 39 804 -8 870 m 198 793 l 273 1010 l 419 1010 l 419 996 l 261 781 l 198 781 "},"Ὸ":{"ha":1187,"x_min":0,"x_max":0,"o":"m 1120 505 b 665 -14 1120 182 926 -14 b 210 505 402 -14 210 182 b 665 1024 210 828 402 1024 b 1120 505 926 1024 1120 828 m 969 505 b 665 885 969 751 838 885 b 361 505 491 885 361 751 b 665 125 361 259 491 125 b 969 505 838 125 969 259 m 148 779 l -9 996 l -9 1010 l 135 1010 l 212 794 l 212 779 "},"ϴ":{"ha":1067,"x_min":0,"x_max":0,"o":"m 988 505 b 534 -14 988 182 795 -14 b 78 505 271 -14 78 182 b 534 1024 78 828 271 1024 b 988 505 795 1024 988 828 m 534 125 b 834 436 690 125 812 234 b 526 441 706 386 617 414 b 232 454 440 467 354 494 b 534 125 249 241 372 125 m 836 558 b 534 885 818 770 694 885 b 234 576 377 885 256 777 b 539 570 361 624 449 597 b 836 558 625 544 713 517 "},"Ό":{"ha":1091,"x_min":0,"x_max":0,"o":"m 1024 505 b 570 -14 1024 182 831 -14 b 114 505 307 -14 114 182 b 570 1024 114 828 307 1024 b 1024 505 831 1024 1024 828 m 873 505 b 570 885 873 751 743 885 b 266 505 396 885 266 751 b 570 125 266 259 396 125 b 873 505 743 125 873 259 m 53 867 l 129 1083 l 288 1083 l 288 1069 l 130 852 l 53 852 "},"О":{"ha":1067,"x_min":0,"x_max":0,"o":"m 988 505 b 534 -14 988 182 795 -14 b 78 505 271 -14 78 182 b 534 1024 78 828 271 1024 b 988 505 795 1024 988 828 m 837 505 b 534 885 837 751 707 885 b 230 505 360 885 230 751 b 534 125 230 259 360 125 b 837 505 707 125 837 259 "},"Ӧ":{"ha":1067,"x_min":0,"x_max":0,"o":"m 988 505 b 534 -14 988 182 795 -14 b 78 505 271 -14 78 182 b 534 1024 78 828 271 1024 b 988 505 795 1024 988 828 m 837 505 b 534 885 837 751 707 885 b 230 505 360 885 230 751 b 534 125 230 259 360 125 b 837 505 707 125 837 259 m 389 1129 b 301 1215 342 1129 301 1169 b 389 1301 301 1264 342 1301 b 475 1215 438 1301 475 1264 b 389 1129 475 1169 438 1129 m 679 1129 b 591 1215 632 1129 591 1169 b 679 1301 591 1264 632 1301 b 765 1215 728 1301 765 1264 b 679 1129 765 1169 728 1129 "},"Ɵ":{"ha":1067,"x_min":0,"x_max":0,"o":"m 988 505 b 534 -14 988 182 795 -14 b 78 505 271 -14 78 182 b 534 1024 78 828 271 1024 b 988 505 795 1024 988 828 m 534 125 b 834 436 690 125 812 234 b 526 441 706 386 617 414 b 232 454 440 467 354 494 b 534 125 249 241 372 125 m 836 558 b 534 885 818 770 694 885 b 234 576 377 885 256 777 b 539 570 361 624 449 597 b 836 558 625 544 713 517 "},"Ө":{"ha":1067,"x_min":0,"x_max":0,"o":"m 988 505 b 534 -14 988 182 795 -14 b 78 505 271 -14 78 182 b 534 1024 78 828 271 1024 b 988 505 795 1024 988 828 m 534 125 b 834 436 690 125 812 234 b 526 441 706 386 617 414 b 232 454 440 467 354 494 b 534 125 249 241 372 125 m 836 558 b 534 885 818 770 694 885 b 234 576 377 885 256 777 b 539 570 361 624 449 597 b 836 558 625 544 713 517 "},"Ӫ":{"ha":1067,"x_min":0,"x_max":0,"o":"m 988 505 b 534 -14 988 182 795 -14 b 78 505 271 -14 78 182 b 534 1024 78 828 271 1024 b 988 505 795 1024 988 828 m 534 125 b 834 436 690 125 812 234 b 526 441 706 386 617 414 b 232 454 440 467 354 494 b 534 125 249 241 372 125 m 836 558 b 534 885 818 770 694 885 b 234 576 377 885 256 777 b 539 570 361 624 449 597 b 836 558 625 544 713 517 m 389 1129 b 301 1215 342 1129 301 1169 b 389 1301 301 1264 342 1301 b 475 1215 438 1301 475 1264 b 389 1129 475 1169 438 1129 m 679 1129 b 591 1215 632 1129 591 1169 b 679 1301 591 1264 632 1301 b 765 1215 728 1301 765 1264 b 679 1129 765 1169 728 1129 "},"Œ":{"ha":1354,"x_min":0,"x_max":0,"o":"m 529 0 b 78 505 263 0 78 194 b 529 1010 78 817 263 1010 l 1261 1010 l 1261 879 l 780 879 l 780 571 l 1228 571 l 1228 440 l 780 440 l 780 131 l 1267 131 l 1267 0 l 529 0 m 627 879 l 529 879 b 229 505 351 879 229 740 b 529 131 229 271 351 131 l 627 131 "},"P":{"ha":888,"x_min":0,"x_max":0,"o":"m 111 1010 l 471 1010 b 821 683 706 1010 821 869 b 471 355 821 497 705 355 l 263 355 l 263 0 l 111 0 m 457 484 b 667 683 606 484 667 569 b 455 879 667 798 606 879 l 263 879 l 263 484 "},"Ṕ":{"ha":888,"x_min":0,"x_max":0,"o":"m 111 1010 l 471 1010 b 821 683 706 1010 821 869 b 471 355 821 497 705 355 l 263 355 l 263 0 l 111 0 m 457 484 b 667 683 606 484 667 569 b 455 879 667 798 606 879 l 263 879 l 263 484 m 496 1339 l 651 1339 l 498 1111 l 380 1111 "},"Ṗ":{"ha":888,"x_min":0,"x_max":0,"o":"m 111 1010 l 471 1010 b 821 683 706 1010 821 869 b 471 355 821 497 705 355 l 263 355 l 263 0 l 111 0 m 457 484 b 667 683 606 484 667 569 b 455 879 667 798 606 879 l 263 879 l 263 484 m 441 1127 b 348 1215 390 1127 348 1166 b 441 1303 348 1263 390 1303 b 535 1215 492 1303 535 1263 b 441 1127 535 1166 492 1127 "},"Ҏ":{"ha":894,"x_min":0,"x_max":0,"o":"m 112 1010 l 472 1010 b 822 683 707 1010 822 869 b 699 419 822 572 781 477 l 765 316 l 675 257 l 601 372 b 472 355 563 361 520 355 l 265 355 l 265 0 l 112 0 m 619 541 b 669 683 654 576 669 626 b 456 879 669 798 607 879 l 265 879 l 265 484 l 458 484 b 524 491 482 484 504 486 l 455 597 l 545 654 "},"Ƥ":{"ha":1124,"x_min":0,"x_max":0,"o":"m 61 711 l 61 789 b 291 1010 61 916 145 1010 l 707 1010 b 1056 683 942 1010 1056 869 b 706 355 1056 497 941 355 l 499 355 l 499 0 l 347 0 l 347 879 l 293 879 b 201 756 213 879 201 818 l 201 711 m 692 484 b 903 683 841 484 903 569 b 690 879 903 798 841 879 l 499 879 l 499 484 "},"Ρ":{"ha":888,"x_min":0,"x_max":0,"o":"m 111 1010 l 471 1010 b 821 683 706 1010 821 869 b 471 355 821 497 705 355 l 263 355 l 263 0 l 111 0 m 457 484 b 667 683 606 484 667 569 b 455 879 667 798 606 879 l 263 879 l 263 484 "},"Ῥ":{"ha":1074,"x_min":0,"x_max":0,"o":"m 293 1010 l 653 1010 b 1003 683 888 1010 1003 869 b 653 355 1003 497 887 355 l 445 355 l 445 0 l 293 0 m 639 484 b 849 683 788 484 849 569 b 637 879 849 798 788 879 l 445 879 l 445 484 m 67 1010 l 188 1010 l 188 956 b 243 814 189 897 204 851 l 188 765 b 67 952 114 805 67 871 "},"Q":{"ha":1067,"x_min":0,"x_max":0,"o":"m 988 505 b 820 87 988 319 924 175 l 956 -91 l 800 -91 l 714 21 b 534 -14 659 -2 599 -14 b 78 505 271 -14 78 182 b 534 1024 78 828 271 1024 b 988 505 795 1024 988 828 m 632 327 l 729 201 b 837 505 797 264 837 367 b 534 885 837 751 707 885 b 230 505 360 885 230 751 b 534 125 230 259 360 125 b 626 139 566 125 597 130 l 482 327 "},"R":{"ha":896,"x_min":0,"x_max":0,"o":"m 111 1010 l 471 1010 b 821 693 705 1010 821 879 b 635 409 821 558 759 455 l 859 0 l 686 0 l 480 382 b 471 382 477 382 474 382 l 263 382 l 263 0 l 111 0 m 457 513 b 667 693 605 513 667 580 b 455 879 667 808 605 879 l 263 879 l 263 513 "},"Ŕ":{"ha":896,"x_min":0,"x_max":0,"o":"m 111 1010 l 471 1010 b 821 693 705 1010 821 879 b 635 409 821 558 759 455 l 859 0 l 686 0 l 480 382 b 471 382 477 382 474 382 l 263 382 l 263 0 l 111 0 m 457 513 b 667 693 605 513 667 580 b 455 879 667 808 605 879 l 263 879 l 263 513 m 497 1339 l 652 1339 l 499 1111 l 381 1111 "},"Ŗ":{"ha":896,"x_min":0,"x_max":0,"o":"m 111 1010 l 471 1010 b 821 693 705 1010 821 879 b 635 409 821 558 759 455 l 859 0 l 686 0 l 480 382 b 471 382 477 382 474 382 l 263 382 l 263 0 l 111 0 m 457 513 b 667 693 605 513 667 580 b 455 879 667 808 605 879 l 263 879 l 263 513 m 387 -80 l 532 -80 l 439 -331 l 330 -331 "},"Ř":{"ha":896,"x_min":0,"x_max":0,"o":"m 111 1010 l 471 1010 b 821 693 705 1010 821 879 b 635 409 821 558 759 455 l 859 0 l 686 0 l 480 382 b 471 382 477 382 474 382 l 263 382 l 263 0 l 111 0 m 457 513 b 667 693 605 513 667 580 b 455 879 667 808 605 879 l 263 879 l 263 513 m 442 1185 l 543 1317 l 677 1317 l 677 1310 l 503 1101 l 380 1101 l 207 1310 l 207 1317 l 340 1317 "},"Ȑ":{"ha":896,"x_min":0,"x_max":0,"o":"m 111 1010 l 471 1010 b 821 693 705 1010 821 879 b 635 409 821 558 759 455 l 859 0 l 686 0 l 480 382 b 471 382 477 382 474 382 l 263 382 l 263 0 l 111 0 m 457 513 b 667 693 605 513 667 580 b 455 879 667 808 605 879 l 263 879 l 263 513 m 401 1294 l 501 1339 l 604 1155 l 533 1111 m 146 1294 l 233 1339 l 376 1155 l 313 1111 "},"Ȓ":{"ha":896,"x_min":0,"x_max":0,"o":"m 111 1010 l 471 1010 b 821 693 705 1010 821 879 b 635 409 821 558 759 455 l 859 0 l 686 0 l 480 382 b 471 382 477 382 474 382 l 263 382 l 263 0 l 111 0 m 457 513 b 667 693 605 513 667 580 b 455 879 667 808 605 879 l 263 879 l 263 513 m 223 1135 b 441 1325 223 1245 307 1325 b 658 1135 576 1325 658 1245 l 538 1135 b 441 1230 537 1186 509 1230 b 345 1135 370 1230 344 1184 l 223 1135 "},"Ṙ":{"ha":896,"x_min":0,"x_max":0,"o":"m 111 1010 l 471 1010 b 821 693 705 1010 821 879 b 635 409 821 558 759 455 l 859 0 l 686 0 l 480 382 b 471 382 477 382 474 382 l 263 382 l 263 0 l 111 0 m 457 513 b 667 693 605 513 667 580 b 455 879 667 808 605 879 l 263 879 l 263 513 m 442 1127 b 349 1215 391 1127 349 1166 b 442 1303 349 1263 391 1303 b 535 1215 493 1303 535 1263 b 442 1127 535 1166 493 1127 "},"Ṛ":{"ha":896,"x_min":0,"x_max":0,"o":"m 111 1010 l 471 1010 b 821 693 705 1010 821 879 b 635 409 821 558 759 455 l 859 0 l 686 0 l 480 382 b 471 382 477 382 474 382 l 263 382 l 263 0 l 111 0 m 457 513 b 667 693 605 513 667 580 b 455 879 667 808 605 879 l 263 879 l 263 513 m 459 -261 b 366 -174 408 -261 366 -222 b 459 -85 366 -125 408 -85 b 552 -174 510 -85 552 -125 b 459 -261 552 -222 510 -261 "},"Ṝ":{"ha":896,"x_min":0,"x_max":0,"o":"m 111 1010 l 471 1010 b 821 693 705 1010 821 879 b 635 409 821 558 759 455 l 859 0 l 686 0 l 480 382 b 471 382 477 382 474 382 l 263 382 l 263 0 l 111 0 m 457 513 b 667 693 605 513 667 580 b 455 879 667 808 605 879 l 263 879 l 263 513 m 676 1159 l 208 1159 l 208 1263 l 676 1263 m 459 -261 b 366 -174 408 -261 366 -222 b 459 -85 366 -125 408 -85 b 552 -174 510 -85 552 -125 b 459 -261 552 -222 510 -261 "},"Ṟ":{"ha":896,"x_min":0,"x_max":0,"o":"m 111 1010 l 471 1010 b 821 693 705 1010 821 879 b 635 409 821 558 759 455 l 859 0 l 686 0 l 480 382 b 471 382 477 382 474 382 l 263 382 l 263 0 l 111 0 m 457 513 b 667 693 605 513 667 580 b 455 879 667 808 605 879 l 263 879 l 263 513 m 693 -228 l 225 -228 l 225 -125 l 693 -125 "},"℟":{"ha":899,"x_min":0,"x_max":0,"o":"m 622 988 b 822 693 756 943 822 834 b 636 409 822 558 760 455 l 860 0 l 687 0 l 481 382 b 472 382 478 382 475 382 l 465 382 l 302 -242 l 224 -228 l 384 382 l 264 382 l 264 0 l 112 0 l 112 1010 l 472 1010 b 547 1005 499 1010 524 1009 l 572 1096 l 356 1156 l 382 1229 l 663 1145 m 419 513 l 513 875 b 456 879 496 878 477 879 l 264 879 l 264 513 m 499 515 b 668 693 618 527 668 591 b 587 852 668 766 643 821 l 499 515 "},"℞":{"ha":987,"x_min":0,"x_max":0,"o":"m 466 1010 b 815 699 708 1010 815 875 b 628 415 815 556 745 463 l 693 326 l 783 448 l 923 448 l 764 228 l 932 0 l 775 0 l 687 122 l 599 0 l 455 0 l 616 220 l 495 387 l 263 387 l 263 0 l 111 0 l 111 1010 m 455 520 b 664 697 609 520 664 591 b 466 879 664 790 620 879 l 263 879 l 263 520 "},"Ɍ":{"ha":912,"x_min":0,"x_max":0,"o":"m 126 387 l 14 387 l 14 514 l 126 514 l 126 1010 l 486 1010 b 836 693 721 1010 836 879 b 651 409 836 558 774 455 l 874 0 l 701 0 l 496 382 b 486 382 492 382 489 382 l 279 382 l 279 0 l 126 0 m 472 513 b 683 693 620 513 683 580 b 470 879 683 808 620 879 l 279 879 l 279 513 "},"S":{"ha":894,"x_min":0,"x_max":0,"o":"m 662 745 b 453 892 651 838 569 892 b 250 743 328 892 250 829 b 434 589 250 646 355 609 l 532 563 b 823 279 660 532 823 461 b 449 -17 823 108 686 -17 b 71 279 222 -17 81 96 l 224 279 b 448 117 233 169 330 117 b 672 281 578 117 672 182 b 480 435 672 370 588 406 l 361 467 b 98 734 199 511 98 593 b 456 1024 98 908 254 1024 b 809 745 661 1024 804 907 l 662 745 "},"Ś":{"ha":894,"x_min":0,"x_max":0,"o":"m 662 745 b 453 892 651 838 569 892 b 250 743 328 892 250 829 b 434 589 250 646 355 609 l 532 563 b 823 279 660 532 823 461 b 449 -17 823 108 686 -17 b 71 279 222 -17 81 96 l 224 279 b 448 117 233 169 330 117 b 672 281 578 117 672 182 b 480 435 672 370 588 406 l 361 467 b 98 734 199 511 98 593 b 456 1024 98 908 254 1024 b 809 745 661 1024 804 907 l 662 745 m 501 1339 l 656 1339 l 503 1111 l 385 1111 "},"Ŝ":{"ha":894,"x_min":0,"x_max":0,"o":"m 662 745 b 453 892 651 838 569 892 b 250 743 328 892 250 829 b 434 589 250 646 355 609 l 532 563 b 823 279 660 532 823 461 b 449 -17 823 108 686 -17 b 71 279 222 -17 81 96 l 224 279 b 448 117 233 169 330 117 b 672 281 578 117 672 182 b 480 435 672 370 588 406 l 361 467 b 98 734 199 511 98 593 b 456 1024 98 908 254 1024 b 809 745 661 1024 804 907 l 662 745 m 212 1101 l 212 1108 l 385 1317 l 508 1317 l 681 1108 l 681 1101 l 547 1101 l 446 1233 l 345 1101 "},"Ş":{"ha":894,"x_min":0,"x_max":0,"o":"m 662 745 b 453 892 651 838 569 892 b 250 743 328 892 250 829 b 434 589 250 646 355 609 l 532 563 b 823 279 660 532 823 461 b 490 -15 823 118 702 -1 l 486 -36 b 593 -154 543 -45 593 -80 b 368 -304 594 -244 514 -304 l 365 -221 b 481 -159 434 -221 480 -203 b 377 -94 481 -115 450 -101 l 394 -14 b 71 279 200 2 80 111 l 224 279 b 448 117 233 169 330 117 b 672 281 578 117 672 182 b 480 435 672 370 588 406 l 361 467 b 98 734 199 511 98 593 b 456 1024 98 908 254 1024 b 809 745 661 1024 804 907 l 662 745 "},"Š":{"ha":894,"x_min":0,"x_max":0,"o":"m 662 745 b 453 892 651 838 569 892 b 250 743 328 892 250 829 b 434 589 250 646 355 609 l 532 563 b 823 279 660 532 823 461 b 449 -17 823 108 686 -17 b 71 279 222 -17 81 96 l 224 279 b 448 117 233 169 330 117 b 672 281 578 117 672 182 b 480 435 672 370 588 406 l 361 467 b 98 734 199 511 98 593 b 456 1024 98 908 254 1024 b 809 745 661 1024 804 907 l 662 745 m 446 1185 l 547 1317 l 681 1317 l 681 1310 l 508 1101 l 385 1101 l 212 1310 l 212 1317 l 345 1317 "},"Ș":{"ha":894,"x_min":0,"x_max":0,"o":"m 662 745 b 453 892 651 838 569 892 b 250 743 328 892 250 829 b 434 589 250 646 355 609 l 532 563 b 823 279 660 532 823 461 b 449 -17 823 108 686 -17 b 71 279 222 -17 81 96 l 224 279 b 448 117 233 169 330 117 b 672 281 578 117 672 182 b 480 435 672 370 588 406 l 361 467 b 98 734 199 511 98 593 b 456 1024 98 908 254 1024 b 809 745 661 1024 804 907 l 662 745 m 377 -94 l 521 -94 l 429 -346 l 320 -346 "},"Ṡ":{"ha":894,"x_min":0,"x_max":0,"o":"m 662 745 b 453 892 651 838 569 892 b 250 743 328 892 250 829 b 434 589 250 646 355 609 l 532 563 b 823 279 660 532 823 461 b 449 -17 823 108 686 -17 b 71 279 222 -17 81 96 l 224 279 b 448 117 233 169 330 117 b 672 281 578 117 672 182 b 480 435 672 370 588 406 l 361 467 b 98 734 199 511 98 593 b 456 1024 98 908 254 1024 b 809 745 661 1024 804 907 l 662 745 m 446 1127 b 353 1215 395 1127 353 1166 b 446 1303 353 1263 395 1303 b 540 1215 497 1303 540 1263 b 446 1127 540 1166 497 1127 "},"Ṣ":{"ha":894,"x_min":0,"x_max":0,"o":"m 662 745 b 453 892 651 838 569 892 b 250 743 328 892 250 829 b 434 589 250 646 355 609 l 532 563 b 823 279 660 532 823 461 b 449 -17 823 108 686 -17 b 71 279 222 -17 81 96 l 224 279 b 448 117 233 169 330 117 b 672 281 578 117 672 182 b 480 435 672 370 588 406 l 361 467 b 98 734 199 511 98 593 b 456 1024 98 908 254 1024 b 809 745 661 1024 804 907 l 662 745 m 448 -276 b 355 -188 397 -276 355 -236 b 448 -100 355 -140 397 -100 b 542 -188 499 -100 542 -140 b 448 -276 542 -236 499 -276 "},"Ṥ":{"ha":894,"x_min":0,"x_max":0,"o":"m 662 745 b 453 892 651 838 569 892 b 250 743 328 892 250 829 b 434 589 250 646 355 609 l 532 563 b 823 279 660 532 823 461 b 449 -17 823 108 686 -17 b 71 279 222 -17 81 96 l 224 279 b 448 117 233 169 330 117 b 672 281 578 117 672 182 b 480 435 672 370 588 406 l 361 467 b 98 734 199 511 98 593 b 456 1024 98 908 254 1024 b 809 745 661 1024 804 907 l 662 745 m 502 1295 l 650 1295 l 510 1117 l 405 1117 m 259 1312 b 342 1389 259 1355 291 1389 b 427 1312 398 1389 427 1353 b 342 1235 427 1270 398 1235 b 259 1312 289 1235 259 1272 "},"Ṧ":{"ha":894,"x_min":0,"x_max":0,"o":"m 662 745 b 453 892 651 838 569 892 b 250 743 328 892 250 829 b 434 589 250 646 355 609 l 532 563 b 823 279 660 532 823 461 b 449 -17 823 108 686 -17 b 71 279 222 -17 81 96 l 224 279 b 448 117 233 169 330 117 b 672 281 578 117 672 182 b 480 435 672 370 588 406 l 361 467 b 98 734 199 511 98 593 b 456 1024 98 908 254 1024 b 809 745 661 1024 804 907 l 662 745 m 447 1195 l 543 1277 l 680 1277 l 680 1265 l 497 1114 l 396 1114 l 215 1264 l 215 1277 l 351 1277 m 363 1381 b 446 1458 363 1425 395 1458 b 531 1381 501 1458 531 1424 b 446 1307 531 1339 500 1307 b 363 1381 395 1307 363 1339 "},"Ṩ":{"ha":894,"x_min":0,"x_max":0,"o":"m 662 745 b 453 892 651 838 569 892 b 250 743 328 892 250 829 b 434 589 250 646 355 609 l 532 563 b 823 279 660 532 823 461 b 449 -17 823 108 686 -17 b 71 279 222 -17 81 96 l 224 279 b 448 117 233 169 330 117 b 672 281 578 117 672 182 b 480 435 672 370 588 406 l 361 467 b 98 734 199 511 98 593 b 456 1024 98 908 254 1024 b 809 745 661 1024 804 907 l 662 745 m 446 1127 b 353 1215 395 1127 353 1166 b 446 1303 353 1263 395 1303 b 540 1215 497 1303 540 1263 b 446 1127 540 1166 497 1127 m 448 -276 b 355 -188 397 -276 355 -236 b 448 -100 355 -140 397 -100 b 542 -188 499 -100 542 -140 b 448 -276 542 -236 499 -276 "},"Ѕ":{"ha":894,"x_min":0,"x_max":0,"o":"m 662 745 b 453 892 651 838 569 892 b 250 743 328 892 250 829 b 434 589 250 646 355 609 l 532 563 b 823 279 660 532 823 461 b 449 -17 823 108 686 -17 b 71 279 222 -17 81 96 l 224 279 b 448 117 233 169 330 117 b 672 281 578 117 672 182 b 480 435 672 370 588 406 l 361 467 b 98 734 199 511 98 593 b 456 1024 98 908 254 1024 b 809 745 661 1024 804 907 l 662 745 "},"Ƨ":{"ha":894,"x_min":0,"x_max":0,"o":"m 85 745 b 437 1024 89 907 232 1024 b 796 734 640 1024 796 908 b 533 467 796 593 695 511 l 413 435 b 222 281 305 406 222 370 b 446 117 222 182 316 117 b 670 279 563 117 661 169 l 823 279 b 445 -17 813 96 671 -17 b 71 279 208 -17 71 108 b 362 563 71 461 233 532 l 460 589 b 644 743 539 609 644 646 b 441 892 644 829 565 892 b 232 745 325 892 243 838 "},"ẞ":{"ha":963,"x_min":0,"x_max":0,"o":"m 111 669 b 436 1024 111 899 227 1024 b 814 865 584 1024 711 953 l 589 579 b 892 287 779 564 892 454 b 546 -14 892 96 748 -14 b 346 22 481 -14 410 -2 l 392 147 b 543 114 431 131 482 114 b 732 289 663 114 732 181 b 523 466 732 455 578 466 l 426 466 l 426 580 l 622 833 b 441 895 578 864 521 895 b 263 669 304 895 263 789 l 263 0 l 111 0 "},"T":{"ha":904,"x_min":0,"x_max":0,"o":"m 61 1010 l 843 1010 l 843 879 l 528 879 l 528 0 l 376 0 l 376 879 l 61 879 "},"Ţ":{"ha":904,"x_min":0,"x_max":0,"o":"m 61 1010 l 843 1010 l 843 879 l 528 879 l 528 0 l 509 0 l 502 -36 b 609 -154 558 -45 609 -80 b 384 -304 609 -244 530 -304 l 381 -221 b 496 -159 449 -221 496 -203 b 393 -94 497 -115 465 -101 l 412 0 l 376 0 l 376 879 l 61 879 "},"Ť":{"ha":904,"x_min":0,"x_max":0,"o":"m 61 1010 l 843 1010 l 843 879 l 528 879 l 528 0 l 376 0 l 376 879 l 61 879 m 452 1185 l 553 1317 l 687 1317 l 687 1310 l 513 1101 l 391 1101 l 218 1310 l 218 1317 l 351 1317 "},"Ț":{"ha":904,"x_min":0,"x_max":0,"o":"m 61 1010 l 843 1010 l 843 879 l 528 879 l 528 0 l 376 0 l 376 879 l 61 879 m 380 -80 l 524 -80 l 432 -331 l 323 -331 "},"Ṫ":{"ha":904,"x_min":0,"x_max":0,"o":"m 61 1010 l 843 1010 l 843 879 l 528 879 l 528 0 l 376 0 l 376 879 l 61 879 m 452 1127 b 359 1215 401 1127 359 1166 b 452 1303 359 1263 401 1303 b 545 1215 503 1303 545 1263 b 452 1127 545 1166 503 1127 "},"Ṭ":{"ha":904,"x_min":0,"x_max":0,"o":"m 61 1010 l 843 1010 l 843 879 l 528 879 l 528 0 l 376 0 l 376 879 l 61 879 m 452 -261 b 359 -174 400 -261 359 -222 b 452 -85 359 -125 400 -85 b 545 -174 503 -85 545 -125 b 452 -261 545 -222 503 -261 "},"Ṯ":{"ha":904,"x_min":0,"x_max":0,"o":"m 61 1010 l 843 1010 l 843 879 l 528 879 l 528 0 l 376 0 l 376 879 l 61 879 m 686 -228 l 218 -228 l 218 -125 l 686 -125 "},"Ṱ":{"ha":904,"x_min":0,"x_max":0,"o":"m 61 1010 l 843 1010 l 843 879 l 528 879 l 528 0 l 376 0 l 376 879 l 61 879 m 218 -280 l 218 -272 l 391 -63 l 513 -63 l 687 -272 l 687 -280 l 553 -280 l 452 -147 l 351 -280 "},"Ƭ":{"ha":957,"x_min":0,"x_max":0,"o":"m 896 879 l 581 879 l 581 0 l 429 0 l 429 879 l 288 879 b 194 763 215 879 194 822 l 194 719 l 61 719 l 61 790 b 288 1010 61 923 145 1010 l 896 1010 "},"Ʈ":{"ha":904,"x_min":0,"x_max":0,"o":"m 61 1010 l 843 1010 l 843 879 l 528 879 l 528 -70 b 643 -157 528 -142 582 -157 l 682 -157 l 682 -284 l 605 -284 b 376 -71 487 -284 376 -222 l 376 879 l 61 879 "},"Ⱦ":{"ha":904,"x_min":0,"x_max":0,"o":"m 376 414 l 376 879 l 61 879 l 61 1010 l 581 1010 l 625 1138 l 743 1138 l 699 1010 l 843 1010 l 843 879 l 654 879 l 528 513 l 528 0 l 376 0 l 376 72 l 307 -128 l 189 -128 m 536 879 l 528 879 l 528 855 "},"Τ":{"ha":904,"x_min":0,"x_max":0,"o":"m 61 1010 l 843 1010 l 843 879 l 528 879 l 528 0 l 376 0 l 376 879 l 61 879 "},"U":{"ha":1024,"x_min":0,"x_max":0,"o":"m 913 1010 l 913 346 b 512 -17 913 134 754 -17 b 111 346 270 -17 111 134 l 111 1010 l 263 1010 l 263 358 b 512 122 263 221 359 122 b 761 358 666 122 761 221 l 761 1010 "},"Ư":{"ha":1204,"x_min":0,"x_max":0,"o":"m 1143 1063 b 913 763 1143 888 1081 783 l 913 346 b 512 -17 913 134 754 -17 b 111 346 270 -17 111 134 l 111 1010 l 263 1010 l 263 358 b 512 122 263 221 359 122 b 761 358 666 122 761 221 l 761 1010 l 913 1010 l 913 867 b 1021 1063 1001 887 1021 955 "},"Ù":{"ha":1024,"x_min":0,"x_max":0,"o":"m 913 1010 l 913 346 b 512 -17 913 134 754 -17 b 111 346 270 -17 111 134 l 111 1010 l 263 1010 l 263 358 b 512 122 263 221 359 122 b 761 358 666 122 761 221 l 761 1010 m 302 1339 l 458 1339 l 573 1111 l 455 1111 "},"Ú":{"ha":1024,"x_min":0,"x_max":0,"o":"m 913 1010 l 913 346 b 512 -17 913 134 754 -17 b 111 346 270 -17 111 134 l 111 1010 l 263 1010 l 263 358 b 512 122 263 221 359 122 b 761 358 666 122 761 221 l 761 1010 m 567 1339 l 722 1339 l 569 1111 l 451 1111 "},"Û":{"ha":1024,"x_min":0,"x_max":0,"o":"m 913 1010 l 913 346 b 512 -17 913 134 754 -17 b 111 346 270 -17 111 134 l 111 1010 l 263 1010 l 263 358 b 512 122 263 221 359 122 b 761 358 666 122 761 221 l 761 1010 m 278 1101 l 278 1108 l 451 1317 l 574 1317 l 747 1108 l 747 1101 l 614 1101 l 512 1233 l 411 1101 "},"Ü":{"ha":1024,"x_min":0,"x_max":0,"o":"m 913 1010 l 913 346 b 512 -17 913 134 754 -17 b 111 346 270 -17 111 134 l 111 1010 l 263 1010 l 263 358 b 512 122 263 221 359 122 b 761 358 666 122 761 221 l 761 1010 m 367 1129 b 280 1215 321 1129 280 1169 b 367 1301 280 1264 321 1301 b 454 1215 417 1301 454 1264 b 367 1129 454 1169 417 1129 m 657 1129 b 570 1215 611 1129 570 1169 b 657 1301 570 1264 611 1301 b 744 1215 707 1301 744 1264 b 657 1129 744 1169 707 1129 "},"Ũ":{"ha":1024,"x_min":0,"x_max":0,"o":"m 913 1010 l 913 346 b 512 -17 913 134 754 -17 b 111 346 270 -17 111 134 l 111 1010 l 263 1010 l 263 358 b 512 122 263 221 359 122 b 761 358 666 122 761 221 l 761 1010 m 264 1105 b 418 1284 264 1214 331 1284 b 598 1218 498 1284 532 1218 b 662 1293 636 1218 662 1250 l 760 1287 b 606 1110 760 1177 692 1110 b 426 1177 513 1110 496 1177 b 363 1102 390 1177 363 1145 "},"Ū":{"ha":1024,"x_min":0,"x_max":0,"o":"m 913 1010 l 913 346 b 512 -17 913 134 754 -17 b 111 346 270 -17 111 134 l 111 1010 l 263 1010 l 263 358 b 512 122 263 221 359 122 b 761 358 666 122 761 221 l 761 1010 m 746 1159 l 278 1159 l 278 1263 l 746 1263 "},"Ŭ":{"ha":1024,"x_min":0,"x_max":0,"o":"m 913 1010 l 913 346 b 512 -17 913 134 754 -17 b 111 346 270 -17 111 134 l 111 1010 l 263 1010 l 263 358 b 512 122 263 221 359 122 b 761 358 666 122 761 221 l 761 1010 m 730 1267 b 512 1079 730 1156 646 1079 b 295 1267 380 1079 295 1156 l 416 1267 b 512 1173 416 1217 442 1173 b 609 1267 581 1173 609 1217 "},"Ů":{"ha":1024,"x_min":0,"x_max":0,"o":"m 913 1010 l 913 346 b 512 -17 913 134 754 -17 b 111 346 270 -17 111 134 l 111 1010 l 263 1010 l 263 358 b 512 122 263 221 359 122 b 761 358 666 122 761 221 l 761 1010 m 512 1073 b 350 1226 423 1073 350 1142 b 512 1380 350 1311 423 1380 b 675 1226 602 1380 675 1311 b 512 1073 675 1142 602 1073 m 512 1151 b 589 1226 555 1152 589 1185 b 512 1301 589 1268 555 1302 b 435 1226 470 1301 435 1268 b 512 1151 435 1185 470 1151 "},"Ű":{"ha":1024,"x_min":0,"x_max":0,"o":"m 913 1010 l 913 346 b 512 -17 913 134 754 -17 b 111 346 270 -17 111 134 l 111 1010 l 263 1010 l 263 358 b 512 122 263 221 359 122 b 761 358 666 122 761 221 l 761 1010 m 697 1302 l 843 1302 l 662 1094 l 544 1094 m 442 1302 l 586 1302 l 435 1094 l 325 1094 "},"Ų":{"ha":1024,"x_min":0,"x_max":0,"o":"m 913 1010 l 913 346 b 603 -9 913 162 794 24 b 508 -134 550 -45 508 -84 b 558 -182 508 -165 521 -182 b 620 -167 585 -182 607 -173 l 633 -260 b 525 -290 610 -274 574 -290 b 377 -160 442 -290 382 -244 b 439 -12 373 -109 392 -57 b 111 346 239 15 111 156 l 111 1010 l 263 1010 l 263 358 b 512 122 263 221 359 122 b 761 358 666 122 761 221 l 761 1010 "},"Ǔ":{"ha":1024,"x_min":0,"x_max":0,"o":"m 913 1010 l 913 346 b 512 -17 913 134 754 -17 b 111 346 270 -17 111 134 l 111 1010 l 263 1010 l 263 358 b 512 122 263 221 359 122 b 761 358 666 122 761 221 l 761 1010 m 512 1185 l 614 1317 l 747 1317 l 747 1310 l 574 1101 l 451 1101 l 278 1310 l 278 1317 l 411 1317 "},"Ǖ":{"ha":1024,"x_min":0,"x_max":0,"o":"m 913 1010 l 913 346 b 512 -17 913 134 754 -17 b 111 346 270 -17 111 134 l 111 1010 l 263 1010 l 263 358 b 512 122 263 221 359 122 b 761 358 666 122 761 221 l 761 1010 m 746 1412 l 278 1412 l 278 1515 l 746 1515 m 367 1129 b 280 1215 321 1129 280 1169 b 367 1301 280 1264 321 1301 b 454 1215 417 1301 454 1264 b 367 1129 454 1169 417 1129 m 657 1129 b 570 1215 611 1129 570 1169 b 657 1301 570 1264 611 1301 b 744 1215 707 1301 744 1264 b 657 1129 744 1169 707 1129 "},"Ǘ":{"ha":1024,"x_min":0,"x_max":0,"o":"m 913 1010 l 913 346 b 512 -17 913 134 754 -17 b 111 346 270 -17 111 134 l 111 1010 l 263 1010 l 263 358 b 512 122 263 221 359 122 b 761 358 666 122 761 221 l 761 1010 m 368 1085 b 283 1169 323 1085 283 1124 b 368 1254 283 1217 323 1254 b 454 1169 417 1254 454 1217 b 368 1085 454 1124 417 1085 m 655 1085 b 569 1169 609 1085 569 1124 b 655 1254 569 1217 609 1254 b 740 1169 703 1254 740 1217 b 655 1085 740 1124 703 1085 m 592 1480 l 746 1480 l 570 1322 l 451 1322 "},"Ǚ":{"ha":1024,"x_min":0,"x_max":0,"o":"m 913 1010 l 913 346 b 512 -17 913 134 754 -17 b 111 346 270 -17 111 134 l 111 1010 l 263 1010 l 263 358 b 512 122 263 221 359 122 b 761 358 666 122 761 221 l 761 1010 m 511 1346 l 607 1428 l 744 1428 l 744 1417 l 563 1266 l 460 1266 l 279 1416 l 279 1428 l 415 1428 m 584 1194 b 669 1271 584 1236 616 1271 b 752 1194 721 1271 752 1236 b 669 1117 752 1153 722 1117 b 584 1194 616 1117 584 1151 m 273 1195 b 355 1272 273 1238 303 1272 b 439 1194 409 1272 439 1238 b 356 1119 439 1151 408 1119 b 273 1195 302 1119 273 1153 "},"Ǜ":{"ha":1024,"x_min":0,"x_max":0,"o":"m 913 1010 l 913 346 b 512 -17 913 134 754 -17 b 111 346 270 -17 111 134 l 111 1010 l 263 1010 l 263 358 b 512 122 263 221 359 122 b 761 358 666 122 761 221 l 761 1010 m 272 1195 b 355 1272 272 1238 303 1272 b 439 1194 408 1272 439 1238 b 356 1119 439 1151 408 1119 b 272 1195 302 1119 272 1153 m 584 1194 b 669 1271 584 1236 616 1271 b 752 1194 721 1271 752 1236 b 669 1117 752 1153 722 1117 b 584 1194 616 1117 584 1151 m 567 1244 l 472 1244 l 348 1390 l 480 1390 "},"Ȕ":{"ha":1024,"x_min":0,"x_max":0,"o":"m 913 1010 l 913 346 b 512 -17 913 134 754 -17 b 111 346 270 -17 111 134 l 111 1010 l 263 1010 l 263 358 b 512 122 263 221 359 122 b 761 358 666 122 761 221 l 761 1010 m 472 1294 l 571 1339 l 674 1155 l 603 1111 m 217 1294 l 303 1339 l 446 1155 l 383 1111 "},"Ȗ":{"ha":1024,"x_min":0,"x_max":0,"o":"m 913 1010 l 913 346 b 512 -17 913 134 754 -17 b 111 346 270 -17 111 134 l 111 1010 l 263 1010 l 263 358 b 512 122 263 221 359 122 b 761 358 666 122 761 221 l 761 1010 m 293 1135 b 511 1325 293 1245 377 1325 b 728 1135 646 1325 728 1245 l 608 1135 b 511 1230 607 1186 580 1230 b 415 1135 440 1230 414 1184 l 293 1135 "},"Ṳ":{"ha":1024,"x_min":0,"x_max":0,"o":"m 913 1010 l 913 346 b 512 -17 913 134 754 -17 b 111 346 270 -17 111 134 l 111 1010 l 263 1010 l 263 358 b 512 122 263 221 359 122 b 761 358 666 122 761 221 l 761 1010 m 369 -271 b 276 -183 318 -271 276 -232 b 369 -95 276 -135 318 -95 b 463 -183 420 -95 463 -135 b 369 -271 463 -232 420 -271 m 682 -271 b 589 -183 631 -271 589 -232 b 682 -95 589 -135 631 -95 b 775 -183 733 -95 775 -135 b 682 -271 775 -232 733 -271 "},"Ṵ":{"ha":1024,"x_min":0,"x_max":0,"o":"m 913 1010 l 913 346 b 512 -17 913 134 754 -17 b 111 346 270 -17 111 134 l 111 1010 l 263 1010 l 263 358 b 512 122 263 221 359 122 b 761 358 666 122 761 221 l 761 1010 m 300 -264 b 453 -84 300 -155 366 -84 b 633 -151 534 -84 567 -151 b 698 -75 671 -151 697 -118 l 795 -82 b 642 -259 795 -192 728 -258 b 462 -192 548 -259 532 -192 b 399 -267 425 -192 399 -224 "},"Ṷ":{"ha":1024,"x_min":0,"x_max":0,"o":"m 913 1010 l 913 346 b 512 -17 913 134 754 -17 b 111 346 270 -17 111 134 l 111 1010 l 263 1010 l 263 358 b 512 122 263 221 359 122 b 761 358 666 122 761 221 l 761 1010 m 278 -290 l 278 -282 l 451 -73 l 574 -73 l 747 -282 l 747 -290 l 614 -290 l 512 -157 l 411 -290 "},"Ṹ":{"ha":1024,"x_min":0,"x_max":0,"o":"m 913 1010 l 913 346 b 512 -17 913 134 754 -17 b 111 346 270 -17 111 134 l 111 1010 l 263 1010 l 263 358 b 512 122 263 221 359 122 b 761 358 666 122 761 221 l 761 1010 m 268 1102 b 419 1278 268 1209 334 1278 b 597 1213 499 1278 532 1213 b 661 1286 635 1213 660 1244 l 757 1280 b 605 1107 757 1173 690 1108 b 428 1173 513 1107 497 1173 b 366 1099 392 1173 366 1141 m 580 1480 l 733 1480 l 557 1322 l 438 1322 "},"Ṻ":{"ha":1024,"x_min":0,"x_max":0,"o":"m 913 1010 l 913 346 b 512 -17 913 134 754 -17 b 111 346 270 -17 111 134 l 111 1010 l 263 1010 l 263 358 b 512 122 263 221 359 122 b 761 358 666 122 761 221 l 761 1010 m 746 1126 l 278 1126 l 278 1233 l 746 1233 m 584 1373 b 669 1450 584 1417 616 1450 b 752 1373 722 1450 752 1415 b 669 1298 752 1330 720 1298 b 584 1373 616 1298 584 1330 m 272 1374 b 356 1451 272 1415 302 1451 b 439 1374 408 1451 439 1417 b 355 1299 439 1331 408 1299 b 272 1374 303 1299 272 1331 "},"Ụ":{"ha":1024,"x_min":0,"x_max":0,"o":"m 913 1010 l 913 346 b 512 -17 913 134 754 -17 b 111 346 270 -17 111 134 l 111 1010 l 263 1010 l 263 358 b 512 122 263 221 359 122 b 761 358 666 122 761 221 l 761 1010 m 512 -271 b 419 -183 461 -271 419 -232 b 512 -95 419 -135 461 -95 b 605 -183 563 -95 605 -135 b 512 -271 605 -232 563 -271 "},"Ủ":{"ha":1024,"x_min":0,"x_max":0,"o":"m 913 1010 l 913 346 b 512 -17 913 134 754 -17 b 111 346 270 -17 111 134 l 111 1010 l 263 1010 l 263 358 b 512 122 263 221 359 122 b 761 358 666 122 761 221 l 761 1010 m 456 1115 l 452 1215 b 547 1263 521 1219 547 1234 b 443 1312 547 1299 502 1312 l 448 1394 b 675 1263 597 1394 676 1343 b 572 1162 676 1198 624 1170 l 572 1115 "},"Ứ":{"ha":1204,"x_min":0,"x_max":0,"o":"m 1143 1063 b 913 763 1143 888 1081 783 l 913 346 b 512 -17 913 134 754 -17 b 111 346 270 -17 111 134 l 111 1010 l 263 1010 l 263 358 b 512 122 263 221 359 122 b 761 358 666 122 761 221 l 761 1010 l 913 1010 l 913 867 b 1021 1063 1001 887 1021 955 m 567 1339 l 722 1339 l 569 1111 l 451 1111 "},"Ừ":{"ha":1204,"x_min":0,"x_max":0,"o":"m 1143 1063 b 913 763 1143 888 1081 783 l 913 346 b 512 -17 913 134 754 -17 b 111 346 270 -17 111 134 l 111 1010 l 263 1010 l 263 358 b 512 122 263 221 359 122 b 761 358 666 122 761 221 l 761 1010 l 913 1010 l 913 867 b 1021 1063 1001 887 1021 955 m 302 1339 l 458 1339 l 573 1111 l 455 1111 "},"Ử":{"ha":1204,"x_min":0,"x_max":0,"o":"m 1143 1063 b 913 763 1143 888 1081 783 l 913 346 b 512 -17 913 134 754 -17 b 111 346 270 -17 111 134 l 111 1010 l 263 1010 l 263 358 b 512 122 263 221 359 122 b 761 358 666 122 761 221 l 761 1010 l 913 1010 l 913 867 b 1021 1063 1001 887 1021 955 m 456 1115 l 452 1215 b 547 1263 521 1219 547 1234 b 443 1312 547 1299 502 1312 l 448 1394 b 675 1263 597 1394 676 1343 b 572 1162 676 1198 624 1170 l 572 1115 "},"Ữ":{"ha":1204,"x_min":0,"x_max":0,"o":"m 1143 1063 b 913 763 1143 888 1081 783 l 913 346 b 512 -17 913 134 754 -17 b 111 346 270 -17 111 134 l 111 1010 l 263 1010 l 263 358 b 512 122 263 221 359 122 b 761 358 666 122 761 221 l 761 1010 l 913 1010 l 913 867 b 1021 1063 1001 887 1021 955 m 264 1105 b 418 1284 264 1214 331 1284 b 598 1218 498 1284 532 1218 b 662 1293 636 1218 662 1250 l 760 1287 b 606 1110 760 1177 692 1110 b 426 1177 513 1110 496 1177 b 363 1102 390 1177 363 1145 "},"Ự":{"ha":1204,"x_min":0,"x_max":0,"o":"m 1143 1063 b 913 763 1143 888 1081 783 l 913 346 b 512 -17 913 134 754 -17 b 111 346 270 -17 111 134 l 111 1010 l 263 1010 l 263 358 b 512 122 263 221 359 122 b 761 358 666 122 761 221 l 761 1010 l 913 1010 l 913 867 b 1021 1063 1001 887 1021 955 m 512 -271 b 419 -183 461 -271 419 -232 b 512 -95 419 -135 461 -95 b 605 -183 563 -95 605 -135 b 512 -271 605 -232 563 -271 "},"Ʉ":{"ha":1039,"x_min":0,"x_max":0,"o":"m 1043 487 l 922 487 l 922 346 b 520 -17 922 134 763 -17 b 119 346 278 -17 119 134 l 119 487 l -5 487 l -5 582 l 119 582 l 119 1010 l 272 1010 l 272 582 l 769 582 l 769 1010 l 922 1010 l 922 582 l 1043 582 m 272 487 l 272 358 b 520 122 272 221 367 122 b 769 358 674 122 769 221 l 769 487 "},"V":{"ha":972,"x_min":0,"x_max":0,"o":"m 480 187 l 492 187 l 773 1010 l 938 1010 l 574 0 l 398 0 l 35 1010 l 199 1010 "},"Ṽ":{"ha":972,"x_min":0,"x_max":0,"o":"m 480 187 l 492 187 l 773 1010 l 938 1010 l 574 0 l 398 0 l 35 1010 l 199 1010 m 239 1105 b 392 1284 239 1214 305 1284 b 572 1218 472 1284 506 1218 b 637 1293 610 1218 636 1250 l 734 1287 b 581 1110 734 1177 667 1110 b 400 1177 487 1110 471 1177 b 338 1102 364 1177 338 1145 "},"Ṿ":{"ha":972,"x_min":0,"x_max":0,"o":"m 480 187 l 492 187 l 773 1010 l 938 1010 l 574 0 l 398 0 l 35 1010 l 199 1010 m 486 -261 b 393 -174 435 -261 393 -222 b 486 -85 393 -125 435 -85 b 579 -174 537 -85 579 -125 b 486 -261 579 -222 537 -261 "},"W":{"ha":1358,"x_min":0,"x_max":0,"o":"m 29 1010 l 189 1010 l 386 228 l 395 228 l 600 1010 l 759 1010 l 963 227 l 973 227 l 1169 1010 l 1330 1010 l 1049 0 l 896 0 l 683 757 l 675 757 l 463 0 l 309 0 "},"Ŵ":{"ha":1358,"x_min":0,"x_max":0,"o":"m 29 1010 l 189 1010 l 386 228 l 395 228 l 600 1010 l 759 1010 l 963 227 l 973 227 l 1169 1010 l 1330 1010 l 1049 0 l 896 0 l 683 757 l 675 757 l 463 0 l 309 0 m 444 1101 l 444 1108 l 618 1317 l 740 1317 l 914 1108 l 914 1101 l 780 1101 l 679 1233 l 578 1101 "},"Ẁ":{"ha":1358,"x_min":0,"x_max":0,"o":"m 29 1010 l 189 1010 l 386 228 l 395 228 l 600 1010 l 759 1010 l 963 227 l 973 227 l 1169 1010 l 1330 1010 l 1049 0 l 896 0 l 683 757 l 675 757 l 463 0 l 309 0 m 470 1339 l 625 1339 l 740 1111 l 622 1111 "},"Ẃ":{"ha":1358,"x_min":0,"x_max":0,"o":"m 29 1010 l 189 1010 l 386 228 l 395 228 l 600 1010 l 759 1010 l 963 227 l 973 227 l 1169 1010 l 1330 1010 l 1049 0 l 896 0 l 683 757 l 675 757 l 463 0 l 309 0 m 733 1339 l 889 1339 l 736 1111 l 618 1111 "},"Ẅ":{"ha":1358,"x_min":0,"x_max":0,"o":"m 29 1010 l 189 1010 l 386 228 l 395 228 l 600 1010 l 759 1010 l 963 227 l 973 227 l 1169 1010 l 1330 1010 l 1049 0 l 896 0 l 683 757 l 675 757 l 463 0 l 309 0 m 534 1129 b 447 1215 488 1129 447 1169 b 534 1301 447 1264 488 1301 b 621 1215 583 1301 621 1264 b 534 1129 621 1169 583 1129 m 824 1129 b 737 1215 778 1129 737 1169 b 824 1301 737 1264 778 1301 b 911 1215 873 1301 911 1264 b 824 1129 911 1169 873 1129 "},"Ẇ":{"ha":1358,"x_min":0,"x_max":0,"o":"m 29 1010 l 189 1010 l 386 228 l 395 228 l 600 1010 l 759 1010 l 963 227 l 973 227 l 1169 1010 l 1330 1010 l 1049 0 l 896 0 l 683 757 l 675 757 l 463 0 l 309 0 m 679 1127 b 586 1215 628 1127 586 1166 b 679 1303 586 1263 628 1303 b 772 1215 730 1303 772 1263 b 679 1127 772 1166 730 1127 "},"Ẉ":{"ha":1358,"x_min":0,"x_max":0,"o":"m 29 1010 l 189 1010 l 386 228 l 395 228 l 600 1010 l 759 1010 l 963 227 l 973 227 l 1169 1010 l 1330 1010 l 1049 0 l 896 0 l 683 757 l 675 757 l 463 0 l 309 0 m 679 -255 b 586 -167 628 -255 586 -216 b 679 -79 586 -119 628 -79 b 772 -167 730 -79 772 -119 b 679 -255 772 -216 730 -255 "},"X":{"ha":925,"x_min":0,"x_max":0,"o":"m 459 615 l 467 615 l 708 1010 l 885 1010 l 570 505 l 887 0 l 709 0 l 467 390 l 459 390 l 216 0 l 38 0 l 361 505 l 40 1010 l 217 1010 "},"Ẋ":{"ha":925,"x_min":0,"x_max":0,"o":"m 459 615 l 467 615 l 708 1010 l 885 1010 l 570 505 l 887 0 l 709 0 l 467 390 l 459 390 l 216 0 l 38 0 l 361 505 l 40 1010 l 217 1010 m 463 1127 b 369 1215 411 1127 369 1166 b 463 1303 369 1263 411 1303 b 556 1215 513 1303 556 1263 b 463 1127 556 1166 513 1127 "},"Ẍ":{"ha":925,"x_min":0,"x_max":0,"o":"m 459 615 l 467 615 l 708 1010 l 885 1010 l 570 505 l 887 0 l 709 0 l 467 390 l 459 390 l 216 0 l 38 0 l 361 505 l 40 1010 l 217 1010 m 318 1129 b 230 1215 271 1129 230 1169 b 318 1301 230 1264 271 1301 b 404 1215 367 1301 404 1264 b 318 1129 404 1169 367 1129 m 608 1129 b 520 1215 561 1129 520 1169 b 608 1301 520 1264 561 1301 b 694 1215 657 1301 694 1264 b 608 1129 694 1169 657 1129 "},"Ҳ":{"ha":925,"x_min":0,"x_max":0,"o":"m 459 615 l 467 615 l 708 1010 l 885 1010 l 570 505 l 811 121 l 933 121 l 933 -244 l 787 -244 l 787 0 l 709 0 l 467 390 l 459 390 l 216 0 l 38 0 l 361 505 l 40 1010 l 217 1010 "},"Ӽ":{"ha":925,"x_min":0,"x_max":0,"o":"m 459 615 l 467 615 l 708 1010 l 885 1010 l 570 505 l 803 133 l 939 133 l 939 -47 b 709 -296 939 -198 857 -296 b 625 -286 679 -296 654 -294 l 635 -158 b 701 -167 650 -164 685 -167 b 793 -47 755 -167 793 -124 l 793 0 l 709 0 l 467 390 l 459 390 l 216 0 l 38 0 l 361 505 l 40 1010 l 217 1010 "},"Χ":{"ha":925,"x_min":0,"x_max":0,"o":"m 459 615 l 467 615 l 708 1010 l 885 1010 l 570 505 l 887 0 l 709 0 l 467 390 l 459 390 l 216 0 l 38 0 l 361 505 l 40 1010 l 217 1010 "},"Y":{"ha":951,"x_min":0,"x_max":0,"o":"m 206 1010 l 470 551 l 481 551 l 745 1010 l 918 1010 l 551 397 l 551 0 l 400 0 l 400 397 l 33 1010 "},"Ƴ":{"ha":1019,"x_min":0,"x_max":0,"o":"m 208 1010 l 481 551 l 493 551 l 702 901 b 994 1001 774 1021 888 1047 l 958 882 b 827 833 904 902 863 892 l 563 407 l 563 0 l 411 0 l 411 407 l 37 1010 "},"Ý":{"ha":951,"x_min":0,"x_max":0,"o":"m 206 1010 l 470 551 l 481 551 l 745 1010 l 918 1010 l 551 397 l 551 0 l 400 0 l 400 397 l 33 1010 m 530 1339 l 686 1339 l 533 1111 l 415 1111 "},"Ŷ":{"ha":951,"x_min":0,"x_max":0,"o":"m 206 1010 l 470 551 l 481 551 l 745 1010 l 918 1010 l 551 397 l 551 0 l 400 0 l 400 397 l 33 1010 m 241 1101 l 241 1108 l 414 1317 l 537 1317 l 710 1108 l 710 1101 l 577 1101 l 475 1233 l 374 1101 "},"Ÿ":{"ha":951,"x_min":0,"x_max":0,"o":"m 206 1010 l 470 551 l 481 551 l 745 1010 l 918 1010 l 551 397 l 551 0 l 400 0 l 400 397 l 33 1010 m 330 1129 b 243 1215 284 1129 243 1169 b 330 1301 243 1264 284 1301 b 417 1215 380 1301 417 1264 b 330 1129 417 1169 380 1129 m 620 1129 b 533 1215 574 1129 533 1169 b 620 1301 533 1264 574 1301 b 707 1215 670 1301 707 1264 b 620 1129 707 1169 670 1129 "},"Ȳ":{"ha":951,"x_min":0,"x_max":0,"o":"m 206 1010 l 470 551 l 481 551 l 745 1010 l 918 1010 l 551 397 l 551 0 l 400 0 l 400 397 l 33 1010 m 710 1159 l 242 1159 l 242 1263 l 710 1263 "},"Ẏ":{"ha":951,"x_min":0,"x_max":0,"o":"m 206 1010 l 470 551 l 481 551 l 745 1010 l 918 1010 l 551 397 l 551 0 l 400 0 l 400 397 l 33 1010 m 475 1127 b 382 1215 424 1127 382 1166 b 475 1303 382 1263 424 1303 b 569 1215 526 1303 569 1263 b 475 1127 569 1166 526 1127 "},"Ỳ":{"ha":951,"x_min":0,"x_max":0,"o":"m 206 1010 l 470 551 l 481 551 l 745 1010 l 918 1010 l 551 397 l 551 0 l 400 0 l 400 397 l 33 1010 m 266 1339 l 421 1339 l 536 1111 l 418 1111 "},"Ỵ":{"ha":951,"x_min":0,"x_max":0,"o":"m 206 1010 l 470 551 l 481 551 l 745 1010 l 918 1010 l 551 397 l 551 0 l 400 0 l 400 397 l 33 1010 m 475 -261 b 382 -174 424 -261 382 -222 b 475 -85 382 -125 424 -85 b 569 -174 526 -85 569 -125 b 475 -261 569 -222 526 -261 "},"Ỷ":{"ha":951,"x_min":0,"x_max":0,"o":"m 206 1010 l 470 551 l 481 551 l 745 1010 l 918 1010 l 551 397 l 551 0 l 400 0 l 400 397 l 33 1010 m 419 1115 l 415 1215 b 510 1263 485 1219 511 1234 b 407 1312 511 1299 465 1312 l 411 1394 b 639 1263 560 1394 639 1343 b 536 1162 639 1198 587 1170 l 536 1115 "},"Ỹ":{"ha":951,"x_min":0,"x_max":0,"o":"m 206 1010 l 470 551 l 481 551 l 745 1010 l 918 1010 l 551 397 l 551 0 l 400 0 l 400 397 l 33 1010 m 228 1105 b 381 1284 228 1214 294 1284 b 561 1218 462 1284 495 1218 b 626 1293 599 1218 625 1250 l 723 1287 b 570 1110 723 1177 656 1110 b 390 1177 476 1110 460 1177 b 327 1102 353 1177 327 1145 "},"Ɏ":{"ha":954,"x_min":0,"x_max":0,"o":"m 947 711 l 739 711 l 551 397 l 551 0 l 400 0 l 400 397 l 212 711 l 7 711 l 7 802 l 157 802 l 33 1010 l 206 1010 l 326 802 l 625 802 l 745 1010 l 918 1010 l 794 802 l 947 802 m 470 551 l 481 551 l 573 711 l 378 711 "},"Υ":{"ha":951,"x_min":0,"x_max":0,"o":"m 206 1010 l 470 551 l 481 551 l 745 1010 l 918 1010 l 551 397 l 551 0 l 400 0 l 400 397 l 33 1010 "},"Ύ":{"ha":1204,"x_min":0,"x_max":0,"o":"m 437 1010 l 701 551 l 712 551 l 976 1010 l 1149 1010 l 782 397 l 782 0 l 630 0 l 630 397 l 264 1010 m 69 1076 l 216 1076 l 124 844 l 29 844 "},"Ϋ":{"ha":951,"x_min":0,"x_max":0,"o":"m 206 1010 l 470 551 l 481 551 l 745 1010 l 918 1010 l 551 397 l 551 0 l 400 0 l 400 397 l 33 1010 m 330 1129 b 243 1215 284 1129 243 1169 b 330 1301 243 1264 284 1301 b 417 1215 380 1301 417 1264 b 330 1129 417 1169 380 1129 m 620 1129 b 533 1215 574 1129 533 1169 b 620 1301 533 1264 574 1301 b 707 1215 670 1301 707 1264 b 620 1129 707 1169 670 1129 "},"Ὑ":{"ha":1178,"x_min":0,"x_max":0,"o":"m 410 1010 l 674 551 l 685 551 l 949 1010 l 1122 1010 l 756 397 l 756 0 l 604 0 l 604 397 l 237 1010 m 42 1010 l 164 1010 l 164 956 b 218 814 164 897 180 851 l 163 765 b 42 952 89 805 42 871 "},"Ὓ":{"ha":1391,"x_min":0,"x_max":0,"o":"m 623 1010 l 887 551 l 898 551 l 1162 1010 l 1335 1010 l 969 397 l 969 0 l 817 0 l 817 397 l 450 1010 m 39 1010 l 161 1010 l 161 956 b 216 814 161 897 176 851 l 161 765 b 39 952 85 805 39 871 m 431 781 l 367 781 l 210 996 l 210 1010 l 355 1010 l 431 793 "},"Ὕ":{"ha":1466,"x_min":0,"x_max":0,"o":"m 699 1010 l 963 551 l 974 551 l 1237 1010 l 1411 1010 l 1044 397 l 1044 0 l 892 0 l 892 397 l 526 1010 m 29 1010 l 150 1010 l 150 956 b 204 814 150 895 167 851 l 149 765 b 29 952 76 804 29 870 m 234 793 l 310 1010 l 455 1010 l 455 996 l 297 781 l 234 781 "},"Ὗ":{"ha":1370,"x_min":0,"x_max":0,"o":"m 603 1010 l 867 551 l 877 551 l 1141 1010 l 1314 1010 l 948 397 l 948 0 l 796 0 l 796 397 l 430 1010 m 414 1152 b 300 1030 414 1087 367 1030 b 145 1078 227 1030 205 1078 b 95 1019 117 1078 95 1052 l 27 1037 b 140 1163 27 1102 73 1163 b 294 1114 200 1163 237 1114 b 346 1173 323 1114 346 1139 m 176 996 l 281 996 l 281 946 b 323 832 281 903 291 865 l 263 793 b 176 946 208 828 176 889 "},"Ῠ":{"ha":951,"x_min":0,"x_max":0,"o":"m 206 1010 l 470 551 l 481 551 l 745 1010 l 918 1010 l 551 397 l 551 0 l 400 0 l 400 397 l 33 1010 m 693 1267 b 475 1079 693 1156 609 1079 b 258 1267 343 1079 258 1156 l 379 1267 b 475 1173 379 1217 405 1173 b 572 1267 545 1173 572 1217 "},"Ῡ":{"ha":951,"x_min":0,"x_max":0,"o":"m 206 1010 l 470 551 l 481 551 l 745 1010 l 918 1010 l 551 397 l 551 0 l 400 0 l 400 397 l 33 1010 m 710 1159 l 242 1159 l 242 1263 l 710 1263 "},"Ὺ":{"ha":1208,"x_min":0,"x_max":0,"o":"m 440 1010 l 704 551 l 715 551 l 979 1010 l 1152 1010 l 786 397 l 786 0 l 634 0 l 634 397 l 267 1010 m 198 779 l 41 996 l 41 1010 l 184 1010 l 261 794 l 261 779 "},"Ύ":{"ha":1195,"x_min":0,"x_max":0,"o":"m 428 1010 l 691 551 l 702 551 l 966 1010 l 1139 1010 l 773 397 l 773 0 l 621 0 l 621 397 l 254 1010 m 22 867 l 98 1083 l 256 1083 l 256 1069 l 99 852 l 22 852 "},"Z":{"ha":887,"x_min":0,"x_max":0,"o":"m 85 102 l 616 879 l 80 879 l 80 1010 l 802 1010 l 802 908 l 271 131 l 807 131 l 807 0 l 85 0 "},"Ź":{"ha":887,"x_min":0,"x_max":0,"o":"m 85 102 l 616 879 l 80 879 l 80 1010 l 802 1010 l 802 908 l 271 131 l 807 131 l 807 0 l 85 0 m 499 1339 l 654 1339 l 501 1111 l 383 1111 "},"Ż":{"ha":887,"x_min":0,"x_max":0,"o":"m 85 102 l 616 879 l 80 879 l 80 1010 l 802 1010 l 802 908 l 271 131 l 807 131 l 807 0 l 85 0 m 444 1127 b 351 1215 393 1127 351 1166 b 444 1303 351 1263 393 1303 b 538 1215 495 1303 538 1263 b 444 1127 538 1166 495 1127 "},"Ž":{"ha":887,"x_min":0,"x_max":0,"o":"m 85 102 l 616 879 l 80 879 l 80 1010 l 802 1010 l 802 908 l 271 131 l 807 131 l 807 0 l 85 0 m 444 1185 l 545 1317 l 679 1317 l 679 1310 l 506 1101 l 383 1101 l 210 1310 l 210 1317 l 343 1317 "},"Ẑ":{"ha":887,"x_min":0,"x_max":0,"o":"m 85 102 l 616 879 l 80 879 l 80 1010 l 802 1010 l 802 908 l 271 131 l 807 131 l 807 0 l 85 0 m 210 1101 l 210 1108 l 383 1317 l 506 1317 l 679 1108 l 679 1101 l 545 1101 l 444 1233 l 343 1101 "},"Ẓ":{"ha":887,"x_min":0,"x_max":0,"o":"m 85 102 l 616 879 l 80 879 l 80 1010 l 802 1010 l 802 908 l 271 131 l 807 131 l 807 0 l 85 0 m 440 -261 b 347 -174 389 -261 347 -222 b 440 -85 347 -125 389 -85 b 534 -174 491 -85 534 -125 b 440 -261 534 -222 491 -261 "},"Ẕ":{"ha":887,"x_min":0,"x_max":0,"o":"m 85 102 l 616 879 l 80 879 l 80 1010 l 802 1010 l 802 908 l 271 131 l 807 131 l 807 0 l 85 0 m 675 -228 l 207 -228 l 207 -125 l 675 -125 "},"Ȥ":{"ha":887,"x_min":0,"x_max":0,"o":"m 80 1010 l 802 1010 l 802 908 l 270 131 l 591 131 b 817 -88 733 131 817 44 l 817 -158 l 685 -158 l 685 -115 b 591 0 685 -56 665 0 l 85 0 l 85 102 l 618 879 l 80 879 "},"Ƶ":{"ha":887,"x_min":0,"x_max":0,"o":"m 85 102 l 339 473 l 229 473 l 229 576 l 409 576 l 616 879 l 80 879 l 80 1010 l 802 1010 l 802 908 l 575 576 l 682 576 l 682 473 l 505 473 l 271 131 l 807 131 l 807 0 l 85 0 "},"Ζ":{"ha":887,"x_min":0,"x_max":0,"o":"m 85 102 l 616 879 l 80 879 l 80 1010 l 802 1010 l 802 908 l 271 131 l 807 131 l 807 0 l 85 0 "},"Ɀ":{"ha":887,"x_min":0,"x_max":0,"o":"m 702 -296 b 143 0 482 -296 403 0 l 84 0 l 84 99 l 614 874 l 80 874 l 80 1004 l 800 1004 l 800 906 l 264 118 b 723 -162 502 66 581 -162 b 817 -149 761 -162 790 -156 l 817 -277 b 702 -296 793 -288 748 -296 "},"a":{"ha":791,"x_min":0,"x_max":0,"o":"m 320 -17 b 64 214 176 -17 64 65 b 354 440 64 386 211 424 b 545 509 490 456 545 455 l 545 512 b 401 648 545 598 497 648 b 225 543 302 648 247 596 l 87 574 b 400 767 136 712 262 767 b 693 503 520 767 693 724 l 693 0 l 549 0 l 549 104 l 544 104 b 320 -17 515 47 445 -17 m 352 102 b 546 273 474 102 546 183 l 546 371 b 363 330 525 350 411 337 b 208 212 278 319 208 291 b 352 102 208 139 268 102 "},"á":{"ha":791,"x_min":0,"x_max":0,"o":"m 320 -17 b 64 214 176 -17 64 65 b 354 440 64 386 211 424 b 545 509 490 456 545 455 l 545 512 b 401 648 545 598 497 648 b 225 543 302 648 247 596 l 87 574 b 400 767 136 712 262 767 b 693 503 520 767 693 724 l 693 0 l 549 0 l 549 104 l 544 104 b 320 -17 515 47 445 -17 m 352 102 b 546 273 474 102 546 183 l 546 371 b 363 330 525 350 411 337 b 208 212 278 319 208 291 b 352 102 208 139 268 102 m 462 1086 l 617 1086 l 464 859 l 346 859 "},"ă":{"ha":791,"x_min":0,"x_max":0,"o":"m 320 -17 b 64 214 176 -17 64 65 b 354 440 64 386 211 424 b 545 509 490 456 545 455 l 545 512 b 401 648 545 598 497 648 b 225 543 302 648 247 596 l 87 574 b 400 767 136 712 262 767 b 693 503 520 767 693 724 l 693 0 l 549 0 l 549 104 l 544 104 b 320 -17 515 47 445 -17 m 352 102 b 546 273 474 102 546 183 l 546 371 b 363 330 525 350 411 337 b 208 212 278 319 208 291 b 352 102 208 139 268 102 m 625 1014 b 407 827 625 903 541 827 b 190 1014 275 827 190 903 l 311 1014 b 407 920 311 965 337 920 b 504 1014 476 920 504 964 "},"ắ":{"ha":791,"x_min":0,"x_max":0,"o":"m 320 -17 b 64 214 176 -17 64 65 b 354 440 64 386 211 424 b 545 509 490 456 545 455 l 545 512 b 401 648 545 598 497 648 b 225 543 302 648 247 596 l 87 574 b 400 767 136 712 262 767 b 693 503 520 767 693 724 l 693 0 l 549 0 l 549 104 l 544 104 b 320 -17 515 47 445 -17 m 352 102 b 546 273 474 102 546 183 l 546 371 b 363 330 525 350 411 337 b 208 212 278 319 208 291 b 352 102 208 139 268 102 m 623 991 b 403 842 623 904 539 842 b 184 991 268 842 184 904 l 302 991 b 403 914 302 951 329 914 b 505 991 476 914 505 951 m 436 1133 l 558 1133 l 443 1002 l 358 1002 "},"ặ":{"ha":791,"x_min":0,"x_max":0,"o":"m 320 -17 b 64 214 176 -17 64 65 b 354 440 64 386 211 424 b 545 509 490 456 545 455 l 545 512 b 401 648 545 598 497 648 b 225 543 302 648 247 596 l 87 574 b 400 767 136 712 262 767 b 693 503 520 767 693 724 l 693 0 l 549 0 l 549 104 l 544 104 b 320 -17 515 47 445 -17 m 352 102 b 546 273 474 102 546 183 l 546 371 b 363 330 525 350 411 337 b 208 212 278 319 208 291 b 352 102 208 139 268 102 m 625 1014 b 407 827 625 903 541 827 b 190 1014 275 827 190 903 l 311 1014 b 407 920 311 965 337 920 b 504 1014 476 920 504 964 m 400 -261 b 307 -174 349 -261 307 -222 b 400 -85 307 -125 349 -85 b 494 -174 451 -85 494 -125 b 400 -261 494 -222 451 -261 "},"ằ":{"ha":791,"x_min":0,"x_max":0,"o":"m 320 -17 b 64 214 176 -17 64 65 b 354 440 64 386 211 424 b 545 509 490 456 545 455 l 545 512 b 401 648 545 598 497 648 b 225 543 302 648 247 596 l 87 574 b 400 767 136 712 262 767 b 693 503 520 767 693 724 l 693 0 l 549 0 l 549 104 l 544 104 b 320 -17 515 47 445 -17 m 352 102 b 546 273 474 102 546 183 l 546 371 b 363 330 525 350 411 337 b 208 212 278 319 208 291 b 352 102 208 139 268 102 m 623 992 b 403 843 623 906 540 843 b 184 992 268 843 184 906 l 302 992 b 403 915 302 951 329 915 b 505 992 475 915 505 951 m 258 1133 l 380 1133 l 458 1002 l 373 1002 "},"ẳ":{"ha":791,"x_min":0,"x_max":0,"o":"m 320 -17 b 64 214 176 -17 64 65 b 354 440 64 386 211 424 b 545 509 490 456 545 455 l 545 512 b 401 648 545 598 497 648 b 225 543 302 648 247 596 l 87 574 b 400 767 136 712 262 767 b 693 503 520 767 693 724 l 693 0 l 549 0 l 549 104 l 544 104 b 320 -17 515 47 445 -17 m 352 102 b 546 273 474 102 546 183 l 546 371 b 363 330 525 350 411 337 b 208 212 278 319 208 291 b 352 102 208 139 268 102 m 615 998 b 400 850 616 911 534 850 b 185 998 268 850 185 911 l 301 998 b 400 923 302 957 329 923 b 499 998 472 923 499 958 m 352 1015 l 346 1096 b 439 1130 412 1098 440 1107 b 337 1167 440 1159 396 1167 l 343 1230 b 556 1131 484 1230 556 1191 b 456 1055 556 1081 507 1061 l 456 1015 "},"ẵ":{"ha":791,"x_min":0,"x_max":0,"o":"m 320 -17 b 64 214 176 -17 64 65 b 354 440 64 386 211 424 b 545 509 490 456 545 455 l 545 512 b 401 648 545 598 497 648 b 225 543 302 648 247 596 l 87 574 b 400 767 136 712 262 767 b 693 503 520 767 693 724 l 693 0 l 549 0 l 549 104 l 544 104 b 320 -17 515 47 445 -17 m 352 102 b 546 273 474 102 546 183 l 546 371 b 363 330 525 350 411 337 b 208 212 278 319 208 291 b 352 102 208 139 268 102 m 618 1003 b 401 852 618 914 536 852 b 185 1003 269 852 185 914 l 302 1003 b 401 927 302 963 329 927 b 501 1003 473 927 501 962 m 601 1186 b 487 1063 601 1120 553 1063 b 332 1111 413 1063 391 1111 b 281 1053 304 1111 281 1086 l 212 1069 b 326 1195 212 1134 259 1195 b 481 1147 385 1195 423 1147 b 533 1206 509 1147 533 1173 "},"ǎ":{"ha":791,"x_min":0,"x_max":0,"o":"m 320 -17 b 64 214 176 -17 64 65 b 354 440 64 386 211 424 b 545 509 490 456 545 455 l 545 512 b 401 648 545 598 497 648 b 225 543 302 648 247 596 l 87 574 b 400 767 136 712 262 767 b 693 503 520 767 693 724 l 693 0 l 549 0 l 549 104 l 544 104 b 320 -17 515 47 445 -17 m 352 102 b 546 273 474 102 546 183 l 546 371 b 363 330 525 350 411 337 b 208 212 278 319 208 291 b 352 102 208 139 268 102 m 407 933 l 509 1065 l 642 1065 l 642 1057 l 469 848 l 346 848 l 173 1057 l 173 1065 l 306 1065 "},"â":{"ha":791,"x_min":0,"x_max":0,"o":"m 320 -17 b 64 214 176 -17 64 65 b 354 440 64 386 211 424 b 545 509 490 456 545 455 l 545 512 b 401 648 545 598 497 648 b 225 543 302 648 247 596 l 87 574 b 400 767 136 712 262 767 b 693 503 520 767 693 724 l 693 0 l 549 0 l 549 104 l 544 104 b 320 -17 515 47 445 -17 m 352 102 b 546 273 474 102 546 183 l 546 371 b 363 330 525 350 411 337 b 208 212 278 319 208 291 b 352 102 208 139 268 102 m 173 848 l 173 856 l 346 1065 l 469 1065 l 642 856 l 642 848 l 509 848 l 407 981 l 306 848 "},"ấ":{"ha":791,"x_min":0,"x_max":0,"o":"m 320 -17 b 64 214 176 -17 64 65 b 354 440 64 386 211 424 b 545 509 490 456 545 455 l 545 512 b 401 648 545 598 497 648 b 225 543 302 648 247 596 l 87 574 b 400 767 136 712 262 767 b 693 503 520 767 693 724 l 693 0 l 549 0 l 549 104 l 544 104 b 320 -17 515 47 445 -17 m 352 102 b 546 273 474 102 546 183 l 546 371 b 363 330 525 350 411 337 b 208 212 278 319 208 291 b 352 102 208 139 268 102 m 352 1019 l 462 1019 l 663 848 l 518 848 l 408 946 l 298 848 l 152 848 m 713 1138 l 864 1138 l 718 958 l 610 958 "},"ậ":{"ha":791,"x_min":0,"x_max":0,"o":"m 320 -17 b 64 214 176 -17 64 65 b 354 440 64 386 211 424 b 545 509 490 456 545 455 l 545 512 b 401 648 545 598 497 648 b 225 543 302 648 247 596 l 87 574 b 400 767 136 712 262 767 b 693 503 520 767 693 724 l 693 0 l 549 0 l 549 104 l 544 104 b 320 -17 515 47 445 -17 m 352 102 b 546 273 474 102 546 183 l 546 371 b 363 330 525 350 411 337 b 208 212 278 319 208 291 b 352 102 208 139 268 102 m 173 848 l 173 856 l 346 1065 l 469 1065 l 642 856 l 642 848 l 509 848 l 407 981 l 306 848 m 400 -261 b 307 -174 349 -261 307 -222 b 400 -85 307 -125 349 -85 b 494 -174 451 -85 494 -125 b 400 -261 494 -222 451 -261 "},"ầ":{"ha":791,"x_min":0,"x_max":0,"o":"m 320 -17 b 64 214 176 -17 64 65 b 354 440 64 386 211 424 b 545 509 490 456 545 455 l 545 512 b 401 648 545 598 497 648 b 225 543 302 648 247 596 l 87 574 b 400 767 136 712 262 767 b 693 503 520 767 693 724 l 693 0 l 549 0 l 549 104 l 544 104 b 320 -17 515 47 445 -17 m 352 102 b 546 273 474 102 546 183 l 546 371 b 363 330 525 350 411 337 b 208 212 278 319 208 291 b 352 102 208 139 268 102 m 662 846 l 517 846 l 407 944 l 297 846 l 152 846 l 351 1017 l 461 1017 m 204 955 l 98 955 l -49 1136 l 102 1136 "},"ẩ":{"ha":791,"x_min":0,"x_max":0,"o":"m 320 -17 b 64 214 176 -17 64 65 b 354 440 64 386 211 424 b 545 509 490 456 545 455 l 545 512 b 401 648 545 598 497 648 b 225 543 302 648 247 596 l 87 574 b 400 767 136 712 262 767 b 693 503 520 767 693 724 l 693 0 l 549 0 l 549 104 l 544 104 b 320 -17 515 47 445 -17 m 352 102 b 546 273 474 102 546 183 l 546 371 b 363 330 525 350 411 337 b 208 212 278 319 208 291 b 352 102 208 139 268 102 m 661 837 l 532 837 l 405 949 l 281 837 l 151 837 l 340 1008 l 472 1008 m 598 929 l 595 1014 b 676 1054 650 1018 676 1027 b 585 1096 676 1085 637 1096 l 590 1166 b 778 1055 713 1166 778 1123 b 690 969 778 999 734 975 l 690 929 "},"ẫ":{"ha":791,"x_min":0,"x_max":0,"o":"m 320 -17 b 64 214 176 -17 64 65 b 354 440 64 386 211 424 b 545 509 490 456 545 455 l 545 512 b 401 648 545 598 497 648 b 225 543 302 648 247 596 l 87 574 b 400 767 136 712 262 767 b 693 503 520 767 693 724 l 693 0 l 549 0 l 549 104 l 544 104 b 320 -17 515 47 445 -17 m 352 102 b 546 273 474 102 546 183 l 546 371 b 363 330 525 350 411 337 b 208 212 278 319 208 291 b 352 102 208 139 268 102 m 661 827 l 531 827 l 406 925 l 282 827 l 151 827 l 356 988 l 456 988 m 584 1141 b 478 1034 584 1088 540 1034 b 338 1081 413 1034 390 1081 b 288 1032 313 1081 288 1056 l 229 1048 b 333 1155 229 1100 272 1155 b 473 1111 387 1155 424 1111 b 523 1160 499 1111 523 1136 "},"ȁ":{"ha":791,"x_min":0,"x_max":0,"o":"m 320 -17 b 64 214 176 -17 64 65 b 354 440 64 386 211 424 b 545 509 490 456 545 455 l 545 512 b 401 648 545 598 497 648 b 225 543 302 648 247 596 l 87 574 b 400 767 136 712 262 767 b 693 503 520 767 693 724 l 693 0 l 549 0 l 549 104 l 544 104 b 320 -17 515 47 445 -17 m 352 102 b 546 273 474 102 546 183 l 546 371 b 363 330 525 350 411 337 b 208 212 278 319 208 291 b 352 102 208 139 268 102 m 367 1042 l 466 1086 l 569 903 l 498 859 m 112 1042 l 198 1086 l 341 903 l 278 859 "},"ä":{"ha":791,"x_min":0,"x_max":0,"o":"m 320 -17 b 64 214 176 -17 64 65 b 354 440 64 386 211 424 b 545 509 490 456 545 455 l 545 512 b 401 648 545 598 497 648 b 225 543 302 648 247 596 l 87 574 b 400 767 136 712 262 767 b 693 503 520 767 693 724 l 693 0 l 549 0 l 549 104 l 544 104 b 320 -17 515 47 445 -17 m 352 102 b 546 273 474 102 546 183 l 546 371 b 363 330 525 350 411 337 b 208 212 278 319 208 291 b 352 102 208 139 268 102 m 262 876 b 175 962 216 876 175 916 b 262 1049 175 1011 216 1049 b 349 962 312 1049 349 1011 b 262 876 349 916 312 876 m 552 876 b 465 962 506 876 465 916 b 552 1049 465 1011 506 1049 b 639 962 602 1049 639 1011 b 552 876 639 916 602 876 "},"ǟ":{"ha":791,"x_min":0,"x_max":0,"o":"m 320 -17 b 64 214 176 -17 64 65 b 354 440 64 386 211 424 b 545 509 490 456 545 455 l 545 512 b 401 648 545 598 497 648 b 225 543 302 648 247 596 l 87 574 b 400 767 136 712 262 767 b 693 503 520 767 693 724 l 693 0 l 549 0 l 549 104 l 544 104 b 320 -17 515 47 445 -17 m 352 102 b 546 273 474 102 546 183 l 546 371 b 363 330 525 350 411 337 b 208 212 278 319 208 291 b 352 102 208 139 268 102 m 641 1159 l 173 1159 l 173 1263 l 641 1263 m 262 876 b 175 962 216 876 175 916 b 262 1049 175 1011 216 1049 b 349 962 312 1049 349 1011 b 262 876 349 916 312 876 m 552 876 b 465 962 506 876 465 916 b 552 1049 465 1011 506 1049 b 639 962 602 1049 639 1011 b 552 876 639 916 602 876 "},"ȧ":{"ha":791,"x_min":0,"x_max":0,"o":"m 320 -17 b 64 214 176 -17 64 65 b 354 440 64 386 211 424 b 545 509 490 456 545 455 l 545 512 b 401 648 545 598 497 648 b 225 543 302 648 247 596 l 87 574 b 400 767 136 712 262 767 b 693 503 520 767 693 724 l 693 0 l 549 0 l 549 104 l 544 104 b 320 -17 515 47 445 -17 m 352 102 b 546 273 474 102 546 183 l 546 371 b 363 330 525 350 411 337 b 208 212 278 319 208 291 b 352 102 208 139 268 102 m 407 874 b 314 962 356 874 314 914 b 407 1051 314 1011 356 1051 b 501 962 458 1051 501 1011 b 407 874 501 914 458 874 "},"ạ":{"ha":791,"x_min":0,"x_max":0,"o":"m 320 -17 b 64 214 176 -17 64 65 b 354 440 64 386 211 424 b 545 509 490 456 545 455 l 545 512 b 401 648 545 598 497 648 b 225 543 302 648 247 596 l 87 574 b 400 767 136 712 262 767 b 693 503 520 767 693 724 l 693 0 l 549 0 l 549 104 l 544 104 b 320 -17 515 47 445 -17 m 352 102 b 546 273 474 102 546 183 l 546 371 b 363 330 525 350 411 337 b 208 212 278 319 208 291 b 352 102 208 139 268 102 m 400 -261 b 307 -174 349 -261 307 -222 b 400 -85 307 -125 349 -85 b 494 -174 451 -85 494 -125 b 400 -261 494 -222 451 -261 "},"ǡ":{"ha":791,"x_min":0,"x_max":0,"o":"m 320 -17 b 64 214 176 -17 64 65 b 354 440 64 386 211 424 b 545 509 490 456 545 455 l 545 512 b 401 648 545 598 497 648 b 225 543 302 648 247 596 l 87 574 b 400 767 136 712 262 767 b 693 503 520 767 693 724 l 693 0 l 549 0 l 549 104 l 544 104 b 320 -17 515 47 445 -17 m 352 102 b 546 273 474 102 546 183 l 546 371 b 363 330 525 350 411 337 b 208 212 278 319 208 291 b 352 102 208 139 268 102 m 634 1097 l 166 1097 l 166 1196 l 634 1196 m 409 836 b 316 920 358 836 316 874 b 409 1005 316 967 358 1005 b 502 920 460 1005 502 967 b 409 836 502 874 460 836 "},"à":{"ha":791,"x_min":0,"x_max":0,"o":"m 320 -17 b 64 214 176 -17 64 65 b 354 440 64 386 211 424 b 545 509 490 456 545 455 l 545 512 b 401 648 545 598 497 648 b 225 543 302 648 247 596 l 87 574 b 400 767 136 712 262 767 b 693 503 520 767 693 724 l 693 0 l 549 0 l 549 104 l 544 104 b 320 -17 515 47 445 -17 m 352 102 b 546 273 474 102 546 183 l 546 371 b 363 330 525 350 411 337 b 208 212 278 319 208 291 b 352 102 208 139 268 102 m 197 1086 l 353 1086 l 468 859 l 350 859 "},"ả":{"ha":791,"x_min":0,"x_max":0,"o":"m 320 -17 b 64 214 176 -17 64 65 b 354 440 64 386 211 424 b 545 509 490 456 545 455 l 545 512 b 401 648 545 598 497 648 b 225 543 302 648 247 596 l 87 574 b 400 767 136 712 262 767 b 693 503 520 767 693 724 l 693 0 l 549 0 l 549 104 l 544 104 b 320 -17 515 47 445 -17 m 352 102 b 546 273 474 102 546 183 l 546 371 b 363 330 525 350 411 337 b 208 212 278 319 208 291 b 352 102 208 139 268 102 m 351 862 l 347 963 b 442 1011 417 966 443 981 b 339 1060 443 1046 397 1060 l 343 1141 b 571 1010 492 1141 571 1090 b 468 909 571 945 519 917 l 468 862 "},"ȃ":{"ha":791,"x_min":0,"x_max":0,"o":"m 320 -17 b 64 214 176 -17 64 65 b 354 440 64 386 211 424 b 545 509 490 456 545 455 l 545 512 b 401 648 545 598 497 648 b 225 543 302 648 247 596 l 87 574 b 400 767 136 712 262 767 b 693 503 520 767 693 724 l 693 0 l 549 0 l 549 104 l 544 104 b 320 -17 515 47 445 -17 m 352 102 b 546 273 474 102 546 183 l 546 371 b 363 330 525 350 411 337 b 208 212 278 319 208 291 b 352 102 208 139 268 102 m 188 882 b 406 1073 188 993 272 1073 b 623 882 541 1073 623 993 l 503 882 b 406 977 502 933 474 977 b 310 882 335 977 309 932 l 188 882 "},"ā":{"ha":791,"x_min":0,"x_max":0,"o":"m 320 -17 b 64 214 176 -17 64 65 b 354 440 64 386 211 424 b 545 509 490 456 545 455 l 545 512 b 401 648 545 598 497 648 b 225 543 302 648 247 596 l 87 574 b 400 767 136 712 262 767 b 693 503 520 767 693 724 l 693 0 l 549 0 l 549 104 l 544 104 b 320 -17 515 47 445 -17 m 352 102 b 546 273 474 102 546 183 l 546 371 b 363 330 525 350 411 337 b 208 212 278 319 208 291 b 352 102 208 139 268 102 m 641 907 l 173 907 l 173 1010 l 641 1010 "},"ą":{"ha":791,"x_min":0,"x_max":0,"o":"m 320 -17 b 64 214 176 -17 64 65 b 354 440 64 386 211 424 b 545 509 490 456 545 455 l 545 512 b 401 648 545 598 497 648 b 225 543 302 648 247 596 l 87 574 b 400 767 136 712 262 767 b 693 503 520 767 693 724 l 693 0 b 582 -136 633 -38 582 -80 b 632 -184 582 -166 595 -184 b 694 -168 659 -184 681 -175 l 707 -262 b 599 -291 684 -276 648 -291 b 451 -161 516 -291 456 -246 b 549 15 447 -100 475 -35 l 549 104 l 544 104 b 320 -17 515 47 445 -17 m 352 102 b 546 273 474 102 546 183 l 546 371 b 363 330 525 350 411 337 b 208 212 278 319 208 291 b 352 102 208 139 268 102 "},"ẚ":{"ha":791,"x_min":0,"x_max":0,"o":"m 320 -17 b 64 214 176 -17 64 65 b 354 440 64 386 211 424 b 545 509 490 456 545 455 l 545 512 b 401 648 545 598 497 648 b 225 543 302 648 247 596 l 87 574 b 400 767 136 712 262 767 b 693 503 520 767 693 724 l 693 0 l 549 0 l 549 104 l 544 104 b 320 -17 515 47 445 -17 m 352 102 b 546 273 474 102 546 183 l 546 371 b 363 330 525 350 411 337 b 208 212 278 319 208 291 b 352 102 208 139 268 102 m 345 925 b 409 989 380 925 409 953 b 345 1058 409 1029 380 1058 l 345 1127 b 485 989 422 1127 485 1070 b 345 857 485 910 422 857 "},"å":{"ha":791,"x_min":0,"x_max":0,"o":"m 320 -17 b 64 214 176 -17 64 65 b 354 440 64 386 211 424 b 545 509 490 456 545 455 l 545 512 b 401 648 545 598 497 648 b 225 543 302 648 247 596 l 87 574 b 400 767 136 712 262 767 b 693 503 520 767 693 724 l 693 0 l 549 0 l 549 104 l 544 104 b 320 -17 515 47 445 -17 m 407 841 b 231 1007 309 841 231 914 b 407 1177 231 1100 309 1177 b 581 1007 506 1177 581 1100 b 407 841 581 914 506 841 m 352 102 b 546 273 474 102 546 183 l 546 371 b 363 330 525 350 411 337 b 208 212 278 319 208 291 b 352 102 208 139 268 102 m 407 920 b 496 1007 459 921 496 962 b 407 1096 496 1053 459 1096 b 319 1007 356 1096 319 1053 b 407 920 319 962 356 920 "},"ǻ":{"ha":791,"x_min":0,"x_max":0,"o":"m 320 -17 b 64 214 176 -17 64 65 b 354 440 64 386 211 424 b 545 509 490 456 545 455 l 545 512 b 401 648 545 598 497 648 b 225 543 302 648 247 596 l 87 574 b 400 767 136 712 262 767 b 693 503 520 767 693 724 l 693 0 l 549 0 l 549 104 l 544 104 b 320 -17 515 47 445 -17 m 352 102 b 546 273 474 102 546 183 l 546 371 b 363 330 525 350 411 337 b 208 212 278 319 208 291 b 352 102 208 139 268 102 m 407 812 b 288 928 343 812 288 864 b 407 1044 288 991 343 1044 b 526 928 474 1044 526 991 b 407 812 526 864 474 812 m 461 1209 l 612 1209 l 449 1080 l 351 1080 m 407 880 b 455 928 435 880 455 902 b 407 973 455 951 435 973 b 360 928 381 973 360 951 b 407 880 360 902 381 880 "},"ḁ":{"ha":791,"x_min":0,"x_max":0,"o":"m 320 -17 b 64 214 176 -17 64 65 b 354 440 64 386 211 424 b 545 509 490 456 545 455 l 545 512 b 401 648 545 598 497 648 b 225 543 302 648 247 596 l 87 574 b 400 767 136 712 262 767 b 693 503 520 767 693 724 l 693 0 l 549 0 l 549 104 l 544 104 b 320 -17 515 47 445 -17 m 352 102 b 546 273 474 102 546 183 l 546 371 b 363 330 525 350 411 337 b 208 212 278 319 208 291 b 352 102 208 139 268 102 m 266 -162 b 390 -47 266 -96 320 -47 b 513 -162 456 -47 513 -96 b 390 -277 513 -231 456 -277 b 266 -162 320 -277 266 -230 m 333 -162 b 390 -218 333 -194 357 -218 b 446 -162 419 -218 446 -194 b 390 -106 446 -130 419 -106 b 333 -162 357 -106 333 -130 "},"ã":{"ha":791,"x_min":0,"x_max":0,"o":"m 320 -17 b 64 214 176 -17 64 65 b 354 440 64 386 211 424 b 545 509 490 456 545 455 l 545 512 b 401 648 545 598 497 648 b 225 543 302 648 247 596 l 87 574 b 400 767 136 712 262 767 b 693 503 520 767 693 724 l 693 0 l 549 0 l 549 104 l 544 104 b 320 -17 515 47 445 -17 m 352 102 b 546 273 474 102 546 183 l 546 371 b 363 330 525 350 411 337 b 208 212 278 319 208 291 b 352 102 208 139 268 102 m 160 852 b 313 1032 160 961 226 1032 b 493 965 394 1032 427 965 b 558 1041 531 965 557 998 l 655 1034 b 502 857 655 924 588 858 b 322 924 408 857 392 924 b 259 849 285 924 259 892 "},"ɐ":{"ha":791,"x_min":0,"x_max":0,"o":"m 471 774 b 727 544 615 774 727 692 b 436 317 727 371 580 334 b 245 249 300 301 245 302 l 245 245 b 389 109 245 159 294 109 b 565 215 488 109 544 161 l 704 183 b 391 -10 654 45 528 -10 b 97 254 271 -10 97 34 l 97 758 l 241 758 l 241 654 l 247 654 b 471 774 275 711 346 774 m 439 656 b 245 484 316 656 245 574 l 245 387 b 427 427 266 408 379 421 b 582 545 512 438 582 467 b 439 656 582 618 522 656 "},"а":{"ha":791,"x_min":0,"x_max":0,"o":"m 320 -17 b 64 214 176 -17 64 65 b 354 440 64 386 211 424 b 545 509 490 456 545 455 l 545 512 b 401 648 545 598 497 648 b 225 543 302 648 247 596 l 87 574 b 400 767 136 712 262 767 b 693 503 520 767 693 724 l 693 0 l 549 0 l 549 104 l 544 104 b 320 -17 515 47 445 -17 m 352 102 b 546 273 474 102 546 183 l 546 371 b 363 330 525 350 411 337 b 208 212 278 319 208 291 b 352 102 208 139 268 102 "},"ӑ":{"ha":791,"x_min":0,"x_max":0,"o":"m 320 -17 b 64 214 176 -17 64 65 b 354 440 64 386 211 424 b 545 509 490 456 545 455 l 545 512 b 401 648 545 598 497 648 b 225 543 302 648 247 596 l 87 574 b 400 767 136 712 262 767 b 693 503 520 767 693 724 l 693 0 l 549 0 l 549 104 l 544 104 b 320 -17 515 47 445 -17 m 352 102 b 546 273 474 102 546 183 l 546 371 b 363 330 525 350 411 337 b 208 212 278 319 208 291 b 352 102 208 139 268 102 m 625 1014 b 407 827 625 903 541 827 b 190 1014 275 827 190 903 l 311 1014 b 407 920 311 965 337 920 b 504 1014 476 920 504 964 "},"ӓ":{"ha":791,"x_min":0,"x_max":0,"o":"m 320 -17 b 64 214 176 -17 64 65 b 354 440 64 386 211 424 b 545 509 490 456 545 455 l 545 512 b 401 648 545 598 497 648 b 225 543 302 648 247 596 l 87 574 b 400 767 136 712 262 767 b 693 503 520 767 693 724 l 693 0 l 549 0 l 549 104 l 544 104 b 320 -17 515 47 445 -17 m 352 102 b 546 273 474 102 546 183 l 546 371 b 363 330 525 350 411 337 b 208 212 278 319 208 291 b 352 102 208 139 268 102 m 262 876 b 175 962 216 876 175 916 b 262 1049 175 1011 216 1049 b 349 962 312 1049 349 1011 b 262 876 349 916 312 876 m 552 876 b 465 962 506 876 465 916 b 552 1049 465 1011 506 1049 b 639 962 602 1049 639 1011 b 552 876 639 916 602 876 "},"æ":{"ha":1279,"x_min":0,"x_max":0,"o":"m 893 -15 b 610 133 761 -15 658 41 l 605 133 b 324 -17 572 48 455 -17 b 64 214 175 -17 64 66 b 354 440 64 386 211 424 b 545 509 490 457 545 456 l 545 512 b 401 648 545 598 497 648 b 225 543 303 648 247 596 l 87 574 b 400 767 136 712 262 767 b 637 654 476 767 584 749 b 878 767 693 727 774 767 b 1214 387 1051 767 1214 660 l 1214 334 l 675 334 b 890 107 679 189 765 107 b 1065 215 974 107 1038 143 l 1204 189 b 893 -15 1171 66 1053 -15 m 352 102 b 546 273 474 102 546 183 l 546 371 b 363 330 525 350 411 337 b 208 212 278 319 208 291 b 352 102 208 139 268 102 m 1069 445 b 879 646 1069 561 994 646 b 676 445 760 646 682 552 "},"ǣ":{"ha":1279,"x_min":0,"x_max":0,"o":"m 893 -15 b 610 133 761 -15 658 41 l 605 133 b 324 -17 572 48 455 -17 b 64 214 175 -17 64 66 b 354 440 64 386 211 424 b 545 509 490 457 545 456 l 545 512 b 401 648 545 598 497 648 b 225 543 303 648 247 596 l 87 574 b 400 767 136 712 262 767 b 637 654 476 767 584 749 b 878 767 693 727 774 767 b 1214 387 1051 767 1214 660 l 1214 334 l 675 334 b 890 107 679 189 765 107 b 1065 215 974 107 1038 143 l 1204 189 b 893 -15 1171 66 1053 -15 m 352 102 b 546 273 474 102 546 183 l 546 371 b 363 330 525 350 411 337 b 208 212 278 319 208 291 b 352 102 208 139 268 102 m 1069 445 b 879 646 1069 561 994 646 b 676 445 760 646 682 552 m 863 907 l 395 907 l 395 1010 l 863 1010 "},"ǽ":{"ha":1279,"x_min":0,"x_max":0,"o":"m 893 -15 b 610 133 761 -15 658 41 l 605 133 b 324 -17 572 48 455 -17 b 64 214 175 -17 64 66 b 354 440 64 386 211 424 b 545 509 490 457 545 456 l 545 512 b 401 648 545 598 497 648 b 225 543 303 648 247 596 l 87 574 b 400 767 136 712 262 767 b 637 654 476 767 584 749 b 878 767 693 727 774 767 b 1214 387 1051 767 1214 660 l 1214 334 l 675 334 b 890 107 679 189 765 107 b 1065 215 974 107 1038 143 l 1204 189 b 893 -15 1171 66 1053 -15 m 352 102 b 546 273 474 102 546 183 l 546 371 b 363 330 525 350 411 337 b 208 212 278 319 208 291 b 352 102 208 139 268 102 m 1069 445 b 879 646 1069 561 994 646 b 676 445 760 646 682 552 m 684 1086 l 839 1086 l 686 859 l 568 859 "},"ӕ":{"ha":1279,"x_min":0,"x_max":0,"o":"m 893 -15 b 610 133 761 -15 658 41 l 605 133 b 324 -17 572 48 455 -17 b 64 214 175 -17 64 66 b 354 440 64 386 211 424 b 545 509 490 457 545 456 l 545 512 b 401 648 545 598 497 648 b 225 543 303 648 247 596 l 87 574 b 400 767 136 712 262 767 b 637 654 476 767 584 749 b 878 767 693 727 774 767 b 1214 387 1051 767 1214 660 l 1214 334 l 675 334 b 890 107 679 189 765 107 b 1065 215 974 107 1038 143 l 1204 189 b 893 -15 1171 66 1053 -15 m 352 102 b 546 273 474 102 546 183 l 546 371 b 363 330 525 350 411 337 b 208 212 278 319 208 291 b 352 102 208 139 268 102 m 1069 445 b 879 646 1069 561 994 646 b 676 445 760 646 682 552 "},"":{"ha":869,"x_min":0,"x_max":0,"o":"m 383 -15 b 66 377 199 -15 66 132 b 384 767 66 623 201 767 b 602 635 525 767 575 682 l 611 635 l 611 758 l 758 758 l 758 0 l 614 0 l 614 118 l 602 118 b 383 -15 575 70 521 -15 m 415 111 b 613 379 543 111 613 219 b 415 642 613 537 544 642 b 215 379 282 642 215 529 b 415 111 215 227 284 111 "},"":{"ha":869,"x_min":0,"x_max":0,"o":"m 383 -15 b 66 377 199 -15 66 132 b 384 767 66 623 201 767 b 602 635 525 767 575 682 l 611 635 l 611 758 l 758 758 l 758 0 l 614 0 l 614 118 l 602 118 b 383 -15 575 70 521 -15 m 415 111 b 613 379 543 111 613 219 b 415 642 613 537 544 642 b 215 379 282 642 215 529 b 415 111 215 227 284 111 m 485 1086 l 641 1086 l 488 859 l 370 859 "},"":{"ha":869,"x_min":0,"x_max":0,"o":"m 383 -15 b 66 377 199 -15 66 132 b 384 767 66 623 201 767 b 602 635 525 767 575 682 l 611 635 l 611 758 l 758 758 l 758 0 l 614 0 l 614 118 l 602 118 b 383 -15 575 70 521 -15 m 415 111 b 613 379 543 111 613 219 b 415 642 613 537 544 642 b 215 379 282 642 215 529 b 415 111 215 227 284 111 m 649 1014 b 431 827 649 903 565 827 b 214 1014 298 827 214 903 l 335 1014 b 431 920 335 965 361 920 b 528 1014 500 920 528 964 "},"":{"ha":869,"x_min":0,"x_max":0,"o":"m 383 -15 b 66 377 199 -15 66 132 b 384 767 66 623 201 767 b 602 635 525 767 575 682 l 611 635 l 611 758 l 758 758 l 758 0 l 614 0 l 614 118 l 602 118 b 383 -15 575 70 521 -15 m 415 111 b 613 379 543 111 613 219 b 415 642 613 537 544 642 b 215 379 282 642 215 529 b 415 111 215 227 284 111 m 647 991 b 427 842 647 904 563 842 b 208 991 291 842 208 904 l 326 991 b 427 914 326 951 353 914 b 528 991 500 914 528 951 m 460 1133 l 581 1133 l 467 1002 l 382 1002 "},"":{"ha":869,"x_min":0,"x_max":0,"o":"m 383 -15 b 66 377 199 -15 66 132 b 384 767 66 623 201 767 b 602 635 525 767 575 682 l 611 635 l 611 758 l 758 758 l 758 0 l 614 0 l 614 118 l 602 118 b 383 -15 575 70 521 -15 m 415 111 b 613 379 543 111 613 219 b 415 642 613 537 544 642 b 215 379 282 642 215 529 b 415 111 215 227 284 111 m 649 1014 b 431 827 649 903 565 827 b 214 1014 298 827 214 903 l 335 1014 b 431 920 335 965 361 920 b 528 1014 500 920 528 964 m 424 -261 b 331 -174 373 -261 331 -222 b 424 -85 331 -125 373 -85 b 517 -174 475 -85 517 -125 b 424 -261 517 -222 475 -261 "},"":{"ha":869,"x_min":0,"x_max":0,"o":"m 383 -15 b 66 377 199 -15 66 132 b 384 767 66 623 201 767 b 602 635 525 767 575 682 l 611 635 l 611 758 l 758 758 l 758 0 l 614 0 l 614 118 l 602 118 b 383 -15 575 70 521 -15 m 415 111 b 613 379 543 111 613 219 b 415 642 613 537 544 642 b 215 379 282 642 215 529 b 415 111 215 227 284 111 m 647 992 b 427 843 647 906 563 843 b 208 992 291 843 208 906 l 326 992 b 427 915 326 951 353 915 b 528 992 499 915 528 951 m 282 1133 l 404 1133 l 481 1002 l 397 1002 "},"":{"ha":869,"x_min":0,"x_max":0,"o":"m 383 -15 b 66 377 199 -15 66 132 b 384 767 66 623 201 767 b 602 635 525 767 575 682 l 611 635 l 611 758 l 758 758 l 758 0 l 614 0 l 614 118 l 602 118 b 383 -15 575 70 521 -15 m 415 111 b 613 379 543 111 613 219 b 415 642 613 537 544 642 b 215 379 282 642 215 529 b 415 111 215 227 284 111 m 639 998 b 424 850 639 911 557 850 b 209 998 292 850 209 911 l 325 998 b 424 923 326 957 353 923 b 522 998 495 923 523 958 m 375 1015 l 370 1096 b 463 1130 436 1098 464 1107 b 361 1167 464 1159 419 1167 l 367 1230 b 580 1131 508 1230 580 1191 b 480 1055 580 1081 530 1061 l 480 1015 "},"":{"ha":869,"x_min":0,"x_max":0,"o":"m 383 -15 b 66 377 199 -15 66 132 b 384 767 66 623 201 767 b 602 635 525 767 575 682 l 611 635 l 611 758 l 758 758 l 758 0 l 614 0 l 614 118 l 602 118 b 383 -15 575 70 521 -15 m 415 111 b 613 379 543 111 613 219 b 415 642 613 537 544 642 b 215 379 282 642 215 529 b 415 111 215 227 284 111 m 642 1003 b 425 852 642 914 559 852 b 209 1003 293 852 209 914 l 326 1003 b 425 927 326 963 353 927 b 525 1003 497 927 524 962 m 625 1186 b 510 1063 625 1120 577 1063 b 356 1111 437 1063 415 1111 b 304 1053 327 1111 304 1086 l 235 1069 b 350 1195 235 1134 283 1195 b 505 1147 409 1195 446 1147 b 556 1206 532 1147 556 1173 "},"":{"ha":869,"x_min":0,"x_max":0,"o":"m 383 -15 b 66 377 199 -15 66 132 b 384 767 66 623 201 767 b 602 635 525 767 575 682 l 611 635 l 611 758 l 758 758 l 758 0 l 614 0 l 614 118 l 602 118 b 383 -15 575 70 521 -15 m 415 111 b 613 379 543 111 613 219 b 415 642 613 537 544 642 b 215 379 282 642 215 529 b 415 111 215 227 284 111 m 431 933 l 532 1065 l 666 1065 l 666 1057 l 492 848 l 369 848 l 196 1057 l 196 1065 l 329 1065 "},"":{"ha":869,"x_min":0,"x_max":0,"o":"m 383 -15 b 66 377 199 -15 66 132 b 384 767 66 623 201 767 b 602 635 525 767 575 682 l 611 635 l 611 758 l 758 758 l 758 0 l 614 0 l 614 118 l 602 118 b 383 -15 575 70 521 -15 m 415 111 b 613 379 543 111 613 219 b 415 642 613 537 544 642 b 215 379 282 642 215 529 b 415 111 215 227 284 111 m 196 848 l 196 856 l 369 1065 l 492 1065 l 666 856 l 666 848 l 532 848 l 431 981 l 329 848 "},"":{"ha":869,"x_min":0,"x_max":0,"o":"m 383 -15 b 66 377 199 -15 66 132 b 384 767 66 623 201 767 b 602 635 525 767 575 682 l 611 635 l 611 758 l 758 758 l 758 0 l 614 0 l 614 118 l 602 118 b 383 -15 575 70 521 -15 m 415 111 b 613 379 543 111 613 219 b 415 642 613 537 544 642 b 215 379 282 642 215 529 b 415 111 215 227 284 111 m 376 1019 l 486 1019 l 687 848 l 542 848 l 432 946 l 322 848 l 176 848 m 737 1138 l 887 1138 l 742 958 l 634 958 "},"":{"ha":869,"x_min":0,"x_max":0,"o":"m 383 -15 b 66 377 199 -15 66 132 b 384 767 66 623 201 767 b 602 635 525 767 575 682 l 611 635 l 611 758 l 758 758 l 758 0 l 614 0 l 614 118 l 602 118 b 383 -15 575 70 521 -15 m 415 111 b 613 379 543 111 613 219 b 415 642 613 537 544 642 b 215 379 282 642 215 529 b 415 111 215 227 284 111 m 196 848 l 196 856 l 369 1065 l 492 1065 l 666 856 l 666 848 l 532 848 l 431 981 l 329 848 m 424 -261 b 331 -174 373 -261 331 -222 b 424 -85 331 -125 373 -85 b 517 -174 475 -85 517 -125 b 424 -261 517 -222 475 -261 "},"":{"ha":869,"x_min":0,"x_max":0,"o":"m 383 -15 b 66 377 199 -15 66 132 b 384 767 66 623 201 767 b 602 635 525 767 575 682 l 611 635 l 611 758 l 758 758 l 758 0 l 614 0 l 614 118 l 602 118 b 383 -15 575 70 521 -15 m 415 111 b 613 379 543 111 613 219 b 415 642 613 537 544 642 b 215 379 282 642 215 529 b 415 111 215 227 284 111 m 686 846 l 541 846 l 431 944 l 321 846 l 176 846 l 375 1017 l 485 1017 m 227 955 l 121 955 l -26 1136 l 126 1136 "},"":{"ha":869,"x_min":0,"x_max":0,"o":"m 383 -15 b 66 377 199 -15 66 132 b 384 767 66 623 201 767 b 602 635 525 767 575 682 l 611 635 l 611 758 l 758 758 l 758 0 l 614 0 l 614 118 l 602 118 b 383 -15 575 70 521 -15 m 415 111 b 613 379 543 111 613 219 b 415 642 613 537 544 642 b 215 379 282 642 215 529 b 415 111 215 227 284 111 m 685 837 l 555 837 l 429 949 l 304 837 l 175 837 l 364 1008 l 495 1008 m 621 929 l 618 1014 b 699 1054 674 1018 699 1027 b 609 1096 699 1085 661 1096 l 614 1166 b 802 1055 737 1166 802 1123 b 713 969 802 999 758 975 l 713 929 "},"":{"ha":869,"x_min":0,"x_max":0,"o":"m 383 -15 b 66 377 199 -15 66 132 b 384 767 66 623 201 767 b 602 635 525 767 575 682 l 611 635 l 611 758 l 758 758 l 758 0 l 614 0 l 614 118 l 602 118 b 383 -15 575 70 521 -15 m 415 111 b 613 379 543 111 613 219 b 415 642 613 537 544 642 b 215 379 282 642 215 529 b 415 111 215 227 284 111 m 685 827 l 554 827 l 430 925 l 305 827 l 175 827 l 379 988 l 480 988 m 608 1141 b 502 1034 608 1088 563 1034 b 362 1081 436 1034 414 1081 b 312 1032 336 1081 312 1056 l 253 1048 b 357 1155 253 1100 296 1155 b 497 1111 411 1155 447 1111 b 547 1160 522 1111 547 1136 "},"":{"ha":869,"x_min":0,"x_max":0,"o":"m 383 -15 b 66 377 199 -15 66 132 b 384 767 66 623 201 767 b 602 635 525 767 575 682 l 611 635 l 611 758 l 758 758 l 758 0 l 614 0 l 614 118 l 602 118 b 383 -15 575 70 521 -15 m 415 111 b 613 379 543 111 613 219 b 415 642 613 537 544 642 b 215 379 282 642 215 529 b 415 111 215 227 284 111 m 391 1042 l 490 1086 l 593 903 l 522 859 m 136 1042 l 222 1086 l 365 903 l 302 859 "},"":{"ha":869,"x_min":0,"x_max":0,"o":"m 383 -15 b 66 377 199 -15 66 132 b 384 767 66 623 201 767 b 602 635 525 767 575 682 l 611 635 l 611 758 l 758 758 l 758 0 l 614 0 l 614 118 l 602 118 b 383 -15 575 70 521 -15 m 415 111 b 613 379 543 111 613 219 b 415 642 613 537 544 642 b 215 379 282 642 215 529 b 415 111 215 227 284 111 m 286 876 b 199 962 240 876 199 916 b 286 1049 199 1011 240 1049 b 373 962 335 1049 373 1011 b 286 876 373 916 335 876 m 576 876 b 489 962 530 876 489 916 b 576 1049 489 1011 530 1049 b 663 962 625 1049 663 1011 b 576 876 663 916 625 876 "},"":{"ha":869,"x_min":0,"x_max":0,"o":"m 383 -15 b 66 377 199 -15 66 132 b 384 767 66 623 201 767 b 602 635 525 767 575 682 l 611 635 l 611 758 l 758 758 l 758 0 l 614 0 l 614 118 l 602 118 b 383 -15 575 70 521 -15 m 415 111 b 613 379 543 111 613 219 b 415 642 613 537 544 642 b 215 379 282 642 215 529 b 415 111 215 227 284 111 m 665 1159 l 197 1159 l 197 1263 l 665 1263 m 286 876 b 199 962 240 876 199 916 b 286 1049 199 1011 240 1049 b 373 962 335 1049 373 1011 b 286 876 373 916 335 876 m 576 876 b 489 962 530 876 489 916 b 576 1049 489 1011 530 1049 b 663 962 625 1049 663 1011 b 576 876 663 916 625 876 "},"":{"ha":869,"x_min":0,"x_max":0,"o":"m 383 -15 b 66 377 199 -15 66 132 b 384 767 66 623 201 767 b 602 635 525 767 575 682 l 611 635 l 611 758 l 758 758 l 758 0 l 614 0 l 614 118 l 602 118 b 383 -15 575 70 521 -15 m 415 111 b 613 379 543 111 613 219 b 415 642 613 537 544 642 b 215 379 282 642 215 529 b 415 111 215 227 284 111 m 431 874 b 338 962 380 874 338 914 b 431 1051 338 1011 380 1051 b 524 962 482 1051 524 1011 b 431 874 524 914 482 874 "},"":{"ha":869,"x_min":0,"x_max":0,"o":"m 383 -15 b 66 377 199 -15 66 132 b 384 767 66 623 201 767 b 602 635 525 767 575 682 l 611 635 l 611 758 l 758 758 l 758 0 l 614 0 l 614 118 l 602 118 b 383 -15 575 70 521 -15 m 415 111 b 613 379 543 111 613 219 b 415 642 613 537 544 642 b 215 379 282 642 215 529 b 415 111 215 227 284 111 m 424 -261 b 331 -174 373 -261 331 -222 b 424 -85 331 -125 373 -85 b 517 -174 475 -85 517 -125 b 424 -261 517 -222 475 -261 "},"":{"ha":869,"x_min":0,"x_max":0,"o":"m 383 -15 b 66 377 199 -15 66 132 b 384 767 66 623 201 767 b 602 635 525 767 575 682 l 611 635 l 611 758 l 758 758 l 758 0 l 614 0 l 614 118 l 602 118 b 383 -15 575 70 521 -15 m 415 111 b 613 379 543 111 613 219 b 415 642 613 537 544 642 b 215 379 282 642 215 529 b 415 111 215 227 284 111 m 658 1097 l 190 1097 l 190 1196 l 658 1196 m 433 836 b 339 920 381 836 339 874 b 433 1005 339 967 381 1005 b 526 920 483 1005 526 967 b 433 836 526 874 483 836 "},"":{"ha":869,"x_min":0,"x_max":0,"o":"m 383 -15 b 66 377 199 -15 66 132 b 384 767 66 623 201 767 b 602 635 525 767 575 682 l 611 635 l 611 758 l 758 758 l 758 0 l 614 0 l 614 118 l 602 118 b 383 -15 575 70 521 -15 m 415 111 b 613 379 543 111 613 219 b 415 642 613 537 544 642 b 215 379 282 642 215 529 b 415 111 215 227 284 111 m 221 1086 l 376 1086 l 491 859 l 373 859 "},"":{"ha":869,"x_min":0,"x_max":0,"o":"m 383 -15 b 66 377 199 -15 66 132 b 384 767 66 623 201 767 b 602 635 525 767 575 682 l 611 635 l 611 758 l 758 758 l 758 0 l 614 0 l 614 118 l 602 118 b 383 -15 575 70 521 -15 m 415 111 b 613 379 543 111 613 219 b 415 642 613 537 544 642 b 215 379 282 642 215 529 b 415 111 215 227 284 111 m 375 862 l 371 963 b 466 1011 440 966 467 981 b 363 1060 467 1046 421 1060 l 367 1141 b 594 1010 516 1141 595 1090 b 491 909 595 945 543 917 l 491 862 "},"":{"ha":869,"x_min":0,"x_max":0,"o":"m 383 -15 b 66 377 199 -15 66 132 b 384 767 66 623 201 767 b 602 635 525 767 575 682 l 611 635 l 611 758 l 758 758 l 758 0 l 614 0 l 614 118 l 602 118 b 383 -15 575 70 521 -15 m 415 111 b 613 379 543 111 613 219 b 415 642 613 537 544 642 b 215 379 282 642 215 529 b 415 111 215 227 284 111 m 212 882 b 430 1073 212 993 296 1073 b 647 882 564 1073 647 993 l 526 882 b 430 977 526 933 498 977 b 333 882 359 977 333 932 l 212 882 "},"":{"ha":869,"x_min":0,"x_max":0,"o":"m 383 -15 b 66 377 199 -15 66 132 b 384 767 66 623 201 767 b 602 635 525 767 575 682 l 611 635 l 611 758 l 758 758 l 758 0 l 614 0 l 614 118 l 602 118 b 383 -15 575 70 521 -15 m 415 111 b 613 379 543 111 613 219 b 415 642 613 537 544 642 b 215 379 282 642 215 529 b 415 111 215 227 284 111 m 665 907 l 197 907 l 197 1010 l 665 1010 "},"":{"ha":869,"x_min":0,"x_max":0,"o":"m 383 -15 b 66 377 199 -15 66 132 b 384 767 66 623 201 767 b 602 635 525 767 575 682 l 611 635 l 611 758 l 758 758 l 758 0 b 647 -136 698 -38 647 -80 b 697 -184 647 -166 660 -184 b 759 -168 724 -184 745 -175 l 771 -262 b 664 -291 749 -276 712 -291 b 515 -161 581 -291 521 -246 b 614 15 511 -100 540 -35 l 614 118 l 602 118 b 383 -15 575 70 521 -15 m 415 111 b 613 379 543 111 613 219 b 415 642 613 537 544 642 b 215 379 282 642 215 529 b 415 111 215 227 284 111 "},"":{"ha":869,"x_min":0,"x_max":0,"o":"m 383 -15 b 66 377 199 -15 66 132 b 384 767 66 623 201 767 b 602 635 525 767 575 682 l 611 635 l 611 758 l 758 758 l 758 0 l 614 0 l 614 118 l 602 118 b 383 -15 575 70 521 -15 m 415 111 b 613 379 543 111 613 219 b 415 642 613 537 544 642 b 215 379 282 642 215 529 b 415 111 215 227 284 111 m 368 925 b 433 989 404 925 433 953 b 368 1058 433 1029 404 1058 l 368 1127 b 509 989 445 1127 509 1070 b 368 857 509 910 445 857 "},"":{"ha":869,"x_min":0,"x_max":0,"o":"m 383 -15 b 66 377 199 -15 66 132 b 384 767 66 623 201 767 b 602 635 525 767 575 682 l 611 635 l 611 758 l 758 758 l 758 0 l 614 0 l 614 118 l 602 118 b 383 -15 575 70 521 -15 m 415 111 b 613 379 543 111 613 219 b 415 642 613 537 544 642 b 215 379 282 642 215 529 b 415 111 215 227 284 111 m 431 841 b 255 1007 332 841 255 914 b 431 1177 255 1100 332 1177 b 605 1007 529 1177 605 1100 b 431 841 605 914 529 841 m 431 920 b 520 1007 482 921 520 962 b 431 1096 520 1053 482 1096 b 342 1007 379 1096 342 1053 b 431 920 342 962 379 920 "},"":{"ha":869,"x_min":0,"x_max":0,"o":"m 383 -15 b 66 377 199 -15 66 132 b 384 767 66 623 201 767 b 602 635 525 767 575 682 l 611 635 l 611 758 l 758 758 l 758 0 l 614 0 l 614 118 l 602 118 b 383 -15 575 70 521 -15 m 415 111 b 613 379 543 111 613 219 b 415 642 613 537 544 642 b 215 379 282 642 215 529 b 415 111 215 227 284 111 m 431 812 b 312 928 366 812 312 864 b 431 1044 312 991 366 1044 b 550 928 498 1044 550 991 b 431 812 550 864 498 812 m 485 1209 l 636 1209 l 472 1080 l 374 1080 m 431 880 b 479 928 459 880 479 902 b 431 973 479 951 459 973 b 383 928 405 973 383 951 b 431 880 383 902 405 880 "},"":{"ha":869,"x_min":0,"x_max":0,"o":"m 383 -15 b 66 377 199 -15 66 132 b 384 767 66 623 201 767 b 602 635 525 767 575 682 l 611 635 l 611 758 l 758 758 l 758 0 l 614 0 l 614 118 l 602 118 b 383 -15 575 70 521 -15 m 415 111 b 613 379 543 111 613 219 b 415 642 613 537 544 642 b 215 379 282 642 215 529 b 415 111 215 227 284 111 m 290 -162 b 414 -47 290 -96 344 -47 b 537 -162 479 -47 537 -96 b 414 -277 537 -231 479 -277 b 290 -162 344 -277 290 -230 m 357 -162 b 414 -218 357 -194 381 -218 b 470 -162 442 -218 470 -194 b 414 -106 470 -130 442 -106 b 357 -162 381 -106 357 -130 "},"":{"ha":869,"x_min":0,"x_max":0,"o":"m 383 -15 b 66 377 199 -15 66 132 b 384 767 66 623 201 767 b 602 635 525 767 575 682 l 611 635 l 611 758 l 758 758 l 758 0 l 614 0 l 614 118 l 602 118 b 383 -15 575 70 521 -15 m 415 111 b 613 379 543 111 613 219 b 415 642 613 537 544 642 b 215 379 282 642 215 529 b 415 111 215 227 284 111 m 183 852 b 337 1032 183 961 250 1032 b 517 965 417 1032 451 965 b 581 1041 555 965 581 998 l 679 1034 b 525 857 679 924 612 858 b 345 924 432 857 415 924 b 283 849 309 924 283 892 "},"b":{"ha":869,"x_min":0,"x_max":0,"o":"m 111 1010 l 258 1010 l 258 635 l 267 635 b 485 767 293 682 344 767 b 803 377 668 767 803 623 b 486 -15 803 132 670 -15 b 267 118 348 -15 294 70 l 255 118 l 255 0 l 111 0 m 255 379 b 453 111 255 219 327 111 b 654 379 585 111 654 227 b 453 642 654 529 587 642 b 255 379 325 642 255 537 "},"ƀ":{"ha":869,"x_min":0,"x_max":0,"o":"m 111 818 l -42 818 l -42 920 l 111 920 l 111 1010 l 258 1010 l 258 920 l 411 920 l 411 818 l 258 818 l 258 635 l 267 635 b 485 767 293 682 344 767 b 803 377 668 767 803 623 b 486 -15 803 132 670 -15 b 267 118 348 -15 294 70 l 255 118 l 255 0 l 111 0 m 255 379 b 453 111 255 219 327 111 b 654 379 585 111 654 227 b 453 642 654 529 587 642 b 255 379 325 642 255 537 "},"ƃ":{"ha":869,"x_min":0,"x_max":0,"o":"m 700 887 l 258 887 l 258 635 l 267 635 b 485 767 293 682 344 767 b 803 377 668 767 803 623 b 486 -15 803 132 670 -15 b 267 118 348 -15 294 70 l 255 118 l 255 0 l 111 0 l 111 1010 l 700 1010 m 255 379 b 453 111 255 219 327 111 b 654 379 585 111 654 227 b 453 642 654 529 587 642 b 255 379 325 642 255 537 "}}}
